SplineFontDB: 3.2
FontName: RobotoSlab-Share-Bold
FullName: Roboto Slab Share Bold
FamilyName: Roboto Slab Share
Weight: Bold
Copyright: Copyright 2018 The Roboto Slab Project Authors (https://github.com/googlefonts/robotoslab)\n"Fair and Share" tax glyphs by Vector Hasting and deeded under a CC 4.0 SA-BY
Version: 2.002
ItalicAngle: 0
UnderlinePosition: -200
UnderlineWidth: 100
Ascent: 1638
Descent: 410
InvalidEm: 0
sfntRevision: 0x00020083
LayerCount: 2
Layer: 0 1 "Back" 1
Layer: 1 1 "Fore" 0
XUID: [1021 508 542950195 24084]
StyleMap: 0x0020
FSType: 0
OS2Version: 4
OS2_WeightWidthSlopeOnly: 0
OS2_UseTypoMetrics: 1
CreationTime: 1533152473
ModificationTime: 1758753461
PfmFamily: 81
TTFWeight: 700
TTFWidth: 5
LineGap: 0
VLineGap: 0
Panose: 0 0 0 0 0 0 0 0 0 0
OS2TypoAscent: 2146
OS2TypoAOffset: 0
OS2TypoDescent: -555
OS2TypoDOffset: 0
OS2TypoLinegap: 0
OS2WinAscent: 2146
OS2WinAOffset: 0
OS2WinDescent: 618
OS2WinDOffset: 0
HheadAscent: 2146
HheadAOffset: 0
HheadDescent: -555
HheadDOffset: 0
OS2SubXSize: 1331
OS2SubYSize: 1229
OS2SubXOff: 0
OS2SubYOff: 154
OS2SupXSize: 1331
OS2SupYSize: 1229
OS2SupXOff: 0
OS2SupYOff: 717
OS2StrikeYSize: 100
OS2StrikeYPos: 649
OS2CapHeight: 1456
OS2XHeight: 1082
OS2Vendor: 'GOOG'
OS2CodePages: 2000019f.00000000
OS2UnicodeRanges: 000000ff.0000005b.00000020.00000000
Lookup: 1 0 0 "'aalt' Access All Alternates in Latin lookup 0" { "'aalt' Access All Alternates in Latin lookup 0 subtable"  } ['aalt' ('DFLT' <'dflt' > 'latn' <'CAT ' 'MOL ' 'ROM ' 'dflt' > ) ]
Lookup: 3 0 0 "'aalt' Access All Alternates in Latin lookup 1" { "'aalt' Access All Alternates in Latin lookup 1 subtable"  } ['aalt' ('DFLT' <'dflt' > 'latn' <'CAT ' 'MOL ' 'ROM ' 'dflt' > ) ]
Lookup: 4 0 0 "'ccmp' Glyph Composition/Decomposition in Latin lookup 2" { "'ccmp' Glyph Composition/Decomposition in Latin lookup 2 subtable"  } ['ccmp' ('DFLT' <'dflt' > 'latn' <'CAT ' 'MOL ' 'ROM ' 'dflt' > ) ]

StartChar: .notdef
Encoding: 65536 -1 0
Width: 1038
GlyphClass: 1
Flags: W
LayerCount: 2
Fore
SplineSet
100 0 m 1,0,-1
 100 1456 l 1,1,-1
 938 1456 l 1,2,-1
 938 0 l 1,3,-1
 100 0 l 1,0,-1
120 20 m 1,4,-1
 180 20 l 1,5,-1
 918 1436 l 1,6,-1
 858 1436 l 1,7,-1
 120 20 l 1,4,-1
858 20 m 1,8,-1
 918 20 l 1,9,-1
 180 1436 l 1,10,-1
 120 1436 l 1,11,-1
 858 20 l 1,8,-1
154 54 m 1,12,-1
 884 54 l 1,13,-1
 884 1402 l 1,14,-1
 154 1402 l 1,15,-1
 154 54 l 1,12,-1
EndSplineSet
EndChar

StartChar: A
Encoding: 65 65 1
Width: 1512
GlyphClass: 2
Flags: W
AnchorPoint: "Anchor-3" 1471 0 basechar 0
AnchorPoint: "Anchor-2" 757 0 basechar 0
AnchorPoint: "Anchor-0" 758 1364 basechar 0
LayerCount: 2
Fore
SplineSet
41 0 m 1,0,-1
 41 175 l 1,1,-1
 145 190 l 1,2,-1
 608 1456 l 1,3,-1
 907 1456 l 1,4,-1
 1367 190 l 1,5,-1
 1471 175 l 1,6,-1
 1471 0 l 1,7,-1
 975 0 l 1,8,-1
 975 175 l 1,9,-1
 1076 193 l 1,10,-1
 1012 393 l 1,11,-1
 500 393 l 1,12,-1
 436 193 l 1,13,-1
 537 175 l 1,14,-1
 537 0 l 1,15,-1
 41 0 l 1,0,-1
569 608 m 1,16,-1
 943 608 l 1,17,-1
 773 1107 l 1,18,-1
 759 1151 l 1,19,-1
 753 1151 l 1,20,-1
 738 1104 l 1,21,-1
 569 608 l 1,16,-1
EndSplineSet
Substitution2: "'c2sc' Capitals to Small Capitals in Latin lookup 19 subtable" a.sc
Substitution2: "Single Substitution lookup 17 subtable" ordfeminine
AlternateSubs2: "'aalt' Access All Alternates in Latin lookup 1 subtable" a.sc ordfeminine
EndChar

StartChar: AE
Encoding: 198 198 25
Width: 2092
GlyphClass: 2
Flags: W
AnchorPoint: "Anchor-2" 1086 0 basechar 0
AnchorPoint: "Anchor-0" 1152 1364 basechar 0
LayerCount: 2
Fore
SplineSet
66 0 m 1,0,-1
 66 175 l 1,1,-1
 205 195 l 1,2,-1
 905 1456 l 1,3,-1
 1941 1456 l 1,4,-1
 1941 1087 l 1,5,-1
 1717 1087 l 1,6,-1
 1705 1228 l 1,7,-1
 1326 1228 l 1,8,-1
 1342 862 l 1,9,-1
 1858 862 l 1,10,-1
 1858 635 l 1,11,-1
 1351 635 l 1,12,-1
 1369 227 l 1,13,-1
 1767 227 l 1,14,-1
 1780 368 l 1,15,-1
 2003 368 l 1,16,-1
 2003 0 l 1,17,-1
 928 0 l 1,18,-1
 928 175 l 1,19,-1
 1078 203 l 1,20,-1
 1072 354 l 1,21,-1
 624 354 l 1,22,-1
 537 189 l 1,23,-1
 623 175 l 1,24,-1
 623 0 l 1,25,-1
 66 0 l 1,0,-1
740 582 m 1,26,-1
 1062 582 l 1,27,-1
 1038 1136 l 1,28,-1
 1033 1137 l 1,29,-1
 1023 1116 l 1,30,-1
 740 582 l 1,26,-1
EndSplineSet
Substitution2: "'c2sc' Capitals to Small Capitals in Latin lookup 19 subtable" ae.sc
Substitution2: "'aalt' Access All Alternates in Latin lookup 0 subtable" ae.sc
EndChar

StartChar: B
Encoding: 66 66 27
Width: 1344
GlyphClass: 2
Flags: W
AnchorPoint: "Anchor-2" 677 0 basechar 0
AnchorPoint: "Anchor-0" 677 1364 basechar 0
LayerCount: 2
Fore
SplineSet
56 0 m 1,0,-1
 56 175 l 1,1,-1
 211 205 l 1,2,-1
 211 1250 l 1,3,-1
 56 1280 l 1,4,-1
 56 1456 l 1,5,-1
 211 1456 l 1,6,-1
 703 1456 l 2,7,8
 960 1456 960 1456 1104 1356 c 128,-1,9
 1248 1256 1248 1256 1248 1057 c 0,10,11
 1248 956 1248 956 1194.5 876.5 c 128,-1,12
 1141 797 1141 797 1039 757 c 1,13,14
 1126 738 1126 738 1184.5 690 c 128,-1,15
 1243 642 1243 642 1272 573.5 c 128,-1,16
 1301 505 1301 505 1301 424 c 0,17,18
 1301 215 1301 215 1163 107.5 c 128,-1,19
 1025 0 1025 0 772 0 c 2,20,-1
 56 0 l 1,0,-1
503 224 m 1,21,-1
 772 224 l 2,22,23
 888 224 888 224 949 274.5 c 128,-1,24
 1010 325 1010 325 1010 424 c 0,25,26
 1010 531 1010 531 958 587.5 c 128,-1,27
 906 644 906 644 794 644 c 2,28,-1
 503 644 l 1,29,-1
 503 224 l 1,21,-1
503 846 m 1,30,-1
 713 846 l 2,31,32
 830 846 830 846 893 894 c 128,-1,33
 956 942 956 942 956 1034 c 0,34,35
 956 1135 956 1135 892.5 1183 c 128,-1,36
 829 1231 829 1231 703 1231 c 2,37,-1
 503 1231 l 1,38,-1
 503 846 l 1,30,-1
EndSplineSet
Substitution2: "'c2sc' Capitals to Small Capitals in Latin lookup 19 subtable" b.sc
Substitution2: "'aalt' Access All Alternates in Latin lookup 0 subtable" b.sc
EndChar

StartChar: C
Encoding: 67 67 28
Width: 1321
GlyphClass: 2
Flags: W
AnchorPoint: "Anchor-2" 719 0 basechar 0
AnchorPoint: "Anchor-0" 719 1364 basechar 0
LayerCount: 2
Fore
SplineSet
749 -21 m 0,0,1
 537 -21 537 -21 380 67.5 c 128,-1,2
 223 156 223 156 137.5 318.5 c 128,-1,3
 52 481 52 481 52 703 c 2,4,-1
 52 752 l 2,5,6
 52 964 52 964 134.5 1127.5 c 128,-1,7
 217 1291 217 1291 370 1384 c 128,-1,8
 523 1477 523 1477 734 1477 c 0,9,10
 882 1477 882 1477 1011.5 1435 c 128,-1,11
 1141 1393 1141 1393 1243 1307 c 1,12,-1
 1243 955 l 1,13,-1
 1026 955 l 1,14,-1
 996 1176 l 1,15,16
 963 1200 963 1200 924 1217 c 128,-1,17
 885 1234 885 1234 839.5 1243 c 128,-1,18
 794 1252 794 1252 741 1252 c 0,19,20
 617 1252 617 1252 528 1191 c 128,-1,21
 439 1130 439 1130 391.5 1018.5 c 128,-1,22
 344 907 344 907 344 754 c 2,23,-1
 344 703 l 2,24,25
 344 550 344 550 394 438 c 128,-1,26
 444 326 444 326 536 264.5 c 128,-1,27
 628 203 628 203 754 203 c 0,28,29
 817 203 817 203 880.5 217.5 c 128,-1,30
 944 232 944 232 996 255 c 1,31,-1
 1026 460 l 1,32,-1
 1243 460 l 1,33,-1
 1243 112 l 1,34,35
 1158 56 1158 56 1031 17.5 c 128,-1,36
 904 -21 904 -21 749 -21 c 0,0,1
EndSplineSet
Substitution2: "'ss04' Style Set 4 in Latin lookup 26 subtable" C.ss04
Substitution2: "'ss03' Style Set 3 in Latin lookup 25 subtable" C.ss03
Substitution2: "'c2sc' Capitals to Small Capitals in Latin lookup 19 subtable" c.sc
AlternateSubs2: "'aalt' Access All Alternates in Latin lookup 1 subtable" C.ss03 C.ss04 c.sc
EndChar

StartChar: D
Encoding: 68 68 34
Width: 1426
GlyphClass: 2
Flags: W
AnchorPoint: "Anchor-4" 375 738 basechar 0
AnchorPoint: "Anchor-2" 687 0 basechar 0
AnchorPoint: "Anchor-0" 687 1364 basechar 0
LayerCount: 2
Fore
SplineSet
56 0 m 1,0,-1
 56 175 l 1,1,-1
 213 208 l 1,2,-1
 213 1246 l 1,3,-1
 56 1280 l 1,4,-1
 56 1456 l 1,5,-1
 213 1456 l 1,6,-1
 695 1456 l 2,7,8
 890 1456 890 1456 1039 1364.5 c 128,-1,9
 1188 1273 1188 1273 1271.5 1111.5 c 128,-1,10
 1355 950 1355 950 1355 741 c 2,11,-1
 1355 714 l 2,12,13
 1355 507 1355 507 1272.5 345.5 c 128,-1,14
 1190 184 1190 184 1042 92 c 128,-1,15
 894 0 894 0 699 0 c 2,16,-1
 56 0 l 1,0,-1
505 223 m 1,17,-1
 684 223 l 2,18,19
 805 223 805 223 889 286.5 c 128,-1,20
 973 350 973 350 1017.5 461 c 128,-1,21
 1062 572 1062 572 1062 714 c 2,22,-1
 1062 742 l 2,23,24
 1062 886 1062 886 1017.5 996.5 c 128,-1,25
 973 1107 973 1107 889 1169.5 c 128,-1,26
 805 1232 805 1232 684 1232 c 2,27,-1
 505 1232 l 1,28,-1
 505 223 l 1,17,-1
EndSplineSet
Substitution2: "'ss05' Style Set 5 in Latin lookup 27 subtable" D.ss05
Substitution2: "'c2sc' Capitals to Small Capitals in Latin lookup 19 subtable" d.sc
AlternateSubs2: "'aalt' Access All Alternates in Latin lookup 1 subtable" D.ss05 d.sc
EndChar

StartChar: E
Encoding: 69 69 38
Width: 1308
GlyphClass: 2
Flags: W
AnchorPoint: "Anchor-3" 1208 0 basechar 0
AnchorPoint: "Anchor-2" 654 0 basechar 0
AnchorPoint: "Anchor-0" 654 1364 basechar 0
LayerCount: 2
Fore
SplineSet
56 0 m 1,0,-1
 56 175 l 1,1,-1
 211 205 l 1,2,-1
 211 1250 l 1,3,-1
 56 1280 l 1,4,-1
 56 1456 l 1,5,-1
 1186 1456 l 1,6,-1
 1186 1063 l 1,7,-1
 962 1063 l 1,8,-1
 949 1231 l 1,9,-1
 503 1231 l 1,10,-1
 503 865 l 1,11,-1
 996 865 l 1,12,-1
 996 640 l 1,13,-1
 503 640 l 1,14,-1
 503 224 l 1,15,-1
 973 224 l 1,16,-1
 986 398 l 1,17,-1
 1208 398 l 1,18,-1
 1208 0 l 1,19,-1
 56 0 l 1,0,-1
EndSplineSet
Substitution2: "'c2sc' Capitals to Small Capitals in Latin lookup 19 subtable" e.sc
Substitution2: "'aalt' Access All Alternates in Latin lookup 0 subtable" e.sc
EndChar

StartChar: uni018F
Encoding: 399 399 56
Width: 1400
GlyphClass: 2
Flags: W
AnchorPoint: "Anchor-2" 695 0 basechar 0
AnchorPoint: "Anchor-0" 685 1364 basechar 0
LayerCount: 2
Fore
SplineSet
699 -21 m 0,0,1
 496 -21 496 -21 355 61 c 128,-1,2
 214 143 214 143 141.5 295.5 c 128,-1,3
 69 448 69 448 69 660 c 2,4,-1
 69 810 l 1,5,-1
 1017 810 l 1,6,-1
 1020 834 l 1,7,8
 1022 950 1022 950 979.5 1040.5 c 128,-1,9
 937 1131 937 1131 846.5 1183 c 128,-1,10
 756 1235 756 1235 614 1235 c 0,11,12
 495 1235 495 1235 401 1215.5 c 128,-1,13
 307 1196 307 1196 230 1169 c 1,14,-1
 181 1394 l 1,15,16
 236 1422 236 1422 347.5 1449.5 c 128,-1,17
 459 1477 459 1477 614 1477 c 0,18,19
 839 1477 839 1477 996 1393.5 c 128,-1,20
 1153 1310 1153 1310 1234.5 1159.5 c 128,-1,21
 1316 1009 1316 1009 1316 807 c 2,22,-1
 1316 645 l 2,23,24
 1316 450 1316 450 1234.5 300 c 128,-1,25
 1153 150 1153 150 1013.5 64.5 c 128,-1,26
 874 -21 874 -21 699 -21 c 0,0,1
699 220 m 0,27,28
 795 220 795 220 864 267 c 128,-1,29
 933 314 933 314 972 396 c 128,-1,30
 1011 478 1011 478 1017 585 c 1,31,-1
 1015 590 l 1,32,-1
 361 590 l 1,33,-1
 361 559 l 2,34,35
 361 457 361 457 396.5 380.5 c 128,-1,36
 432 304 432 304 506.5 262 c 128,-1,37
 581 220 581 220 699 220 c 0,27,28
EndSplineSet
EndChar

StartChar: F
Encoding: 70 70 57
Width: 1265
GlyphClass: 2
Flags: W
AnchorPoint: "Anchor-4" 385 407 basechar 0
AnchorPoint: "Anchor-2" 633 0 basechar 0
AnchorPoint: "Anchor-0" 633 1364 basechar 0
LayerCount: 2
Fore
SplineSet
56 0 m 1,0,-1
 56 175 l 1,1,-1
 211 205 l 1,2,-1
 211 1250 l 1,3,-1
 56 1280 l 1,4,-1
 56 1456 l 1,5,-1
 1215 1456 l 1,6,-1
 1215 1057 l 1,7,-1
 991 1057 l 1,8,-1
 978 1231 l 1,9,-1
 503 1231 l 1,10,-1
 503 830 l 1,11,-1
 1013 830 l 1,12,-1
 1013 605 l 1,13,-1
 503 605 l 1,14,-1
 503 205 l 1,15,-1
 659 175 l 1,16,-1
 659 0 l 1,17,-1
 56 0 l 1,0,-1
EndSplineSet
Substitution2: "'c2sc' Capitals to Small Capitals in Latin lookup 19 subtable" f.sc
Substitution2: "'aalt' Access All Alternates in Latin lookup 0 subtable" f.sc
EndChar

StartChar: G
Encoding: 71 71 58
Width: 1373
GlyphClass: 2
Flags: W
AnchorPoint: "Anchor-2" 687 0 basechar 0
AnchorPoint: "Anchor-0" 687 1364 basechar 0
LayerCount: 2
Fore
SplineSet
733 -21 m 0,0,1
 516 -21 516 -21 363 69 c 128,-1,2
 210 159 210 159 128.5 319 c 128,-1,3
 47 479 47 479 47 690 c 2,4,-1
 47 740 l 2,5,6
 47 958 47 958 128 1124 c 128,-1,7
 209 1290 209 1290 357.5 1383.5 c 128,-1,8
 506 1477 506 1477 709 1477 c 0,9,10
 866 1477 866 1477 1004 1434 c 128,-1,11
 1142 1391 1142 1391 1244 1305 c 1,12,-1
 1244 982 l 1,13,-1
 1028 982 l 1,14,-1
 987 1177 l 1,15,16
 948 1211 948 1211 882 1231.5 c 128,-1,17
 816 1252 816 1252 731 1252 c 0,18,19
 609 1252 609 1252 520.5 1187.5 c 128,-1,20
 432 1123 432 1123 385 1008.5 c 128,-1,21
 338 894 338 894 338 742 c 2,22,-1
 338 690 l 2,23,24
 338 542 338 542 384.5 432.5 c 128,-1,25
 431 323 431 323 521 263 c 128,-1,26
 611 203 611 203 742 203 c 0,27,28
 819 203 819 203 883.5 217.5 c 128,-1,29
 948 232 948 232 990 253 c 1,30,-1
 990 500 l 1,31,-1
 782 516 l 1,32,-1
 782 721 l 1,33,-1
 1283 721 l 1,34,-1
 1283 132 l 1,35,36
 1186 63 1186 63 1049.5 21 c 128,-1,37
 913 -21 913 -21 733 -21 c 0,0,1
EndSplineSet
Substitution2: "'ss04' Style Set 4 in Latin lookup 26 subtable" G.ss04
Substitution2: "'ss03' Style Set 3 in Latin lookup 25 subtable" G.ss03
Substitution2: "'c2sc' Capitals to Small Capitals in Latin lookup 19 subtable" g.sc
AlternateSubs2: "'aalt' Access All Alternates in Latin lookup 1 subtable" G.ss03 G.ss04 g.sc
EndChar

StartChar: H
Encoding: 72 72 63
Width: 1600
GlyphClass: 2
Flags: W
AnchorPoint: "Anchor-4" 799 1035 basechar 0
AnchorPoint: "Anchor-2" 800 0 basechar 0
AnchorPoint: "Anchor-0" 800 1364 basechar 0
LayerCount: 2
Fore
SplineSet
56 0 m 1,0,-1
 56 175 l 1,1,-1
 211 205 l 1,2,-1
 211 1250 l 1,3,-1
 56 1280 l 1,4,-1
 56 1456 l 1,5,-1
 659 1456 l 1,6,-1
 659 1280 l 1,7,-1
 503 1250 l 1,8,-1
 503 830 l 1,9,-1
 1097 830 l 1,10,-1
 1097 1250 l 1,11,-1
 941 1280 l 1,12,-1
 941 1456 l 1,13,-1
 1097 1456 l 1,14,-1
 1388 1456 l 1,15,-1
 1544 1456 l 1,16,-1
 1544 1280 l 1,17,-1
 1388 1250 l 1,18,-1
 1388 205 l 1,19,-1
 1544 175 l 1,20,-1
 1544 0 l 1,21,-1
 941 0 l 1,22,-1
 941 175 l 1,23,-1
 1097 205 l 1,24,-1
 1097 605 l 1,25,-1
 503 605 l 1,26,-1
 503 205 l 1,27,-1
 659 175 l 1,28,-1
 659 0 l 1,29,-1
 56 0 l 1,0,-1
EndSplineSet
Substitution2: "'c2sc' Capitals to Small Capitals in Latin lookup 19 subtable" h.sc
Substitution2: "'aalt' Access All Alternates in Latin lookup 0 subtable" h.sc
EndChar

StartChar: I
Encoding: 73 73 66
Width: 714
GlyphClass: 2
Flags: W
AnchorPoint: "Anchor-3" 658 0 basechar 0
AnchorPoint: "Anchor-2" 357 0 basechar 0
AnchorPoint: "Anchor-0" 357 1364 basechar 0
LayerCount: 2
Fore
SplineSet
56 0 m 1,0,-1
 56 175 l 1,1,-1
 211 205 l 1,2,-1
 211 1250 l 1,3,-1
 56 1280 l 1,4,-1
 56 1456 l 1,5,-1
 658 1456 l 1,6,-1
 658 1280 l 1,7,-1
 503 1250 l 1,8,-1
 503 205 l 1,9,-1
 658 175 l 1,10,-1
 658 0 l 1,11,-1
 56 0 l 1,0,-1
EndSplineSet
Substitution2: "'c2sc' Capitals to Small Capitals in Latin lookup 19 subtable" i.sc
Substitution2: "'aalt' Access All Alternates in Latin lookup 0 subtable" i.sc
EndChar

StartChar: J
Encoding: 74 74 79
Width: 1202
GlyphClass: 2
Flags: W
AnchorPoint: "Anchor-2" 601 0 basechar 0
AnchorPoint: "Anchor-0" 868 1364 basechar 0
LayerCount: 2
Fore
SplineSet
553 -21 m 0,0,1
 401 -21 401 -21 286.5 30.5 c 128,-1,2
 172 82 172 82 106.5 188 c 128,-1,3
 41 294 41 294 35 457 c 1,4,-1
 37 463 l 1,5,-1
 311 463 l 1,6,7
 319 320 319 320 375 263.5 c 128,-1,8
 431 207 431 207 524 207 c 0,9,10
 584 207 584 207 629.5 233 c 128,-1,11
 675 259 675 259 701.5 310.5 c 128,-1,12
 728 362 728 362 728 437 c 2,13,-1
 728 1250 l 1,14,-1
 532 1280 l 1,15,-1
 532 1456 l 1,16,-1
 1175 1456 l 1,17,-1
 1175 1280 l 1,18,-1
 1019 1250 l 1,19,-1
 1019 437 l 2,20,21
 1019 297 1019 297 965 194 c 128,-1,22
 911 91 911 91 807 35 c 128,-1,23
 703 -21 703 -21 553 -21 c 0,0,1
EndSplineSet
Substitution2: "'c2sc' Capitals to Small Capitals in Latin lookup 19 subtable" j.sc
Substitution2: "'aalt' Access All Alternates in Latin lookup 0 subtable" j.sc
EndChar

StartChar: K
Encoding: 75 75 81
Width: 1545
GlyphClass: 2
Flags: W
AnchorPoint: "Anchor-2" 771 0 basechar 0
AnchorPoint: "Anchor-0" 771 1364 basechar 0
LayerCount: 2
Fore
SplineSet
442 357 m 1,0,-1
 291 530 l 1,1,-1
 1004 1265 l 1,2,-1
 1006 1268 l 1,3,-1
 862 1280 l 1,4,-1
 862 1456 l 1,5,-1
 1461 1456 l 1,6,-1
 1461 1280 l 1,7,-1
 1324 1253 l 1,8,-1
 442 357 l 1,0,-1
56 0 m 1,9,-1
 56 175 l 1,10,-1
 211 205 l 1,11,-1
 211 1250 l 1,12,-1
 56 1280 l 1,13,-1
 56 1456 l 1,14,-1
 651 1456 l 1,15,-1
 651 1280 l 1,16,-1
 503 1250 l 1,17,-1
 503 205 l 1,18,-1
 651 175 l 1,19,-1
 651 0 l 1,20,-1
 56 0 l 1,9,-1
894 0 m 1,21,-1
 894 175 l 1,22,-1
 1030 187 l 1,23,-1
 1031 187 l 1,24,-1
 661 697 l 1,25,-1
 854 890 l 1,26,-1
 1370 200 l 1,27,-1
 1513 175 l 1,28,-1
 1513 0 l 1,29,-1
 894 0 l 1,21,-1
EndSplineSet
Substitution2: "'ss05' Style Set 5 in Latin lookup 27 subtable" K.ss05
Substitution2: "'c2sc' Capitals to Small Capitals in Latin lookup 19 subtable" k.sc
AlternateSubs2: "'aalt' Access All Alternates in Latin lookup 1 subtable" K.ss05 k.sc
EndChar

StartChar: L
Encoding: 76 76 83
Width: 1200
GlyphClass: 2
Flags: W
AnchorPoint: "Anchor-4" 394 762 basechar 0
AnchorPoint: "Anchor-2" 600 0 basechar 0
AnchorPoint: "Anchor-1" 1019 1456 basechar 0
AnchorPoint: "Anchor-0" 372 1364 basechar 0
LayerCount: 2
Fore
SplineSet
56 0 m 1,0,-1
 56 175 l 1,1,-1
 211 205 l 1,2,-1
 211 1250 l 1,3,-1
 56 1280 l 1,4,-1
 56 1456 l 1,5,-1
 211 1456 l 1,6,-1
 503 1456 l 1,7,-1
 679 1456 l 1,8,-1
 679 1280 l 1,9,-1
 503 1250 l 1,10,-1
 503 224 l 1,11,-1
 914 224 l 1,12,-1
 928 437 l 1,13,-1
 1151 437 l 1,14,-1
 1151 0 l 1,15,-1
 56 0 l 1,0,-1
EndSplineSet
Substitution2: "'c2sc' Capitals to Small Capitals in Latin lookup 19 subtable" l.sc
Substitution2: "'aalt' Access All Alternates in Latin lookup 0 subtable" l.sc
EndChar

StartChar: M
Encoding: 77 77 89
Width: 2066
GlyphClass: 2
Flags: W
AnchorPoint: "Anchor-2" 1033 0 basechar 0
AnchorPoint: "Anchor-0" 1033 1364 basechar 0
LayerCount: 2
Fore
SplineSet
56 0 m 1,0,-1
 56 175 l 1,1,-1
 211 205 l 1,2,-1
 211 1250 l 1,3,-1
 56 1280 l 1,4,-1
 56 1456 l 1,5,-1
 211 1456 l 1,6,-1
 643 1456 l 1,7,-1
 1040 441 l 1,8,-1
 1046 441 l 1,9,-1
 1430 1456 l 1,10,-1
 2018 1456 l 1,11,-1
 2018 1280 l 1,12,-1
 1862 1250 l 1,13,-1
 1862 205 l 1,14,-1
 2018 175 l 1,15,-1
 2018 0 l 1,16,-1
 1415 0 l 1,17,-1
 1415 175 l 1,18,-1
 1578 205 l 1,19,-1
 1578 484 l 1,20,-1
 1583 1141 l 1,21,-1
 1577 1142 l 1,22,-1
 1142 20 l 1,23,-1
 921 20 l 1,24,-1
 476 1133 l 1,25,-1
 470 1132 l 1,26,-1
 487 514 l 1,27,-1
 487 205 l 1,28,-1
 659 175 l 1,29,-1
 659 0 l 1,30,-1
 56 0 l 1,0,-1
EndSplineSet
Substitution2: "'c2sc' Capitals to Small Capitals in Latin lookup 19 subtable" m.sc
Substitution2: "'aalt' Access All Alternates in Latin lookup 0 subtable" m.sc
EndChar

StartChar: N
Encoding: 78 78 91
Width: 1604
GlyphClass: 2
Flags: W
AnchorPoint: "Anchor-2" 802 0 basechar 0
AnchorPoint: "Anchor-0" 802 1364 basechar 0
LayerCount: 2
Fore
SplineSet
56 0 m 1,0,-1
 56 175 l 1,1,-1
 211 205 l 1,2,-1
 211 1250 l 1,3,-1
 56 1280 l 1,4,-1
 56 1456 l 1,5,-1
 211 1456 l 1,6,-1
 507 1456 l 1,7,-1
 1141 446 l 1,8,-1
 1147 447 l 1,9,-1
 1147 1250 l 1,10,-1
 961 1280 l 1,11,-1
 961 1456 l 1,12,-1
 1408 1456 l 1,13,-1
 1564 1456 l 1,14,-1
 1564 1280 l 1,15,-1
 1408 1250 l 1,16,-1
 1408 0 l 1,17,-1
 1126 0 l 1,18,-1
 478 1000 l 1,19,-1
 472 999 l 1,20,-1
 472 205 l 1,21,-1
 659 175 l 1,22,-1
 659 0 l 1,23,-1
 56 0 l 1,0,-1
EndSplineSet
Substitution2: "'c2sc' Capitals to Small Capitals in Latin lookup 19 subtable" n.sc
Substitution2: "'aalt' Access All Alternates in Latin lookup 0 subtable" n.sc
EndChar

StartChar: Eng
Encoding: 330 330 96
Width: 1584
GlyphClass: 1
Flags: W
LayerCount: 2
Fore
SplineSet
1019 -437 m 0,0,1
 978 -437 978 -437 945 -433 c 128,-1,2
 912 -429 912 -429 875 -420 c 1,3,-1
 889 -199 l 1,4,5
 912 -205 912 -205 936 -208.5 c 128,-1,6
 960 -212 960 -212 984 -212 c 0,7,8
 1044 -212 1044 -212 1076.5 -167 c 128,-1,9
 1109 -122 1109 -122 1109 -40 c 2,10,-1
 1109 0 l 1,11,-1
 522 982 l 1,12,-1
 516 981 l 1,13,-1
 516 205 l 1,14,-1
 671 175 l 1,15,-1
 671 0 l 1,16,-1
 68 0 l 1,17,-1
 68 175 l 1,18,-1
 224 205 l 1,19,-1
 224 1250 l 1,20,-1
 68 1280 l 1,21,-1
 68 1456 l 1,22,-1
 516 1456 l 1,23,-1
 1103 475 l 1,24,-1
 1109 476 l 1,25,-1
 1109 1250 l 1,26,-1
 954 1280 l 1,27,-1
 954 1456 l 1,28,-1
 1556 1456 l 1,29,-1
 1556 1280 l 1,30,-1
 1401 1250 l 1,31,-1
 1401 -40 l 2,32,33
 1401 -230 1401 -230 1300 -333.5 c 128,-1,34
 1199 -437 1199 -437 1019 -437 c 0,0,1
EndSplineSet
Substitution2: "'c2sc' Capitals to Small Capitals in Latin lookup 19 subtable" eng.sc
Substitution2: "'aalt' Access All Alternates in Latin lookup 0 subtable" eng.sc
EndChar

StartChar: O
Encoding: 79 79 97
Width: 1446
GlyphClass: 2
Flags: W
AnchorPoint: "Anchor-4" 723 728 basechar 0
AnchorPoint: "Anchor-3" 1016 0 basechar 0
AnchorPoint: "Anchor-2" 723 0 basechar 0
AnchorPoint: "Anchor-1" 1066 1364 basechar 0
AnchorPoint: "Anchor-0" 723 1364 basechar 0
LayerCount: 2
Fore
SplineSet
723 -21 m 0,0,1
 576 -21 576 -21 455 34 c 128,-1,2
 334 89 334 89 246.5 188.5 c 128,-1,3
 159 288 159 288 112 422.5 c 128,-1,4
 65 557 65 557 65 717 c 2,5,-1
 65 739 l 2,6,7
 65 898 65 898 112 1032.5 c 128,-1,8
 159 1167 159 1167 246 1267 c 128,-1,9
 333 1367 333 1367 454 1422 c 128,-1,10
 575 1477 575 1477 722 1477 c 0,11,12
 870 1477 870 1477 992 1422 c 128,-1,13
 1114 1367 1114 1367 1202 1267 c 128,-1,14
 1290 1167 1290 1167 1337.5 1032.5 c 128,-1,15
 1385 898 1385 898 1385 739 c 2,16,-1
 1385 717 l 2,17,18
 1385 557 1385 557 1337.5 422.5 c 128,-1,19
 1290 288 1290 288 1202 188.5 c 128,-1,20
 1114 89 1114 89 992.5 34 c 128,-1,21
 871 -21 871 -21 723 -21 c 0,0,1
723 206 m 0,22,23
 847 206 847 206 929 270 c 128,-1,24
 1011 334 1011 334 1052.5 449 c 128,-1,25
 1094 564 1094 564 1094 717 c 2,26,-1
 1094 741 l 2,27,28
 1094 892 1094 892 1052 1006.5 c 128,-1,29
 1010 1121 1010 1121 927.5 1185 c 128,-1,30
 845 1249 845 1249 722 1249 c 0,31,32
 600 1249 600 1249 519 1185.5 c 128,-1,33
 438 1122 438 1122 397.5 1008 c 128,-1,34
 357 894 357 894 357 741 c 2,35,-1
 357 717 l 2,36,37
 357 564 357 564 398 449 c 128,-1,38
 439 334 439 334 520 270 c 128,-1,39
 601 206 601 206 723 206 c 0,22,23
EndSplineSet
Substitution2: "'ss04' Style Set 4 in Latin lookup 26 subtable" O.ss04
Substitution2: "'c2sc' Capitals to Small Capitals in Latin lookup 19 subtable" o.sc
Substitution2: "Single Substitution lookup 17 subtable" ordmasculine
AlternateSubs2: "'aalt' Access All Alternates in Latin lookup 1 subtable" O.ss04 o.sc ordmasculine
EndChar

StartChar: OE
Encoding: 338 338 121
Width: 2029
GlyphClass: 2
Flags: W
AnchorPoint: "Anchor-2" 993 0 basechar 0
AnchorPoint: "Anchor-0" 1034 1364 basechar 0
LayerCount: 2
Fore
SplineSet
751 -21 m 0,0,1
 595 -21 595 -21 468.5 34 c 128,-1,2
 342 89 342 89 251.5 188.5 c 128,-1,3
 161 288 161 288 113 422.5 c 128,-1,4
 65 557 65 557 65 717 c 2,5,-1
 65 739 l 2,6,7
 65 898 65 898 113 1032.5 c 128,-1,8
 161 1167 161 1167 251 1267 c 128,-1,9
 341 1367 341 1367 467 1422 c 128,-1,10
 593 1477 593 1477 750 1477 c 0,11,12
 833 1477 833 1477 918 1463.5 c 128,-1,13
 1003 1450 1003 1450 1087 1424 c 1,14,-1
 1087 1142 l 1,15,16
 1015 1193 1015 1193 927.5 1221 c 128,-1,17
 840 1249 840 1249 750 1249 c 0,18,19
 615 1249 615 1249 528 1185.5 c 128,-1,20
 441 1122 441 1122 399 1008 c 128,-1,21
 357 894 357 894 357 741 c 2,22,-1
 357 717 l 2,23,24
 357 564 357 564 399.5 449 c 128,-1,25
 442 334 442 334 529.5 270 c 128,-1,26
 617 206 617 206 751 206 c 0,27,28
 840 206 840 206 926.5 232 c 128,-1,29
 1013 258 1013 258 1087 304 c 1,30,-1
 1087 31 l 1,31,32
 1003 6 1003 6 918 -7.5 c 128,-1,33
 833 -21 833 -21 751 -21 c 0,0,1
864 0 m 1,34,-1
 930 191 l 1,35,-1
 930 1264 l 1,36,-1
 864 1456 l 1,37,-1
 1925 1456 l 1,38,-1
 1925 1057 l 1,39,-1
 1701 1057 l 1,40,-1
 1688 1231 l 1,41,-1
 1222 1231 l 1,42,-1
 1222 865 l 1,43,-1
 1715 865 l 1,44,-1
 1715 640 l 1,45,-1
 1222 640 l 1,46,-1
 1222 224 l 1,47,-1
 1692 224 l 1,48,-1
 1705 398 l 1,49,-1
 1927 398 l 1,50,-1
 1927 0 l 1,51,-1
 864 0 l 1,34,-1
EndSplineSet
Substitution2: "'ss05' Style Set 5 in Latin lookup 27 subtable" OE.ss05
Substitution2: "'c2sc' Capitals to Small Capitals in Latin lookup 19 subtable" oe.sc
AlternateSubs2: "'aalt' Access All Alternates in Latin lookup 1 subtable" OE.ss05 oe.sc
EndChar

StartChar: P
Encoding: 80 80 122
Width: 1325
GlyphClass: 2
Flags: W
AnchorPoint: "Anchor-2" 479 0 basechar 0
AnchorPoint: "Anchor-0" 663 1364 basechar 0
LayerCount: 2
Fore
SplineSet
56 0 m 1,0,-1
 56 175 l 1,1,-1
 211 205 l 1,2,-1
 211 1250 l 1,3,-1
 56 1280 l 1,4,-1
 56 1456 l 1,5,-1
 211 1456 l 1,6,-1
 749 1456 l 2,7,8
 916 1456 916 1456 1037 1397.5 c 128,-1,9
 1158 1339 1158 1339 1223 1234.5 c 128,-1,10
 1288 1130 1288 1130 1288 991 c 256,11,12
 1288 852 1288 852 1223 747.5 c 128,-1,13
 1158 643 1158 643 1037 585.5 c 128,-1,14
 916 528 916 528 749 528 c 2,15,-1
 503 528 l 1,16,-1
 503 205 l 1,17,-1
 659 175 l 1,18,-1
 659 0 l 1,19,-1
 56 0 l 1,0,-1
503 753 m 1,20,-1
 749 753 l 2,21,22
 871 753 871 753 933.5 819.5 c 128,-1,23
 996 886 996 886 996 989 c 0,24,25
 996 1094 996 1094 933.5 1162.5 c 128,-1,26
 871 1231 871 1231 749 1231 c 2,27,-1
 503 1231 l 1,28,-1
 503 753 l 1,20,-1
EndSplineSet
Substitution2: "'c2sc' Capitals to Small Capitals in Latin lookup 19 subtable" p.sc
Substitution2: "'aalt' Access All Alternates in Latin lookup 0 subtable" p.sc
EndChar

StartChar: Thorn
Encoding: 222 222 123
Width: 1291
GlyphClass: 2
Flags: W
AnchorPoint: "Anchor-2" 381 0 basechar 0
AnchorPoint: "Anchor-0" 381 1364 basechar 0
LayerCount: 2
Fore
SplineSet
67 0 m 1,0,-1
 67 175 l 1,1,-1
 223 205 l 1,2,-1
 223 1250 l 1,3,-1
 67 1280 l 1,4,-1
 67 1456 l 1,5,-1
 515 1456 l 1,6,-1
 671 1456 l 1,7,-1
 671 1280 l 1,8,-1
 515 1250 l 1,9,-1
 515 1161 l 1,10,-1
 723 1161 l 2,11,12
 973 1161 973 1161 1112.5 1043.5 c 128,-1,13
 1252 926 1252 926 1252 737 c 0,14,15
 1252 547 1252 547 1112.5 430 c 128,-1,16
 973 313 973 313 723 313 c 2,17,-1
 515 313 l 1,18,-1
 515 205 l 1,19,-1
 671 175 l 1,20,-1
 671 0 l 1,21,-1
 67 0 l 1,0,-1
515 532 m 1,22,-1
 723 532 l 2,23,24
 803 532 803 532 855 558.5 c 128,-1,25
 907 585 907 585 933.5 631.5 c 128,-1,26
 960 678 960 678 960 735 c 0,27,28
 960 793 960 793 933.5 840 c 128,-1,29
 907 887 907 887 855 914.5 c 128,-1,30
 803 942 803 942 723 942 c 2,31,-1
 515 942 l 1,32,-1
 515 532 l 1,22,-1
EndSplineSet
Substitution2: "'c2sc' Capitals to Small Capitals in Latin lookup 19 subtable" thorn.sc
Substitution2: "'aalt' Access All Alternates in Latin lookup 0 subtable" thorn.sc
EndChar

StartChar: Q
Encoding: 81 81 124
Width: 1449
GlyphClass: 2
Flags: W
AnchorPoint: "Anchor-2" 728 0 basechar 0
AnchorPoint: "Anchor-0" 728 1364 basechar 0
LayerCount: 2
Fore
SplineSet
1293 -281 m 1,0,-1
 882 -3 l 1,1,2
 843 -11 843 -11 803.5 -16 c 128,-1,3
 764 -21 764 -21 725 -21 c 0,4,5
 578 -21 578 -21 456.5 34 c 128,-1,6
 335 89 335 89 248 188 c 128,-1,7
 161 287 161 287 114 422 c 128,-1,8
 67 557 67 557 67 717 c 2,9,-1
 67 739 l 2,10,11
 67 898 67 898 114 1033 c 128,-1,12
 161 1168 161 1168 248 1267.5 c 128,-1,13
 335 1367 335 1367 456 1422 c 128,-1,14
 577 1477 577 1477 724 1477 c 0,15,16
 872 1477 872 1477 993.5 1422 c 128,-1,17
 1115 1367 1115 1367 1203.5 1267.5 c 128,-1,18
 1292 1168 1292 1168 1339.5 1033 c 128,-1,19
 1387 898 1387 898 1387 739 c 2,20,-1
 1387 717 l 2,21,22
 1387 527 1387 527 1318.5 370 c 128,-1,23
 1250 213 1250 213 1127 114 c 1,24,-1
 1437 -79 l 1,25,-1
 1293 -281 l 1,0,-1
725 206 m 0,26,27
 849 206 849 206 931.5 270 c 128,-1,28
 1014 334 1014 334 1055 449 c 128,-1,29
 1096 564 1096 564 1096 717 c 2,30,-1
 1096 741 l 2,31,32
 1096 892 1096 892 1054 1006.5 c 128,-1,33
 1012 1121 1012 1121 929.5 1185 c 128,-1,34
 847 1249 847 1249 724 1249 c 256,35,36
 601 1249 601 1249 520 1185.5 c 128,-1,37
 439 1122 439 1122 399 1008 c 128,-1,38
 359 894 359 894 359 741 c 2,39,-1
 359 717 l 2,40,41
 359 564 359 564 399.5 449 c 128,-1,42
 440 334 440 334 522 270 c 128,-1,43
 604 206 604 206 725 206 c 0,26,27
EndSplineSet
Substitution2: "'c2sc' Capitals to Small Capitals in Latin lookup 19 subtable" q.sc
Substitution2: "'aalt' Access All Alternates in Latin lookup 0 subtable" q.sc
EndChar

StartChar: R
Encoding: 82 82 125
Width: 1408
GlyphClass: 2
Flags: W
AnchorPoint: "Anchor-2" 704 0 basechar 0
AnchorPoint: "Anchor-0" 700 1364 basechar 0
LayerCount: 2
Fore
SplineSet
56 0 m 1,0,-1
 56 175 l 1,1,-1
 211 205 l 1,2,-1
 211 1250 l 1,3,-1
 56 1280 l 1,4,-1
 56 1456 l 1,5,-1
 746 1456 l 2,6,7
 914 1456 914 1456 1034 1404 c 128,-1,8
 1154 1352 1154 1352 1218.5 1255 c 128,-1,9
 1283 1158 1283 1158 1283 1022 c 0,10,11
 1283 894 1283 894 1219 793 c 128,-1,12
 1155 692 1155 692 1041 634 c 128,-1,13
 927 576 927 576 778 575 c 2,14,-1
 503 575 l 1,15,-1
 503 205 l 1,16,-1
 659 175 l 1,17,-1
 659 0 l 1,18,-1
 56 0 l 1,0,-1
993 0 m 1,19,-1
 748 629 l 1,20,-1
 1011 694 l 1,21,-1
 1223 204 l 1,22,-1
 1347 175 l 1,23,-1
 1347 0 l 1,24,-1
 993 0 l 1,19,-1
503 800 m 1,25,-1
 741 800 l 2,26,27
 867 800 867 800 929.5 853.5 c 128,-1,28
 992 907 992 907 992 1009 c 0,29,30
 992 1110 992 1110 930 1170.5 c 128,-1,31
 868 1231 868 1231 746 1231 c 2,32,-1
 503 1231 l 1,33,-1
 503 800 l 1,25,-1
EndSplineSet
Substitution2: "'ss05' Style Set 5 in Latin lookup 27 subtable" R.ss05
Substitution2: "'c2sc' Capitals to Small Capitals in Latin lookup 19 subtable" r.sc
AlternateSubs2: "'aalt' Access All Alternates in Latin lookup 1 subtable" R.ss05 r.sc
EndChar

StartChar: S
Encoding: 83 83 129
Width: 1247
GlyphClass: 2
Flags: W
AnchorPoint: "Anchor-2" 623 0 basechar 0
AnchorPoint: "Anchor-0" 623 1364 basechar 0
LayerCount: 2
Fore
SplineSet
650 -21 m 0,0,1
 489 -21 489 -21 357 15 c 128,-1,2
 225 51 225 51 97 140 c 1,3,-1
 97 492 l 1,4,-1
 323 492 l 1,5,-1
 354 285 l 1,6,7
 399 247 399 247 478 223.5 c 128,-1,8
 557 200 557 200 650 200 c 0,9,10
 729 200 729 200 783.5 222 c 128,-1,11
 838 244 838 244 866.5 284.5 c 128,-1,12
 895 325 895 325 895 380 c 0,13,14
 895 432 895 432 869.5 472.5 c 128,-1,15
 844 513 844 513 785.5 546.5 c 128,-1,16
 727 580 727 580 627 611 c 0,17,18
 454 662 454 662 340.5 722.5 c 128,-1,19
 227 783 227 783 170.5 867.5 c 128,-1,20
 114 952 114 952 114 1071 c 0,21,22
 114 1189 114 1189 179.5 1279.5 c 128,-1,23
 245 1370 245 1370 361 1422 c 128,-1,24
 477 1474 477 1474 629 1476 c 0,25,26
 797 1478 797 1478 926.5 1436 c 128,-1,27
 1056 1394 1056 1394 1150 1319 c 1,28,-1
 1150 991 l 1,29,-1
 931 991 l 1,30,-1
 893 1191 l 1,31,32
 855 1215 855 1215 790.5 1233 c 128,-1,33
 726 1251 726 1251 644 1251 c 0,34,35
 574 1251 574 1251 520.5 1230 c 128,-1,36
 467 1209 467 1209 436 1169 c 128,-1,37
 405 1129 405 1129 405 1072 c 0,38,39
 405 1023 405 1023 432 986.5 c 128,-1,40
 459 950 459 950 522.5 917.5 c 128,-1,41
 586 885 586 885 698 848 c 1,42,43
 939 781 939 781 1063.5 671 c 128,-1,44
 1188 561 1188 561 1188 382 c 0,45,46
 1188 258 1188 258 1121 167.5 c 128,-1,47
 1054 77 1054 77 933 28 c 128,-1,48
 812 -21 812 -21 650 -21 c 0,0,1
EndSplineSet
Substitution2: "'ss03' Style Set 3 in Latin lookup 25 subtable" S.ss03
Substitution2: "'c2sc' Capitals to Small Capitals in Latin lookup 19 subtable" s.sc
AlternateSubs2: "'aalt' Access All Alternates in Latin lookup 1 subtable" S.ss03 s.sc
EndChar

StartChar: uni1E9E
Encoding: 7838 7838 135
Width: 1475
GlyphClass: 2
Flags: W
AnchorPoint: "Anchor-2" 748 0 basechar 0
AnchorPoint: "Anchor-0" 745 1364 basechar 0
LayerCount: 2
Fore
SplineSet
56 0 m 1,0,-1
 56 175 l 1,1,-1
 211 205 l 1,2,-1
 211 1250 l 1,3,-1
 56 1280 l 1,4,-1
 56 1456 l 1,5,-1
 1375 1456 l 1,6,-1
 1375 1232 l 1,7,-1
 503 1232 l 1,8,-1
 503 205 l 1,9,-1
 658 175 l 1,10,-1
 658 0 l 1,11,-1
 56 0 l 1,0,-1
952 -21 m 0,12,13
 902 -21 902 -21 854.5 -14.5 c 128,-1,14
 807 -8 807 -8 770 2 c 1,15,-1
 837 226 l 1,16,17
 862 215 862 215 890.5 209 c 128,-1,18
 919 203 919 203 950 203 c 0,19,20
 1048 203 1048 203 1106 265.5 c 128,-1,21
 1164 328 1164 328 1164 447 c 0,22,23
 1164 571 1164 571 1101 638 c 128,-1,24
 1038 705 1038 705 922 705 c 2,25,-1
 770 705 l 1,26,-1
 770 887 l 1,27,-1
 1143 1332 l 1,28,-1
 1375 1232 l 1,29,-1
 1052 857 l 1,30,-1
 979 896 l 1,31,32
 1125 898 1125 898 1231.5 838.5 c 128,-1,33
 1338 779 1338 779 1396.5 673 c 128,-1,34
 1455 567 1455 567 1455 430 c 0,35,36
 1455 289 1455 289 1392.5 188 c 128,-1,37
 1330 87 1330 87 1217 33 c 128,-1,38
 1104 -21 1104 -21 952 -21 c 0,12,13
EndSplineSet
Substitution2: "'c2sc' Capitals to Small Capitals in Latin lookup 19 subtable" germandbls.sc
Substitution2: "'aalt' Access All Alternates in Latin lookup 0 subtable" germandbls.sc
EndChar

StartChar: T
Encoding: 84 84 136
Width: 1389
GlyphClass: 2
Flags: W
AnchorPoint: "Anchor-4" 695 730 basechar 0
AnchorPoint: "Anchor-2" 695 0 basechar 0
AnchorPoint: "Anchor-0" 695 1364 basechar 0
LayerCount: 2
Fore
SplineSet
391 0 m 1,0,-1
 391 175 l 1,1,-1
 547 205 l 1,2,-1
 547 1231 l 1,3,-1
 282 1231 l 1,4,-1
 266 1057 l 1,5,-1
 45 1057 l 1,6,-1
 45 1456 l 1,7,-1
 1344 1456 l 1,8,-1
 1344 1057 l 1,9,-1
 1122 1057 l 1,10,-1
 1106 1231 l 1,11,-1
 839 1231 l 1,12,-1
 839 205 l 1,13,-1
 996 175 l 1,14,-1
 996 0 l 1,15,-1
 391 0 l 1,0,-1
EndSplineSet
Substitution2: "'c2sc' Capitals to Small Capitals in Latin lookup 19 subtable" t.sc
Substitution2: "'aalt' Access All Alternates in Latin lookup 0 subtable" t.sc
EndChar

StartChar: U
Encoding: 85 85 141
Width: 1555
GlyphClass: 2
Flags: W
AnchorPoint: "Anchor-3" 945 0 basechar 0
AnchorPoint: "Anchor-2" 778 0 basechar 0
AnchorPoint: "Anchor-1" 1535 1425 basechar 0
AnchorPoint: "Anchor-0" 778 1364 basechar 0
LayerCount: 2
Fore
SplineSet
776 -21 m 0,0,1
 603 -21 603 -21 471.5 39 c 128,-1,2
 340 99 340 99 267 213 c 128,-1,3
 194 327 194 327 194 490 c 2,4,-1
 194 1250 l 1,5,-1
 39 1280 l 1,6,-1
 39 1456 l 1,7,-1
 642 1456 l 1,8,-1
 642 1280 l 1,9,-1
 486 1250 l 1,10,-1
 486 490 l 2,11,12
 486 394 486 394 521 330 c 128,-1,13
 556 266 556 266 621 234.5 c 128,-1,14
 686 203 686 203 776 203 c 0,15,16
 868 203 868 203 933.5 234.5 c 128,-1,17
 999 266 999 266 1034 330 c 128,-1,18
 1069 394 1069 394 1069 490 c 2,19,-1
 1069 1250 l 1,20,-1
 914 1280 l 1,21,-1
 914 1456 l 1,22,-1
 1517 1456 l 1,23,-1
 1517 1280 l 1,24,-1
 1361 1250 l 1,25,-1
 1361 490 l 2,26,27
 1361 327 1361 327 1287.5 212.5 c 128,-1,28
 1214 98 1214 98 1082.5 38.5 c 128,-1,29
 951 -21 951 -21 776 -21 c 0,0,1
EndSplineSet
Substitution2: "'c2sc' Capitals to Small Capitals in Latin lookup 19 subtable" u.sc
Substitution2: "'aalt' Access All Alternates in Latin lookup 0 subtable" u.sc
EndChar

StartChar: Uhorn
Encoding: 431 431 149
Width: 1774
GlyphClass: 2
Flags: W
AnchorPoint: "Anchor-2" 778 0 basechar 0
AnchorPoint: "Anchor-0" 777 1364 basechar 0
LayerCount: 2
Fore
SplineSet
777 -21 m 256,0,1
 603 -21 603 -21 471.5 38.5 c 128,-1,2
 340 98 340 98 267 212.5 c 128,-1,3
 194 327 194 327 194 490 c 2,4,-1
 194 1250 l 1,5,-1
 39 1280 l 1,6,-1
 39 1456 l 1,7,-1
 642 1456 l 1,8,-1
 642 1280 l 1,9,-1
 487 1250 l 1,10,-1
 487 490 l 2,11,12
 487 394 487 394 522 330 c 128,-1,13
 557 266 557 266 622 234.5 c 128,-1,14
 687 203 687 203 777 203 c 0,15,16
 868 203 868 203 933.5 234.5 c 128,-1,17
 999 266 999 266 1034 330 c 128,-1,18
 1069 394 1069 394 1069 490 c 2,19,-1
 1069 1250 l 1,20,-1
 914 1280 l 1,21,-1
 914 1456 l 1,22,-1
 1363 1456 l 1,23,-1
 1363 490 l 2,24,25
 1363 327 1363 327 1289 212.5 c 128,-1,26
 1215 98 1215 98 1083 38.5 c 128,-1,27
 951 -21 951 -21 777 -21 c 256,0,1
1331 1021 m 1,28,-1
 1336 1206 l 1,29,30
 1449 1203 1449 1203 1485 1271 c 128,-1,31
 1521 1339 1521 1339 1521 1492 c 1,32,-1
 1755 1492 l 1,33,-1
 1755 1487 l 2,34,35
 1758 1258 1758 1258 1662 1141.5 c 128,-1,36
 1566 1025 1566 1025 1331 1021 c 1,28,-1
EndSplineSet
Substitution2: "'c2sc' Capitals to Small Capitals in Latin lookup 19 subtable" uhorn.sc
Substitution2: "'aalt' Access All Alternates in Latin lookup 0 subtable" uhorn.sc
EndChar

StartChar: V
Encoding: 86 86 160
Width: 1535
GlyphClass: 2
Flags: W
AnchorPoint: "Anchor-2" 783 0 basechar 0
AnchorPoint: "Anchor-0" 783 1364 basechar 0
LayerCount: 2
Fore
SplineSet
632 0 m 1,0,-1
 164 1264 l 1,1,-1
 34 1280 l 1,2,-1
 34 1456 l 1,3,-1
 613 1456 l 1,4,-1
 613 1280 l 1,5,-1
 482 1260 l 1,6,-1
 768 401 l 1,7,-1
 790 321 l 1,8,-1
 796 321 l 1,9,-1
 817 399 l 1,10,-1
 1103 1260 l 1,11,-1
 950 1280 l 1,12,-1
 950 1456 l 1,13,-1
 1502 1456 l 1,14,-1
 1502 1280 l 1,15,-1
 1370 1264 l 1,16,-1
 931 0 l 1,17,-1
 632 0 l 1,0,-1
EndSplineSet
Substitution2: "'c2sc' Capitals to Small Capitals in Latin lookup 19 subtable" v.sc
Substitution2: "'aalt' Access All Alternates in Latin lookup 0 subtable" v.sc
EndChar

StartChar: W
Encoding: 87 87 161
Width: 2202
GlyphClass: 2
Flags: W
AnchorPoint: "Anchor-2" 1101 0 basechar 0
AnchorPoint: "Anchor-0" 1101 1364 basechar 0
LayerCount: 2
Fore
SplineSet
521 0 m 1,0,-1
 183 1265 l 1,1,-1
 34 1280 l 1,2,-1
 34 1456 l 1,3,-1
 621 1456 l 1,4,-1
 621 1280 l 1,5,-1
 463 1257 l 1,6,-1
 634 549 l 1,7,-1
 665 419 l 1,8,-1
 671 419 l 1,9,-1
 708 549 l 1,10,-1
 996 1456 l 1,11,-1
 1211 1456 l 1,12,-1
 1510 524 l 1,13,-1
 1545 409 l 1,14,-1
 1551 409 l 1,15,-1
 1581 524 l 1,16,-1
 1758 1257 l 1,17,-1
 1592 1280 l 1,18,-1
 1592 1456 l 1,19,-1
 2167 1456 l 1,20,-1
 2167 1280 l 1,21,-1
 2028 1265 l 1,22,-1
 1686 0 l 1,23,-1
 1422 0 l 1,24,-1
 1146 851 l 1,25,-1
 1111 971 l 1,26,-1
 1105 971 l 1,27,-1
 1066 847 l 1,28,-1
 788 0 l 1,29,-1
 521 0 l 1,0,-1
EndSplineSet
Substitution2: "'c2sc' Capitals to Small Capitals in Latin lookup 19 subtable" w.sc
Substitution2: "'aalt' Access All Alternates in Latin lookup 0 subtable" w.sc
EndChar

StartChar: X
Encoding: 88 88 166
Width: 1514
GlyphClass: 2
Flags: W
AnchorPoint: "Anchor-2" 758 0 basechar 0
AnchorPoint: "Anchor-0" 758 1364 basechar 0
LayerCount: 2
Fore
SplineSet
36 0 m 1,0,-1
 36 175 l 1,1,-1
 163 199 l 1,2,-1
 575 721 l 1,3,-1
 187 1255 l 1,4,-1
 69 1280 l 1,5,-1
 69 1456 l 1,6,-1
 638 1456 l 1,7,-1
 638 1280 l 1,8,-1
 499 1267 l 1,9,-1
 749 917 l 1,10,-1
 998 1267 l 1,11,-1
 863 1280 l 1,12,-1
 863 1456 l 1,13,-1
 1424 1456 l 1,14,-1
 1424 1280 l 1,15,-1
 1295 1255 l 1,16,-1
 922 747 l 1,17,-1
 1340 200 l 1,18,-1
 1479 175 l 1,19,-1
 1479 0 l 1,20,-1
 896 0 l 1,21,-1
 896 175 l 1,22,-1
 1021 187 l 1,23,-1
 751 557 l 1,24,-1
 475 187 l 1,25,-1
 597 175 l 1,26,-1
 597 0 l 1,27,-1
 36 0 l 1,0,-1
EndSplineSet
Substitution2: "'c2sc' Capitals to Small Capitals in Latin lookup 19 subtable" x.sc
Substitution2: "'aalt' Access All Alternates in Latin lookup 0 subtable" x.sc
EndChar

StartChar: Y
Encoding: 89 89 167
Width: 1508
GlyphClass: 2
Flags: W
AnchorPoint: "Anchor-2" 754 0 basechar 0
AnchorPoint: "Anchor-0" 754 1364 basechar 0
LayerCount: 2
Fore
SplineSet
452 0 m 1,0,-1
 452 175 l 1,1,-1
 608 205 l 1,2,-1
 608 499 l 1,3,-1
 176 1260 l 1,4,-1
 36 1280 l 1,5,-1
 36 1456 l 1,6,-1
 617 1456 l 1,7,-1
 617 1280 l 1,8,-1
 498 1263 l 1,9,-1
 740 798 l 1,10,-1
 762 751 l 1,11,-1
 768 752 l 1,12,-1
 790 796 l 1,13,-1
 1059 1263 l 1,14,-1
 899 1280 l 1,15,-1
 899 1456 l 1,16,-1
 1469 1456 l 1,17,-1
 1469 1280 l 1,18,-1
 1325 1260 l 1,19,-1
 899 522 l 1,20,-1
 899 205 l 1,21,-1
 1055 175 l 1,22,-1
 1055 0 l 1,23,-1
 452 0 l 1,0,-1
EndSplineSet
Substitution2: "'c2sc' Capitals to Small Capitals in Latin lookup 19 subtable" y.sc
Substitution2: "'aalt' Access All Alternates in Latin lookup 0 subtable" y.sc
EndChar

StartChar: Z
Encoding: 90 90 175
Width: 1226
GlyphClass: 2
Flags: W
AnchorPoint: "Anchor-2" 613 0 basechar 0
AnchorPoint: "Anchor-0" 608 1364 basechar 0
LayerCount: 2
Fore
SplineSet
74 0 m 1,0,-1
 74 192 l 1,1,-1
 784 1231 l 1,2,-1
 341 1231 l 1,3,-1
 318 1045 l 1,4,-1
 95 1045 l 1,5,-1
 107 1456 l 1,6,-1
 1143 1456 l 1,7,-1
 1143 1270 l 1,8,-1
 430 224 l 1,9,-1
 937 224 l 1,10,-1
 961 410 l 1,11,-1
 1183 410 l 1,12,-1
 1165 0 l 1,13,-1
 74 0 l 1,0,-1
EndSplineSet
Substitution2: "'c2sc' Capitals to Small Capitals in Latin lookup 19 subtable" z.sc
Substitution2: "'aalt' Access All Alternates in Latin lookup 0 subtable" z.sc
EndChar

StartChar: C.ss03
Encoding: 65537 -1 179
Width: 1280
GlyphClass: 1
Flags: W
LayerCount: 2
Fore
SplineSet
680 -21 m 0,0,1
 505 -21 505 -21 371.5 56 c 128,-1,2
 238 133 238 133 163.5 269.5 c 128,-1,3
 89 406 89 406 89 583 c 2,4,-1
 89 872 l 2,5,6
 89 1049 89 1049 164.5 1185.5 c 128,-1,7
 240 1322 240 1322 374 1399.5 c 128,-1,8
 508 1477 508 1477 685 1477 c 0,9,10
 856 1477 856 1477 993 1415.5 c 128,-1,11
 1130 1354 1130 1354 1220 1253 c 1,12,-1
 1220 912 l 1,13,-1
 1000 912 l 1,14,-1
 933 1178 l 1,15,16
 895 1212 895 1212 838 1232 c 128,-1,17
 781 1252 781 1252 705 1252 c 0,18,19
 605 1252 605 1252 532 1203.5 c 128,-1,20
 459 1155 459 1155 419.5 1069.5 c 128,-1,21
 380 984 380 984 380 874 c 2,22,-1
 380 583 l 2,23,24
 380 472 380 472 417.5 385.5 c 128,-1,25
 455 299 455 299 525.5 251 c 128,-1,26
 596 203 596 203 695 203 c 0,27,28
 769 203 769 203 831.5 221.5 c 128,-1,29
 894 240 894 240 928 270 c 1,30,-1
 994 523 l 1,31,-1
 1210 523 l 1,32,-1
 1210 202 l 1,33,34
 1122 100 1122 100 985.5 39.5 c 128,-1,35
 849 -21 849 -21 680 -21 c 0,0,1
EndSplineSet
EndChar

StartChar: G.ss03
Encoding: 65538 -1 180
Width: 1335
GlyphClass: 1
Flags: W
LayerCount: 2
Fore
SplineSet
694 -21 m 0,0,1
 516 -21 516 -21 379.5 54.5 c 128,-1,2
 243 130 243 130 166 265 c 128,-1,3
 89 400 89 400 89 576 c 2,4,-1
 89 880 l 2,5,6
 89 1056 89 1056 164.5 1190.5 c 128,-1,7
 240 1325 240 1325 374 1401 c 128,-1,8
 508 1477 508 1477 683 1477 c 0,9,10
 852 1477 852 1477 990 1422.5 c 128,-1,11
 1128 1368 1128 1368 1218 1268 c 1,12,-1
 1241 962 l 1,13,-1
 990 962 l 1,14,-1
 909 1193 l 1,15,16
 877 1220 877 1220 824.5 1236 c 128,-1,17
 772 1252 772 1252 703 1252 c 0,18,19
 607 1252 607 1252 534 1205 c 128,-1,20
 461 1158 461 1158 420.5 1074.5 c 128,-1,21
 380 991 380 991 380 882 c 2,22,-1
 380 576 l 2,23,24
 380 466 380 466 419 382 c 128,-1,25
 458 298 458 298 528.5 250.5 c 128,-1,26
 599 203 599 203 694 203 c 0,27,28
 796 203 796 203 857.5 220.5 c 128,-1,29
 919 238 919 238 952 263 c 1,30,-1
 952 493 l 1,31,-1
 744 510 l 1,32,-1
 744 715 l 1,33,-1
 1245 715 l 1,34,-1
 1245 173 l 1,35,36
 1201 123 1201 123 1125 78.5 c 128,-1,37
 1049 34 1049 34 941.5 6.5 c 128,-1,38
 834 -21 834 -21 694 -21 c 0,0,1
EndSplineSet
EndChar

StartChar: S.ss03
Encoding: 65539 -1 181
Width: 1242
GlyphClass: 1
Flags: W
LayerCount: 2
Fore
SplineSet
645 -21 m 0,0,1
 487 -21 487 -21 352 34 c 128,-1,2
 217 89 217 89 136.5 193.5 c 128,-1,3
 56 298 56 298 59 445 c 1,4,-1
 61 451 l 1,5,-1
 344 451 l 1,6,7
 344 365 344 365 380 309.5 c 128,-1,8
 416 254 416 254 483.5 227 c 128,-1,9
 551 200 551 200 645 200 c 0,10,11
 725 200 725 200 779.5 222 c 128,-1,12
 834 244 834 244 862 284.5 c 128,-1,13
 890 325 890 325 890 380 c 0,14,15
 890 436 890 436 864.5 477 c 128,-1,16
 839 518 839 518 780.5 550 c 128,-1,17
 722 582 722 582 622 611 c 0,18,19
 450 662 450 662 333 722.5 c 128,-1,20
 216 783 216 783 156.5 867.5 c 128,-1,21
 97 952 97 952 97 1071 c 0,22,23
 97 1191 97 1191 166.5 1282.5 c 128,-1,24
 236 1374 236 1374 358.5 1425.5 c 128,-1,25
 481 1477 481 1477 638 1477 c 0,26,27
 799 1477 799 1477 921 1418.5 c 128,-1,28
 1043 1360 1043 1360 1111 1260 c 128,-1,29
 1179 1160 1179 1160 1175 1035 c 1,30,-1
 1173 1029 l 1,31,-1
 891 1029 l 1,32,33
 891 1097 891 1097 860.5 1147.5 c 128,-1,34
 830 1198 830 1198 773 1226.5 c 128,-1,35
 716 1255 716 1255 634 1255 c 0,36,37
 556 1255 556 1255 501 1231.5 c 128,-1,38
 446 1208 446 1208 417 1166 c 128,-1,39
 388 1124 388 1124 388 1070 c 0,40,41
 388 1021 388 1021 417.5 984.5 c 128,-1,42
 447 948 447 948 514.5 915.5 c 128,-1,43
 582 883 582 883 693 848 c 0,44,45
 934 781 934 781 1058.5 671 c 128,-1,46
 1183 561 1183 561 1183 382 c 0,47,48
 1183 258 1183 258 1115.5 167.5 c 128,-1,49
 1048 77 1048 77 927.5 28 c 128,-1,50
 807 -21 807 -21 645 -21 c 0,0,1
EndSplineSet
EndChar

StartChar: C.ss04
Encoding: 65540 -1 182
Width: 1280
GlyphClass: 1
Flags: W
LayerCount: 2
Fore
SplineSet
687 -21 m 0,0,1
 508 -21 508 -21 373.5 56 c 128,-1,2
 239 133 239 133 164 269.5 c 128,-1,3
 89 406 89 406 89 583 c 2,4,-1
 89 872 l 2,5,6
 89 1049 89 1049 162.5 1185.5 c 128,-1,7
 236 1322 236 1322 367 1399.5 c 128,-1,8
 498 1477 498 1477 673 1477 c 0,9,10
 932 1477 932 1477 1074 1341.5 c 128,-1,11
 1216 1206 1216 1206 1235 961 c 1,12,-1
 1233 955 l 1,13,-1
 949 955 l 1,14,15
 937 1103 937 1103 873.5 1177.5 c 128,-1,16
 810 1252 810 1252 673 1252 c 0,17,18
 582 1252 582 1252 516.5 1203.5 c 128,-1,19
 451 1155 451 1155 415.5 1069.5 c 128,-1,20
 380 984 380 984 380 874 c 2,21,-1
 380 583 l 2,22,23
 380 472 380 472 417 386 c 128,-1,24
 454 300 454 300 523 251.5 c 128,-1,25
 592 203 592 203 687 203 c 0,26,27
 816 203 816 203 876 274.5 c 128,-1,28
 936 346 936 346 948 495 c 1,29,-1
 1231 495 l 1,30,-1
 1233 489 l 1,31,32
 1225 330 1225 330 1159 215.5 c 128,-1,33
 1093 101 1093 101 974.5 40 c 128,-1,34
 856 -21 856 -21 687 -21 c 0,0,1
EndSplineSet
EndChar

StartChar: G.ss04
Encoding: 65541 -1 183
Width: 1335
GlyphClass: 1
Flags: W
LayerCount: 2
Fore
SplineSet
694 -21 m 0,0,1
 516 -21 516 -21 379.5 54.5 c 128,-1,2
 243 130 243 130 166 265 c 128,-1,3
 89 400 89 400 89 576 c 2,4,-1
 89 880 l 2,5,6
 89 1056 89 1056 163.5 1190.5 c 128,-1,7
 238 1325 238 1325 369.5 1401 c 128,-1,8
 501 1477 501 1477 671 1477 c 0,9,10
 940 1477 940 1477 1078 1350 c 128,-1,11
 1216 1223 1216 1223 1237 1007 c 1,12,-1
 1235 1001 l 1,13,-1
 960 1001 l 1,14,15
 940 1121 940 1121 875 1186.5 c 128,-1,16
 810 1252 810 1252 678 1252 c 0,17,18
 589 1252 589 1252 522 1205 c 128,-1,19
 455 1158 455 1158 417.5 1074.5 c 128,-1,20
 380 991 380 991 380 882 c 2,21,-1
 380 576 l 2,22,23
 380 466 380 466 419 382 c 128,-1,24
 458 298 458 298 528.5 250.5 c 128,-1,25
 599 203 599 203 694 203 c 0,26,27
 796 203 796 203 857.5 220.5 c 128,-1,28
 919 238 919 238 952 263 c 1,29,-1
 952 519 l 1,30,-1
 766 536 l 1,31,-1
 766 721 l 1,32,-1
 1245 721 l 1,33,-1
 1245 173 l 1,34,35
 1201 123 1201 123 1125 78.5 c 128,-1,36
 1049 34 1049 34 941.5 6.5 c 128,-1,37
 834 -21 834 -21 694 -21 c 0,0,1
EndSplineSet
EndChar

StartChar: O.ss04
Encoding: 65542 -1 184
Width: 1384
GlyphClass: 1
Flags: W
LayerCount: 2
Fore
SplineSet
695 -21 m 0,0,1
 515 -21 515 -21 378.5 59 c 128,-1,2
 242 139 242 139 165.5 278.5 c 128,-1,3
 89 418 89 418 89 597 c 2,4,-1
 89 859 l 2,5,6
 89 1037 89 1037 165 1176.5 c 128,-1,7
 241 1316 241 1316 377.5 1396.5 c 128,-1,8
 514 1477 514 1477 693 1477 c 0,9,10
 874 1477 874 1477 1011.5 1396.5 c 128,-1,11
 1149 1316 1149 1316 1226.5 1176.5 c 128,-1,12
 1304 1037 1304 1037 1304 859 c 2,13,-1
 1304 597 l 2,14,15
 1304 418 1304 418 1227 278.5 c 128,-1,16
 1150 139 1150 139 1013 59 c 128,-1,17
 876 -21 876 -21 695 -21 c 0,0,1
695 206 m 0,18,19
 795 206 795 206 866.5 255.5 c 128,-1,20
 938 305 938 305 975.5 393.5 c 128,-1,21
 1013 482 1013 482 1013 597 c 2,22,-1
 1013 861 l 2,23,24
 1013 974 1013 974 975 1061.5 c 128,-1,25
 937 1149 937 1149 865 1199 c 128,-1,26
 793 1249 793 1249 693 1249 c 0,27,28
 595 1249 595 1249 524.5 1199 c 128,-1,29
 454 1149 454 1149 417 1061.5 c 128,-1,30
 380 974 380 974 380 861 c 2,31,-1
 380 597 l 2,32,33
 380 482 380 482 417.5 394 c 128,-1,34
 455 306 455 306 525.5 256 c 128,-1,35
 596 206 596 206 695 206 c 0,18,19
EndSplineSet
EndChar

StartChar: D.ss05
Encoding: 65543 -1 185
Width: 1411
GlyphClass: 1
Flags: W
LayerCount: 2
Fore
SplineSet
56 0 m 1,0,-1
 56 175 l 1,1,-1
 211 205 l 1,2,-1
 211 1250 l 1,3,-1
 56 1280 l 1,4,-1
 56 1456 l 1,5,-1
 211 1456 l 1,6,-1
 711 1456 l 2,7,8
 889 1456 889 1456 1027.5 1378 c 128,-1,9
 1166 1300 1166 1300 1245 1163 c 128,-1,10
 1324 1026 1324 1026 1324 848 c 2,11,-1
 1324 607 l 2,12,13
 1324 429 1324 429 1245 292 c 128,-1,14
 1166 155 1166 155 1027.5 77.5 c 128,-1,15
 889 0 889 0 711 0 c 2,16,-1
 56 0 l 1,0,-1
503 224 m 1,17,-1
 696 224 l 2,18,19
 801 224 801 224 876 272.5 c 128,-1,20
 951 321 951 321 991 407 c 128,-1,21
 1031 493 1031 493 1031 607 c 2,22,-1
 1031 850 l 2,23,24
 1031 963 1031 963 991 1049 c 128,-1,25
 951 1135 951 1135 876 1183 c 128,-1,26
 801 1231 801 1231 696 1231 c 2,27,-1
 503 1231 l 1,28,-1
 503 224 l 1,17,-1
EndSplineSet
EndChar

StartChar: Dcroat.ss05
Encoding: 65544 -1 186
Width: 1441
GlyphClass: 1
Flags: W
LayerCount: 2
Fore
SplineSet
86 0 m 1,0,-1
 86 175 l 1,1,-1
 241 205 l 1,2,-1
 241 665 l 1,3,-1
 46 665 l 1,4,-1
 46 820 l 1,5,-1
 241 820 l 1,6,-1
 241 1250 l 1,7,-1
 86 1280 l 1,8,-1
 86 1456 l 1,9,-1
 741 1456 l 2,10,11
 920 1456 920 1456 1058 1378 c 128,-1,12
 1196 1300 1196 1300 1275 1163.5 c 128,-1,13
 1354 1027 1354 1027 1354 848 c 2,14,-1
 1354 607 l 2,15,16
 1354 428 1354 428 1275 291.5 c 128,-1,17
 1196 155 1196 155 1058 77.5 c 128,-1,18
 920 0 920 0 741 0 c 2,19,-1
 86 0 l 1,0,-1
533 224 m 1,20,-1
 726 224 l 2,21,22
 831 224 831 224 906 272 c 128,-1,23
 981 320 981 320 1021 406.5 c 128,-1,24
 1061 493 1061 493 1061 607 c 2,25,-1
 1061 850 l 2,26,27
 1061 963 1061 963 1021 1049 c 128,-1,28
 981 1135 981 1135 906 1183 c 128,-1,29
 831 1231 831 1231 726 1231 c 2,30,-1
 533 1231 l 1,31,-1
 533 820 l 1,32,-1
 747 820 l 1,33,-1
 747 665 l 1,34,-1
 533 665 l 1,35,-1
 533 224 l 1,20,-1
EndSplineSet
EndChar

StartChar: K.ss05
Encoding: 65545 -1 187
Width: 1565
GlyphClass: 1
Flags: W
LayerCount: 2
Fore
SplineSet
63 0 m 1,0,-1
 63 175 l 1,1,-1
 220 208 l 1,2,-1
 220 1246 l 1,3,-1
 63 1280 l 1,4,-1
 63 1456 l 1,5,-1
 664 1456 l 1,6,-1
 664 1280 l 1,7,-1
 512 1246 l 1,8,-1
 512 856 l 1,9,-1
 658 856 l 1,10,-1
 996 1262 l 1,11,-1
 999 1266 l 1,12,-1
 873 1280 l 1,13,-1
 873 1456 l 1,14,-1
 1439 1456 l 1,15,-1
 1439 1280 l 1,16,-1
 1298 1250 l 1,17,-1
 904 770 l 1,18,-1
 1376 203 l 1,19,-1
 1520 175 l 1,20,-1
 1520 0 l 1,21,-1
 901 0 l 1,22,-1
 901 175 l 1,23,-1
 1027 189 l 1,24,-1
 1026 189 l 1,25,-1
 674 617 l 1,26,-1
 512 617 l 1,27,-1
 512 208 l 1,28,-1
 664 175 l 1,29,-1
 664 0 l 1,30,-1
 63 0 l 1,0,-1
EndSplineSet
EndChar

StartChar: OE.ss05
Encoding: 65546 -1 188
Width: 1996
GlyphClass: 1
Flags: W
LayerCount: 2
Fore
SplineSet
710 -21 m 0,0,1
 530 -21 530 -21 393.5 54.5 c 128,-1,2
 257 130 257 130 180 265 c 128,-1,3
 103 400 103 400 103 576 c 2,4,-1
 103 880 l 2,5,6
 103 1057 103 1057 179.5 1191.5 c 128,-1,7
 256 1326 256 1326 392 1401.5 c 128,-1,8
 528 1477 528 1477 708 1477 c 0,9,10
 777 1477 777 1477 848 1471 c 128,-1,11
 919 1465 919 1465 998 1456 c 1,12,-1
 1934 1456 l 1,13,-1
 1934 1057 l 1,14,-1
 1710 1057 l 1,15,-1
 1697 1231 l 1,16,-1
 1231 1231 l 1,17,-1
 1231 865 l 1,18,-1
 1724 865 l 1,19,-1
 1724 640 l 1,20,-1
 1231 640 l 1,21,-1
 1231 224 l 1,22,-1
 1701 224 l 1,23,-1
 1714 398 l 1,24,-1
 1936 398 l 1,25,-1
 1936 0 l 1,26,-1
 998 0 l 1,27,28
 906 -10 906 -10 841.5 -15.5 c 128,-1,29
 777 -21 777 -21 710 -21 c 0,0,1
710 204 m 0,30,31
 768 204 768 204 825.5 208.5 c 128,-1,32
 883 213 883 213 939 222 c 1,33,-1
 939 1233 l 1,34,35
 880 1242 880 1242 822.5 1247 c 128,-1,36
 765 1252 765 1252 708 1252 c 0,37,38
 609 1252 609 1252 539 1210 c 128,-1,39
 469 1168 469 1168 431.5 1085.5 c 128,-1,40
 394 1003 394 1003 394 882 c 2,41,-1
 394 576 l 2,42,43
 394 455 394 455 432 372 c 128,-1,44
 470 289 470 289 540.5 246.5 c 128,-1,45
 611 204 611 204 710 204 c 0,30,31
EndSplineSet
EndChar

StartChar: R.ss05
Encoding: 65547 -1 189
Width: 1410
GlyphClass: 1
Flags: W
LayerCount: 2
Fore
SplineSet
63 0 m 1,0,-1
 63 175 l 1,1,-1
 220 209 l 1,2,-1
 220 1247 l 1,3,-1
 63 1280 l 1,4,-1
 63 1456 l 1,5,-1
 723 1456 l 2,6,7
 970 1456 970 1456 1108.5 1343.5 c 128,-1,8
 1247 1231 1247 1231 1247 1031 c 0,9,10
 1247 925 1247 925 1191 846.5 c 128,-1,11
 1135 768 1135 768 1025 716 c 1,12,13
 1146 677 1146 677 1199.5 588 c 128,-1,14
 1253 499 1253 499 1253 370 c 2,15,-1
 1253 291 l 2,16,17
 1253 241 1253 241 1269.5 215 c 128,-1,18
 1286 189 1286 189 1326 183 c 2,19,-1
 1364 177 l 1,20,-1
 1364 0 l 1,21,-1
 1216 0 l 2,22,23
 1077 0 1077 0 1019 80 c 128,-1,24
 961 160 961 160 961 283 c 2,25,-1
 961 368 l 2,26,27
 961 473 961 473 906.5 534.5 c 128,-1,28
 852 596 852 596 757 598 c 2,29,-1
 512 598 l 1,30,-1
 512 209 l 1,31,-1
 670 175 l 1,32,-1
 670 0 l 1,33,-1
 63 0 l 1,0,-1
512 822 m 1,34,-1
 714 822 l 2,35,36
 837 822 837 822 896.5 872 c 128,-1,37
 956 922 956 922 956 1022 c 0,38,39
 956 1117 956 1117 898 1174.5 c 128,-1,40
 840 1232 840 1232 723 1232 c 2,41,-1
 512 1232 l 1,42,-1
 512 822 l 1,34,-1
EndSplineSet
EndChar

StartChar: a
Encoding: 97 97 190
Width: 1154
GlyphClass: 2
Flags: W
AnchorPoint: "Anchor-3" 1113 0 basechar 0
AnchorPoint: "Anchor-2" 571 0 basechar 0
AnchorPoint: "Anchor-0" 547 1082 basechar 0
LayerCount: 2
Fore
SplineSet
425 -21 m 0,0,1
 264 -21 264 -21 169 65.5 c 128,-1,2
 74 152 74 152 74 301 c 0,3,4
 74 454 74 454 198 549.5 c 128,-1,5
 322 645 322 645 561 645 c 2,6,-1
 704 645 l 1,7,-1
 704 725 l 2,8,9
 704 803 704 803 658.5 851.5 c 128,-1,10
 613 900 613 900 522 900 c 0,11,12
 475 900 475 900 438 888.5 c 128,-1,13
 401 877 401 877 370 856 c 1,14,-1
 347 713 l 1,15,-1
 137 713 l 1,16,-1
 133 994 l 1,17,18
 218 1042 218 1042 317 1072 c 128,-1,19
 416 1102 416 1102 538 1102 c 0,20,21
 750 1102 750 1102 873 1003.5 c 128,-1,22
 996 905 996 905 996 722 c 2,23,-1
 996 276 l 2,24,25
 996 254 996 254 996.5 232.5 c 128,-1,26
 997 211 997 211 1000 191 c 1,27,-1
 1113 175 l 1,28,-1
 1113 0 l 1,29,-1
 751 0 l 1,30,31
 740 28 740 28 729 60 c 128,-1,32
 718 92 718 92 713 124 c 1,33,34
 661 58 661 58 590.5 18.5 c 128,-1,35
 520 -21 520 -21 425 -21 c 0,0,1
503 195 m 0,36,37
 564 195 564 195 619 222.5 c 128,-1,38
 674 250 674 250 704 295 c 1,39,-1
 704 466 l 1,40,-1
 560 466 l 2,41,42
 464 466 464 466 414.5 422 c 128,-1,43
 365 378 365 378 365 316 c 0,44,45
 365 258 365 258 401.5 226.5 c 128,-1,46
 438 195 438 195 503 195 c 0,36,37
EndSplineSet
Substitution2: "'ss03' Style Set 3 in Latin lookup 25 subtable" a.ss03
Substitution2: "'smcp' Lowercase to Small Capitals in Latin lookup 20 subtable" a.sc
Substitution2: "Single Substitution lookup 17 subtable" ordfeminine
AlternateSubs2: "'aalt' Access All Alternates in Latin lookup 1 subtable" a.ss03 a.sc ordfeminine
EndChar

StartChar: ae
Encoding: 230 230 214
Width: 1720
GlyphClass: 2
Flags: W
AnchorPoint: "Anchor-2" 850 0 basechar 0
AnchorPoint: "Anchor-0" 874 1082 basechar 0
LayerCount: 2
Fore
SplineSet
448 -21 m 0,0,1
 270 -21 270 -21 172 66.5 c 128,-1,2
 74 154 74 154 74 304 c 0,3,4
 74 405 74 405 129.5 482.5 c 128,-1,5
 185 560 185 560 293.5 603.5 c 128,-1,6
 402 647 402 647 561 647 c 2,7,-1
 705 647 l 1,8,-1
 705 725 l 2,9,10
 705 803 705 803 659 851.5 c 128,-1,11
 613 900 613 900 523 900 c 0,12,13
 476 900 476 900 438.5 888.5 c 128,-1,14
 401 877 401 877 370 856 c 1,15,-1
 348 713 l 1,16,-1
 137 713 l 1,17,-1
 134 994 l 1,18,19
 219 1042 219 1042 318 1072 c 128,-1,20
 417 1102 417 1102 539 1102 c 0,21,22
 649 1102 649 1102 734 1068 c 128,-1,23
 819 1034 819 1034 872 964 c 1,24,25
 915 1010 915 1010 964.5 1040.5 c 128,-1,26
 1014 1071 1014 1071 1072 1086.5 c 128,-1,27
 1130 1102 1130 1102 1194 1102 c 0,28,29
 1336 1102 1336 1102 1437.5 1042.5 c 128,-1,30
 1539 983 1539 983 1593.5 873 c 128,-1,31
 1648 763 1648 763 1648 612 c 2,32,-1
 1648 454 l 1,33,-1
 998 454 l 1,34,-1
 996 448 l 1,35,36
 1000 337 1000 337 1063 270 c 128,-1,37
 1126 203 1126 203 1252 203 c 0,38,39
 1341 203 1341 203 1402.5 223.5 c 128,-1,40
 1464 244 1464 244 1542 284 c 1,41,-1
 1619 100 l 1,42,43
 1557 52 1557 52 1450 15.5 c 128,-1,44
 1343 -21 1343 -21 1217 -21 c 0,45,46
 966 -21 966 -21 827 144 c 1,47,48
 755 64 755 64 662 21.5 c 128,-1,49
 569 -21 569 -21 448 -21 c 0,0,1
504 195 m 0,50,51
 547 195 547 195 589 210.5 c 128,-1,52
 631 226 631 226 666 253 c 128,-1,53
 701 280 701 280 723 315 c 1,54,55
 713 354 713 354 709 390 c 128,-1,56
 705 426 705 426 705 461 c 2,57,-1
 705 468 l 1,58,-1
 561 468 l 2,59,60
 465 468 465 468 415 424.5 c 128,-1,61
 365 381 365 381 365 319 c 0,62,63
 365 264 365 264 401.5 229.5 c 128,-1,64
 438 195 438 195 504 195 c 0,50,51
999 644 m 1,65,-1
 1362 644 l 1,66,-1
 1362 672 l 2,67,68
 1362 766 1362 766 1317 821.5 c 128,-1,69
 1272 877 1272 877 1186 877 c 0,70,71
 1131 877 1131 877 1090.5 849 c 128,-1,72
 1050 821 1050 821 1026 770 c 128,-1,73
 1002 719 1002 719 997 649 c 1,74,-1
 999 644 l 1,65,-1
EndSplineSet
Substitution2: "'ss03' Style Set 3 in Latin lookup 25 subtable" ae.ss03
Substitution2: "'smcp' Lowercase to Small Capitals in Latin lookup 20 subtable" ae.sc
AlternateSubs2: "'aalt' Access All Alternates in Latin lookup 1 subtable" ae.ss03 ae.sc
EndChar

StartChar: b
Encoding: 98 98 216
Width: 1181
GlyphClass: 2
Flags: W
AnchorPoint: "Anchor-2" 596 0 basechar 0
AnchorPoint: "Anchor-0" 280 1456 basechar 0
LayerCount: 2
Fore
SplineSet
697 -21 m 0,0,1
 596 -21 596 -21 525 18.5 c 128,-1,2
 454 58 454 58 406 133 c 1,3,-1
 385 0 l 1,4,-1
 133 0 l 1,5,-1
 133 1354 l 1,6,-1
 -22 1384 l 1,7,-1
 -22 1560 l 1,8,-1
 424 1560 l 1,9,-1
 424 967 l 1,10,11
 471 1032 471 1032 539.5 1067 c 128,-1,12
 608 1102 608 1102 699 1102 c 0,13,14
 830 1102 830 1102 921.5 1031.5 c 128,-1,15
 1013 961 1013 961 1061 833 c 128,-1,16
 1109 705 1109 705 1109 532 c 2,17,-1
 1109 511 l 2,18,19
 1109 350 1109 350 1061 230.5 c 128,-1,20
 1013 111 1013 111 921 45 c 128,-1,21
 829 -21 829 -21 697 -21 c 0,0,1
608 206 m 0,22,23
 720 206 720 206 769 285.5 c 128,-1,24
 818 365 818 365 818 511 c 2,25,-1
 818 532 l 2,26,27
 818 638 818 638 796.5 714.5 c 128,-1,28
 775 791 775 791 729.5 833 c 128,-1,29
 684 875 684 875 611 875 c 0,30,31
 545 875 545 875 498 844 c 128,-1,32
 451 813 451 813 424 760 c 1,33,-1
 424 308 l 1,34,35
 454 258 454 258 500.5 232 c 128,-1,36
 547 206 547 206 608 206 c 0,22,23
EndSplineSet
Substitution2: "'smcp' Lowercase to Small Capitals in Latin lookup 20 subtable" b.sc
Substitution2: "'aalt' Access All Alternates in Latin lookup 0 subtable" b.sc
EndChar

StartChar: c
Encoding: 99 99 217
Width: 1082
GlyphClass: 2
Flags: W
AnchorPoint: "Anchor-2" 555 0 basechar 0
AnchorPoint: "Anchor-0" 555 1082 basechar 0
LayerCount: 2
Fore
SplineSet
572 -21 m 0,0,1
 416 -21 416 -21 302.5 49 c 128,-1,2
 189 119 189 119 128 242.5 c 128,-1,3
 67 366 67 366 67 525 c 2,4,-1
 67 555 l 2,5,6
 67 715 67 715 129 838 c 128,-1,7
 191 961 191 961 304 1031.5 c 128,-1,8
 417 1102 417 1102 570 1102 c 0,9,10
 716 1102 716 1102 821.5 1056.5 c 128,-1,11
 927 1011 927 1011 993 951 c 1,12,-1
 991 641 l 1,13,-1
 771 641 l 1,14,-1
 732 834 l 1,15,16
 708 858 708 858 671 873 c 128,-1,17
 634 888 634 888 596 888 c 0,18,19
 516 888 516 888 463.5 848 c 128,-1,20
 411 808 411 808 385 734 c 128,-1,21
 359 660 359 660 359 555 c 2,22,-1
 359 525 l 2,23,24
 359 414 359 414 388 342.5 c 128,-1,25
 417 271 417 271 465.5 237 c 128,-1,26
 514 203 514 203 574 203 c 0,27,28
 651 203 651 203 697.5 243.5 c 128,-1,29
 744 284 744 284 761 358 c 1,30,-1
 1011 358 l 1,31,-1
 1014 352 l 1,32,33
 997 237 997 237 946.5 153 c 128,-1,34
 896 69 896 69 804.5 24 c 128,-1,35
 713 -21 713 -21 572 -21 c 0,0,1
EndSplineSet
Substitution2: "'ss03' Style Set 3 in Latin lookup 25 subtable" c.ss03
Substitution2: "'smcp' Lowercase to Small Capitals in Latin lookup 20 subtable" c.sc
AlternateSubs2: "'aalt' Access All Alternates in Latin lookup 1 subtable" c.ss03 c.sc
EndChar

StartChar: d
Encoding: 100 100 223
Width: 1212
GlyphClass: 2
Flags: W
AnchorPoint: "Anchor-4" 869 1211 basechar 0
AnchorPoint: "Anchor-2" 597 -13 basechar 0
AnchorPoint: "Anchor-1" 1258 1560 basechar 0
AnchorPoint: "Anchor-0" 859 1456 basechar 0
LayerCount: 2
Fore
SplineSet
479 -21 m 0,0,1
 350 -21 350 -21 257.5 45.5 c 128,-1,2
 165 112 165 112 116 231.5 c 128,-1,3
 67 351 67 351 67 511 c 2,4,-1
 67 532 l 2,5,6
 67 703 67 703 116.5 831 c 128,-1,7
 166 959 166 959 258 1030.5 c 128,-1,8
 350 1102 350 1102 478 1102 c 0,9,10
 567 1102 567 1102 634 1066.5 c 128,-1,11
 701 1031 701 1031 750 966 c 1,12,-1
 750 1354 l 1,13,-1
 594 1384 l 1,14,-1
 594 1560 l 1,15,-1
 750 1560 l 1,16,-1
 1042 1560 l 1,17,-1
 1042 205 l 1,18,-1
 1182 175 l 1,19,-1
 1182 0 l 1,20,-1
 789 0 l 1,21,-1
 767 132 l 1,22,23
 716 57 716 57 645.5 18 c 128,-1,24
 575 -21 575 -21 479 -21 c 0,0,1
566 206 m 0,25,26
 627 206 627 206 673 232 c 128,-1,27
 719 258 719 258 750 307 c 1,28,-1
 750 766 l 1,29,30
 720 818 720 818 674 846.5 c 128,-1,31
 628 875 628 875 568 875 c 0,32,33
 495 875 495 875 448.5 831.5 c 128,-1,34
 402 788 402 788 380.5 711 c 128,-1,35
 359 634 359 634 359 532 c 2,36,-1
 359 511 l 2,37,38
 359 369 359 369 407 287.5 c 128,-1,39
 455 206 455 206 566 206 c 0,25,26
EndSplineSet
Substitution2: "'smcp' Lowercase to Small Capitals in Latin lookup 20 subtable" d.sc
Substitution2: "'aalt' Access All Alternates in Latin lookup 0 subtable" d.sc
EndChar

StartChar: eth
Encoding: 240 240 226
Width: 1217
GlyphClass: 1
Flags: W
LayerCount: 2
Fore
SplineSet
598 -21 m 0,0,1
 439 -21 439 -21 317.5 44 c 128,-1,2
 196 109 196 109 128 221.5 c 128,-1,3
 60 334 60 334 60 477 c 0,4,5
 60 624 60 624 120.5 734 c 128,-1,6
 181 844 181 844 292 905.5 c 128,-1,7
 403 967 403 967 554 967 c 0,8,9
 633 967 633 967 701.5 945 c 128,-1,10
 770 923 770 923 820 884 c 1,11,-1
 824 888 l 1,12,13
 804 963 804 963 765 1028 c 128,-1,14
 726 1093 726 1093 673 1146 c 1,15,-1
 442 1018 l 1,16,-1
 364 1131 l 1,17,-1
 554 1236 l 1,18,19
 519 1256 519 1256 482.5 1271 c 128,-1,20
 446 1286 446 1286 409 1299 c 1,21,-1
 501 1517 l 1,22,23
 587 1496 587 1496 664.5 1461 c 128,-1,24
 742 1426 742 1426 810 1377 c 1,25,-1
 1018 1493 l 1,26,-1
 1095 1380 l 1,27,-1
 918 1282 l 1,28,29
 1028 1165 1028 1165 1088 1007.5 c 128,-1,30
 1148 850 1148 850 1148 661 c 2,31,-1
 1148 585 l 2,32,33
 1148 407 1148 407 1075.5 270.5 c 128,-1,34
 1003 134 1003 134 879 56.5 c 128,-1,35
 755 -21 755 -21 598 -21 c 0,0,1
596 203 m 0,36,37
 677 203 677 203 735.5 252 c 128,-1,38
 794 301 794 301 825 387 c 128,-1,39
 856 473 856 473 856 585 c 2,40,-1
 856 632 l 1,41,-1
 856 663 l 1,42,43
 822 703 822 703 757.5 729 c 128,-1,44
 693 755 693 755 608 755 c 0,45,46
 526 755 526 755 468.5 719.5 c 128,-1,47
 411 684 411 684 381 621 c 128,-1,48
 351 558 351 558 351 475 c 0,49,50
 351 398 351 398 382 336 c 128,-1,51
 413 274 413 274 468 238.5 c 128,-1,52
 523 203 523 203 596 203 c 0,36,37
EndSplineSet
Substitution2: "'smcp' Lowercase to Small Capitals in Latin lookup 20 subtable" eth.sc
Substitution2: "'aalt' Access All Alternates in Latin lookup 0 subtable" eth.sc
EndChar

StartChar: e
Encoding: 101 101 227
Width: 1078
GlyphClass: 2
Flags: W
AnchorPoint: "Anchor-3" 887 0 basechar 0
AnchorPoint: "Anchor-2" 556 0 basechar 0
AnchorPoint: "Anchor-0" 550 1082 basechar 0
LayerCount: 2
Fore
SplineSet
581 -21 m 0,0,1
 426 -21 426 -21 310 47.5 c 128,-1,2
 194 116 194 116 130.5 236 c 128,-1,3
 67 356 67 356 67 510 c 2,4,-1
 67 550 l 2,5,6
 67 711 67 711 127 835.5 c 128,-1,7
 187 960 187 960 296.5 1031 c 128,-1,8
 406 1102 406 1102 555 1102 c 0,9,10
 702 1102 702 1102 802 1044 c 128,-1,11
 902 986 902 986 954 877 c 128,-1,12
 1006 768 1006 768 1006 613 c 2,13,-1
 1006 454 l 1,14,-1
 370 454 l 1,15,-1
 368 448 l 1,16,17
 374 377 374 377 403.5 321.5 c 128,-1,18
 433 266 433 266 487 234.5 c 128,-1,19
 541 203 541 203 618 203 c 0,20,21
 698 203 698 203 767.5 223.5 c 128,-1,22
 837 244 837 244 903 284 c 1,23,-1
 982 104 l 1,24,25
 915 50 915 50 813.5 14.5 c 128,-1,26
 712 -21 712 -21 581 -21 c 0,0,1
372 647 m 1,27,-1
 733 647 l 1,28,-1
 733 673 l 2,29,30
 733 739 733 739 715.5 786.5 c 128,-1,31
 698 834 698 834 659.5 860 c 128,-1,32
 621 886 621 886 560 886 c 0,33,34
 502 886 502 886 462 855.5 c 128,-1,35
 422 825 422 825 399.5 772 c 128,-1,36
 377 719 377 719 369 652 c 1,37,-1
 372 647 l 1,27,-1
EndSplineSet
Substitution2: "'smcp' Lowercase to Small Capitals in Latin lookup 20 subtable" e.sc
Substitution2: "'aalt' Access All Alternates in Latin lookup 0 subtable" e.sc
EndChar

StartChar: uni0259
Encoding: 601 601 245
Width: 1119
GlyphClass: 1
Flags: W
LayerCount: 2
Fore
SplineSet
554 -19 m 0,0,1
 407 -19 407 -19 304 40.5 c 128,-1,2
 201 100 201 100 146.5 209.5 c 128,-1,3
 92 319 92 319 92 469 c 2,4,-1
 92 628 l 1,5,-1
 740 628 l 1,6,7
 740 630 740 630 740 631.5 c 128,-1,8
 740 633 740 633 740 634 c 0,9,10
 735 705 735 705 704.5 760.5 c 128,-1,11
 674 816 674 816 619.5 847.5 c 128,-1,12
 565 879 565 879 489 879 c 0,13,14
 406 879 406 879 338 859 c 128,-1,15
 270 839 270 839 196 798 c 1,16,-1
 116 978 l 1,17,18
 182 1031 182 1031 289 1067.5 c 128,-1,19
 396 1104 396 1104 527 1104 c 0,20,21
 683 1104 683 1104 798.5 1035 c 128,-1,22
 914 966 914 966 977.5 846 c 128,-1,23
 1041 726 1041 726 1041 572 c 2,24,-1
 1041 532 l 2,25,26
 1041 371 1041 371 981 246.5 c 128,-1,27
 921 122 921 122 811.5 51.5 c 128,-1,28
 702 -19 702 -19 554 -19 c 0,0,1
552 205 m 0,29,30
 606 205 606 205 645 233 c 128,-1,31
 684 261 684 261 707.5 312 c 128,-1,32
 731 363 731 363 739 430 c 1,33,-1
 736 435 l 1,34,-1
 379 435 l 1,35,-1
 379 409 l 2,36,37
 379 346 379 346 398 300.5 c 128,-1,38
 417 255 417 255 455.5 230 c 128,-1,39
 494 205 494 205 552 205 c 0,29,30
EndSplineSet
EndChar

StartChar: f
Encoding: 102 102 246
Width: 799
GlyphClass: 2
Flags: W
AnchorPoint: "Anchor-2" 400 0 basechar 0
AnchorPoint: "Anchor-0" 582 1456 basechar 0
LayerCount: 2
Fore
SplineSet
79 0 m 1,0,-1
 79 175 l 1,1,-1
 220 205 l 1,2,-1
 220 877 l 1,3,-1
 59 877 l 1,4,-1
 59 1082 l 1,5,-1
 220 1082 l 1,6,-1
 220 1202 l 2,7,8
 220 1384 220 1384 324.5 1482.5 c 128,-1,9
 429 1581 429 1581 617 1581 c 0,10,11
 664 1581 664 1581 716 1573.5 c 128,-1,12
 768 1566 768 1566 805 1556 c 1,13,-1
 780 1339 l 1,14,15
 756 1346 756 1346 725 1349.5 c 128,-1,16
 694 1353 694 1353 662 1353 c 0,17,18
 586 1353 586 1353 549 1314 c 128,-1,19
 512 1275 512 1275 512 1202 c 2,20,-1
 512 1082 l 1,21,-1
 757 1082 l 1,22,-1
 757 877 l 1,23,-1
 512 877 l 1,24,-1
 512 205 l 1,25,-1
 703 175 l 1,26,-1
 703 0 l 1,27,-1
 79 0 l 1,0,-1
EndSplineSet
Substitution2: "'smcp' Lowercase to Small Capitals in Latin lookup 20 subtable" f.sc
Substitution2: "'aalt' Access All Alternates in Latin lookup 0 subtable" f.sc
EndChar

StartChar: g
Encoding: 103 103 247
Width: 1198
GlyphClass: 2
Flags: W
AnchorPoint: "Anchor-2" 580 -502 basechar 0
AnchorPoint: "Anchor-0" 592 1082 basechar 0
LayerCount: 2
Fore
SplineSet
540 -437 m 0,0,1
 458 -437 458 -437 356 -416 c 128,-1,2
 254 -395 254 -395 176 -356 c 1,3,-1
 230 -148 l 1,4,5
 300 -178 300 -178 378.5 -195.5 c 128,-1,6
 457 -213 457 -213 525 -213 c 0,7,8
 642 -213 642 -213 696.5 -148 c 128,-1,9
 751 -83 751 -83 751 33 c 2,10,-1
 751 104 l 1,11,12
 703 43 703 43 638 11 c 128,-1,13
 573 -21 573 -21 489 -21 c 0,14,15
 357 -21 357 -21 262 45.5 c 128,-1,16
 167 112 167 112 117 232 c 128,-1,17
 67 352 67 352 67 511 c 2,18,-1
 67 532 l 2,19,20
 67 703 67 703 117 831 c 128,-1,21
 167 959 167 959 260 1030.5 c 128,-1,22
 353 1102 353 1102 483 1102 c 0,23,24
 580 1102 580 1102 650 1061.5 c 128,-1,25
 720 1021 720 1021 769 946 c 1,26,-1
 790 1082 l 1,27,-1
 1044 1082 l 1,28,-1
 1044 32 l 2,29,30
 1044 -111 1044 -111 983.5 -216 c 128,-1,31
 923 -321 923 -321 810 -379 c 128,-1,32
 697 -437 697 -437 540 -437 c 0,0,1
571 206 m 0,33,34
 633 206 633 206 678 230.5 c 128,-1,35
 723 255 723 255 751 302 c 1,36,-1
 751 772 l 1,37,38
 723 821 723 821 677.5 848 c 128,-1,39
 632 875 632 875 572 875 c 0,40,41
 497 875 497 875 450 831.5 c 128,-1,42
 403 788 403 788 381 711.5 c 128,-1,43
 359 635 359 635 359 532 c 2,44,-1
 359 511 l 2,45,46
 359 369 359 369 408 287.5 c 128,-1,47
 457 206 457 206 571 206 c 0,33,34
1007 871 m 1,48,-1
 880 1082 l 1,49,-1
 1171 1082 l 1,50,-1
 1171 906 l 1,51,-1
 1007 871 l 1,48,-1
EndSplineSet
Substitution2: "'ss01' Style Set 1 in Latin lookup 23 subtable" g.ss01
Substitution2: "'smcp' Lowercase to Small Capitals in Latin lookup 20 subtable" g.sc
AlternateSubs2: "'aalt' Access All Alternates in Latin lookup 1 subtable" g.ss01 g.sc
EndChar

StartChar: h
Encoding: 104 104 252
Width: 1302
GlyphClass: 2
Flags: W
AnchorPoint: "Anchor-4" 361 1211 basechar 0
AnchorPoint: "Anchor-2" 651 0 basechar 0
AnchorPoint: "Anchor-0" 339 1456 basechar 0
LayerCount: 2
Fore
SplineSet
47 0 m 1,0,-1
 47 175 l 1,1,-1
 188 205 l 1,2,-1
 188 1354 l 1,3,-1
 32 1384 l 1,4,-1
 32 1560 l 1,5,-1
 479 1560 l 1,6,-1
 479 944 l 1,7,8
 530 1019 530 1019 605.5 1060.5 c 128,-1,9
 681 1102 681 1102 777 1102 c 0,10,11
 940 1102 940 1102 1035.5 993.5 c 128,-1,12
 1131 885 1131 885 1131 658 c 2,13,-1
 1131 205 l 1,14,-1
 1271 175 l 1,15,-1
 1271 0 l 1,16,-1
 713 0 l 1,17,-1
 713 175 l 1,18,-1
 839 205 l 1,19,-1
 839 660 l 2,20,21
 839 777 839 777 795 826 c 128,-1,22
 751 875 751 875 666 875 c 0,23,24
 607 875 607 875 558.5 850.5 c 128,-1,25
 510 826 510 826 479 779 c 1,26,-1
 479 205 l 1,27,-1
 605 175 l 1,28,-1
 605 0 l 1,29,-1
 47 0 l 1,0,-1
EndSplineSet
Substitution2: "'smcp' Lowercase to Small Capitals in Latin lookup 20 subtable" h.sc
Substitution2: "'aalt' Access All Alternates in Latin lookup 0 subtable" h.sc
EndChar

StartChar: dotlessi
Encoding: 305 305 256
Width: 661
GlyphClass: 2
Flags: W
AnchorPoint: "Anchor-3" 627 0 basechar 0
AnchorPoint: "Anchor-2" 338 0 basechar 0
AnchorPoint: "Anchor-0" 336 1082 basechar 0
LayerCount: 2
Fore
SplineSet
54 0 m 1,0,-1
 54 175 l 1,1,-1
 195 205 l 1,2,-1
 195 876 l 1,3,-1
 39 906 l 1,4,-1
 39 1082 l 1,5,-1
 487 1082 l 1,6,-1
 487 205 l 1,7,-1
 627 175 l 1,8,-1
 627 0 l 1,9,-1
 54 0 l 1,0,-1
EndSplineSet
Substitution2: "'smcp' Lowercase to Small Capitals in Latin lookup 20 subtable" i.sc
Substitution2: "'aalt' Access All Alternates in Latin lookup 0 subtable" i.sc
EndChar

StartChar: uni0237
Encoding: 567 567 269
Width: 600
GlyphClass: 2
Flags: W
AnchorPoint: "Anchor-2" 291 -555 basechar 0
AnchorPoint: "Anchor-0" 333 1082 basechar 0
LayerCount: 2
Fore
SplineSet
105 -437 m 0,0,1
 64 -437 64 -437 30.5 -433 c 128,-1,2
 -3 -429 -3 -429 -39 -420 c 1,3,-1
 -24 -199 l 1,4,5
 -2 -205 -2 -205 22.5 -208.5 c 128,-1,6
 47 -212 47 -212 74 -212 c 0,7,8
 131 -212 131 -212 163 -167 c 128,-1,9
 195 -122 195 -122 195 -40 c 2,10,-1
 195 876 l 1,11,-1
 39 906 l 1,12,-1
 39 1082 l 1,13,-1
 486 1082 l 1,14,-1
 486 -40 l 2,15,16
 486 -231 486 -231 386 -334 c 128,-1,17
 286 -437 286 -437 105 -437 c 0,0,1
EndSplineSet
Substitution2: "'smcp' Lowercase to Small Capitals in Latin lookup 20 subtable" j.sc
Substitution2: "'aalt' Access All Alternates in Latin lookup 0 subtable" j.sc
EndChar

StartChar: k
Encoding: 107 107 272
Width: 1316
GlyphClass: 2
Flags: W
AnchorPoint: "Anchor-2" 658 0 basechar 0
AnchorPoint: "Anchor-0" 338 1456 basechar 0
LayerCount: 2
Fore
SplineSet
47 0 m 1,0,-1
 47 175 l 1,1,-1
 188 205 l 1,2,-1
 188 1354 l 1,3,-1
 32 1384 l 1,4,-1
 32 1560 l 1,5,-1
 479 1560 l 1,6,-1
 479 205 l 1,7,-1
 605 175 l 1,8,-1
 605 0 l 1,9,-1
 47 0 l 1,0,-1
736 0 m 1,10,-1
 736 166 l 1,11,-1
 818 185 l 1,12,-1
 816 189 l 1,13,-1
 602 480 l 1,14,-1
 788 671 l 1,15,-1
 1143 206 l 1,16,-1
 1277 175 l 1,17,-1
 1277 0 l 1,18,-1
 736 0 l 1,10,-1
448 296 m 1,19,-1
 308 459 l 1,20,-1
 778 889 l 1,21,-1
 780 892 l 1,22,-1
 669 908 l 1,23,-1
 669 1082 l 1,24,-1
 1232 1082 l 1,25,-1
 1232 906 l 1,26,-1
 1092 871 l 1,27,-1
 448 296 l 1,19,-1
EndSplineSet
Substitution2: "'ss05' Style Set 5 in Latin lookup 27 subtable" k.ss05
Substitution2: "'smcp' Lowercase to Small Capitals in Latin lookup 20 subtable" k.sc
AlternateSubs2: "'aalt' Access All Alternates in Latin lookup 1 subtable" k.ss05 k.sc
EndChar

StartChar: kgreenlandic
Encoding: 312 312 274
Width: 1303
GlyphClass: 2
Flags: W
AnchorPoint: "Anchor-2" 656 0 basechar 0
AnchorPoint: "Anchor-0" 652 1082 basechar 0
LayerCount: 2
Fore
SplineSet
461 293 m 1,0,-1
 328 469 l 1,1,-1
 766 887 l 1,2,-1
 769 890 l 1,3,-1
 667 907 l 1,4,-1
 667 1082 l 1,5,-1
 1218 1082 l 1,6,-1
 1218 906 l 1,7,-1
 1079 873 l 1,8,-1
 461 293 l 1,0,-1
51 0 m 1,9,-1
 51 175 l 1,10,-1
 197 208 l 1,11,-1
 197 872 l 1,12,-1
 40 906 l 1,13,-1
 40 1082 l 1,14,-1
 489 1082 l 1,15,-1
 489 208 l 1,16,-1
 627 175 l 1,17,-1
 627 0 l 1,18,-1
 51 0 l 1,9,-1
913 0 m 1,19,-1
 582 476 l 1,20,-1
 775 687 l 1,21,-1
 1118 206 l 1,22,-1
 1243 175 l 1,23,-1
 1243 0 l 1,24,-1
 913 0 l 1,19,-1
EndSplineSet
Substitution2: "'ss05' Style Set 5 in Latin lookup 27 subtable" kgreenlandic.ss05
Substitution2: "'aalt' Access All Alternates in Latin lookup 0 subtable" kgreenlandic.ss05
EndChar

StartChar: l
Encoding: 108 108 275
Width: 653
GlyphClass: 2
Flags: W
AnchorPoint: "Anchor-4" 336 763 basechar 0
AnchorPoint: "Anchor-2" 336 0 basechar 0
AnchorPoint: "Anchor-1" 696 1560 basechar 0
AnchorPoint: "Anchor-0" 336 1456 basechar 0
LayerCount: 2
Fore
SplineSet
47 0 m 1,0,-1
 47 175 l 1,1,-1
 188 205 l 1,2,-1
 188 1354 l 1,3,-1
 32 1384 l 1,4,-1
 32 1560 l 1,5,-1
 480 1560 l 1,6,-1
 480 205 l 1,7,-1
 621 175 l 1,8,-1
 621 0 l 1,9,-1
 47 0 l 1,0,-1
EndSplineSet
Substitution2: "'smcp' Lowercase to Small Capitals in Latin lookup 20 subtable" l.sc
Substitution2: "'aalt' Access All Alternates in Latin lookup 0 subtable" l.sc
EndChar

StartChar: m
Encoding: 109 109 281
Width: 1917
GlyphClass: 2
Flags: W
AnchorPoint: "Anchor-2" 961 0 basechar 0
AnchorPoint: "Anchor-0" 961 1082 basechar 0
LayerCount: 2
Fore
SplineSet
52 0 m 1,0,-1
 52 175 l 1,1,-1
 193 205 l 1,2,-1
 193 876 l 1,3,-1
 37 906 l 1,4,-1
 37 1082 l 1,5,-1
 464 1082 l 1,6,-1
 476 939 l 1,7,8
 528 1017 528 1017 606.5 1059.5 c 128,-1,9
 685 1102 685 1102 788 1102 c 0,10,11
 892 1102 892 1102 966.5 1056 c 128,-1,12
 1041 1010 1041 1010 1078 917 c 1,13,14
 1128 1004 1128 1004 1208 1053 c 128,-1,15
 1288 1102 1288 1102 1396 1102 c 0,16,17
 1556 1102 1556 1102 1648.5 993 c 128,-1,18
 1741 884 1741 884 1741 661 c 2,19,-1
 1741 205 l 1,20,-1
 1882 175 l 1,21,-1
 1882 0 l 1,22,-1
 1323 0 l 1,23,-1
 1323 175 l 1,24,-1
 1449 205 l 1,25,-1
 1449 662 l 2,26,27
 1449 782 1449 782 1409.5 828.5 c 128,-1,28
 1370 875 1370 875 1295 875 c 0,29,30
 1227 875 1227 875 1180 836.5 c 128,-1,31
 1133 798 1133 798 1112 735 c 1,32,-1
 1112 205 l 1,33,-1
 1230 175 l 1,34,-1
 1230 0 l 1,35,-1
 703 0 l 1,36,-1
 703 175 l 1,37,-1
 821 205 l 1,38,-1
 821 662 l 2,39,40
 821 779 821 779 781.5 827 c 128,-1,41
 742 875 742 875 665 875 c 0,42,43
 603 875 603 875 558 850 c 128,-1,44
 513 825 513 825 484 778 c 1,45,-1
 484 205 l 1,46,-1
 610 175 l 1,47,-1
 610 0 l 1,48,-1
 52 0 l 1,0,-1
EndSplineSet
Substitution2: "'smcp' Lowercase to Small Capitals in Latin lookup 20 subtable" m.sc
Substitution2: "'aalt' Access All Alternates in Latin lookup 0 subtable" m.sc
EndChar

StartChar: n
Encoding: 110 110 283
Width: 1307
GlyphClass: 2
Flags: W
AnchorPoint: "Anchor-2" 655 0 basechar 0
AnchorPoint: "Anchor-0" 655 1082 basechar 0
LayerCount: 2
Fore
SplineSet
52 0 m 1,0,-1
 52 175 l 1,1,-1
 192 205 l 1,2,-1
 192 876 l 1,3,-1
 37 906 l 1,4,-1
 37 1082 l 1,5,-1
 464 1082 l 1,6,-1
 477 927 l 1,7,8
 531 1010 531 1010 610.5 1056 c 128,-1,9
 690 1102 690 1102 792 1102 c 0,10,11
 953 1102 953 1102 1044 999 c 128,-1,12
 1135 896 1135 896 1135 676 c 2,13,-1
 1135 205 l 1,14,-1
 1275 175 l 1,15,-1
 1275 0 l 1,16,-1
 717 0 l 1,17,-1
 717 175 l 1,18,-1
 842 205 l 1,19,-1
 842 675 l 2,20,21
 842 784 842 784 799 829.5 c 128,-1,22
 756 875 756 875 671 875 c 0,23,24
 608 875 608 875 561.5 848.5 c 128,-1,25
 515 822 515 822 484 773 c 1,26,-1
 484 205 l 1,27,-1
 602 175 l 1,28,-1
 602 0 l 1,29,-1
 52 0 l 1,0,-1
EndSplineSet
Substitution2: "'smcp' Lowercase to Small Capitals in Latin lookup 20 subtable" n.sc
Substitution2: "'aalt' Access All Alternates in Latin lookup 0 subtable" n.sc
EndChar

StartChar: eng
Encoding: 331 331 289
Width: 1282
GlyphClass: 1
Flags: W
LayerCount: 2
Fore
SplineSet
792 -437 m 0,0,1
 751 -437 751 -437 717 -433 c 128,-1,2
 683 -429 683 -429 647 -420 c 1,3,-1
 661 -196 l 1,4,5
 683 -201 683 -201 707.5 -204.5 c 128,-1,6
 732 -208 732 -208 758 -208 c 0,7,8
 818 -208 818 -208 849.5 -165 c 128,-1,9
 881 -122 881 -122 881 -40 c 2,10,-1
 881 662 l 2,11,12
 881 778 881 778 840.5 826.5 c 128,-1,13
 800 875 800 875 717 875 c 0,14,15
 654 875 654 875 605.5 848 c 128,-1,16
 557 821 557 821 525 774 c 1,17,-1
 525 205 l 1,18,-1
 665 175 l 1,19,-1
 665 0 l 1,20,-1
 93 0 l 1,21,-1
 93 175 l 1,22,-1
 233 205 l 1,23,-1
 233 876 l 1,24,-1
 78 906 l 1,25,-1
 78 1082 l 1,26,-1
 504 1082 l 1,27,-1
 518 930 l 1,28,29
 571 1011 571 1011 651 1056.5 c 128,-1,30
 731 1102 731 1102 831 1102 c 0,31,32
 990 1102 990 1102 1081.5 996 c 128,-1,33
 1173 890 1173 890 1173 663 c 2,34,-1
 1173 -40 l 2,35,36
 1173 -230 1173 -230 1072 -333.5 c 128,-1,37
 971 -437 971 -437 792 -437 c 0,0,1
EndSplineSet
Substitution2: "'smcp' Lowercase to Small Capitals in Latin lookup 20 subtable" eng.sc
Substitution2: "'aalt' Access All Alternates in Latin lookup 0 subtable" eng.sc
EndChar

StartChar: o
Encoding: 111 111 290
Width: 1155
GlyphClass: 2
Flags: W
AnchorPoint: "Anchor-4" 578 541 basechar 0
AnchorPoint: "Anchor-3" 843 0 basechar 0
AnchorPoint: "Anchor-2" 578 0 basechar 0
AnchorPoint: "Anchor-1" 1014 1082 basechar 0
AnchorPoint: "Anchor-0" 578 1082 basechar 0
LayerCount: 2
Fore
SplineSet
579 -21 m 0,0,1
 419 -21 419 -21 304 49 c 128,-1,2
 189 119 189 119 128 243.5 c 128,-1,3
 67 368 67 368 67 530 c 2,4,-1
 67 551 l 2,5,6
 67 712 67 712 128 836.5 c 128,-1,7
 189 961 189 961 303.5 1031.5 c 128,-1,8
 418 1102 418 1102 577 1102 c 0,9,10
 738 1102 738 1102 852 1031.5 c 128,-1,11
 966 961 966 961 1027 837 c 128,-1,12
 1088 713 1088 713 1088 551 c 2,13,-1
 1088 530 l 2,14,15
 1088 368 1088 368 1027 243.5 c 128,-1,16
 966 119 966 119 852 49 c 128,-1,17
 738 -21 738 -21 579 -21 c 0,0,1
579 203 m 0,18,19
 655 203 655 203 703 244 c 128,-1,20
 751 285 751 285 774 358.5 c 128,-1,21
 797 432 797 432 797 530 c 2,22,-1
 797 551 l 2,23,24
 797 647 797 647 774 720.5 c 128,-1,25
 751 794 751 794 702.5 835.5 c 128,-1,26
 654 877 654 877 577 877 c 0,27,28
 502 877 502 877 453 835.5 c 128,-1,29
 404 794 404 794 381.5 720.5 c 128,-1,30
 359 647 359 647 359 551 c 2,31,-1
 359 530 l 2,32,33
 359 432 359 432 381.5 358 c 128,-1,34
 404 284 404 284 453 243.5 c 128,-1,35
 502 203 502 203 579 203 c 0,18,19
EndSplineSet
Substitution2: "'smcp' Lowercase to Small Capitals in Latin lookup 20 subtable" o.sc
Substitution2: "Single Substitution lookup 17 subtable" ordmasculine
AlternateSubs2: "'aalt' Access All Alternates in Latin lookup 1 subtable" o.sc ordmasculine
EndChar

StartChar: oe
Encoding: 339 339 314
Width: 1828
GlyphClass: 2
Flags: W
AnchorPoint: "Anchor-2" 920 0 basechar 0
AnchorPoint: "Anchor-0" 924 1082 basechar 0
LayerCount: 2
Fore
SplineSet
579 -21 m 0,0,1
 419 -21 419 -21 304 49 c 128,-1,2
 189 119 189 119 128 243.5 c 128,-1,3
 67 368 67 368 67 530 c 2,4,-1
 67 551 l 2,5,6
 67 712 67 712 128 836.5 c 128,-1,7
 189 961 189 961 303.5 1031.5 c 128,-1,8
 418 1102 418 1102 577 1102 c 0,9,10
 692 1102 692 1102 785.5 1059.5 c 128,-1,11
 879 1017 879 1017 946 939 c 1,12,13
 1010 1019 1010 1019 1098.5 1060.5 c 128,-1,14
 1187 1102 1187 1102 1295 1102 c 0,15,16
 1441 1102 1441 1102 1544 1042.5 c 128,-1,17
 1647 983 1647 983 1701.5 873 c 128,-1,18
 1756 763 1756 763 1756 613 c 2,19,-1
 1756 454 l 1,20,-1
 1108 454 l 1,21,-1
 1107 448 l 1,22,23
 1112 377 1112 377 1142.5 321.5 c 128,-1,24
 1173 266 1173 266 1225.5 234.5 c 128,-1,25
 1278 203 1278 203 1352 203 c 0,26,27
 1417 203 1417 203 1465.5 211.5 c 128,-1,28
 1514 220 1514 220 1558 238 c 128,-1,29
 1602 256 1602 256 1652 284 c 1,30,-1
 1732 104 l 1,31,32
 1666 51 1666 51 1559 15 c 128,-1,33
 1452 -21 1452 -21 1321 -21 c 0,34,35
 1243 -21 1243 -21 1174.5 -2.5 c 128,-1,36
 1106 16 1106 16 1049 52 c 128,-1,37
 992 88 992 88 947 140 c 1,38,39
 882 61 882 61 788.5 20 c 128,-1,40
 695 -21 695 -21 579 -21 c 0,0,1
579 203 m 0,41,42
 654 203 654 203 702 244 c 128,-1,43
 750 285 750 285 773.5 358.5 c 128,-1,44
 797 432 797 432 797 530 c 2,45,-1
 797 551 l 2,46,47
 797 647 797 647 773.5 720.5 c 128,-1,48
 750 794 750 794 701.5 835.5 c 128,-1,49
 653 877 653 877 577 877 c 256,50,51
 501 877 501 877 452.5 835.5 c 128,-1,52
 404 794 404 794 381.5 720.5 c 128,-1,53
 359 647 359 647 359 551 c 2,54,-1
 359 530 l 2,55,56
 359 432 359 432 381.5 358 c 128,-1,57
 404 284 404 284 453 243.5 c 128,-1,58
 502 203 502 203 579 203 c 0,41,42
1111 647 m 1,59,-1
 1470 647 l 1,60,-1
 1470 673 l 2,61,62
 1470 736 1470 736 1450.5 781.5 c 128,-1,63
 1431 827 1431 827 1392.5 852 c 128,-1,64
 1354 877 1354 877 1295 877 c 0,65,66
 1241 877 1241 877 1202 849 c 128,-1,67
 1163 821 1163 821 1139.5 770 c 128,-1,68
 1116 719 1116 719 1109 652 c 1,69,-1
 1111 647 l 1,59,-1
EndSplineSet
Substitution2: "'smcp' Lowercase to Small Capitals in Latin lookup 20 subtable" oe.sc
Substitution2: "'aalt' Access All Alternates in Latin lookup 0 subtable" oe.sc
EndChar

StartChar: p
Encoding: 112 112 315
Width: 1240
GlyphClass: 2
Flags: W
AnchorPoint: "Anchor-2" 620 0 basechar 0
AnchorPoint: "Anchor-0" 620 1082 basechar 0
LayerCount: 2
Fore
SplineSet
56 -416 m 1,0,-1
 56 -240 l 1,1,-1
 197 -210 l 1,2,-1
 197 876 l 1,3,-1
 41 906 l 1,4,-1
 41 1082 l 1,5,-1
 465 1082 l 1,6,-1
 479 956 l 1,7,8
 527 1026 527 1026 595 1064 c 128,-1,9
 663 1102 663 1102 757 1102 c 0,10,11
 888 1102 888 1102 981 1030.5 c 128,-1,12
 1074 959 1074 959 1123.5 831 c 128,-1,13
 1173 703 1173 703 1173 532 c 2,14,-1
 1173 511 l 2,15,16
 1173 351 1173 351 1123.5 231.5 c 128,-1,17
 1074 112 1074 112 980.5 45.5 c 128,-1,18
 887 -21 887 -21 755 -21 c 0,19,20
 668 -21 668 -21 601.5 10.5 c 128,-1,21
 535 42 535 42 488 103 c 1,22,-1
 488 -210 l 1,23,-1
 629 -240 l 1,24,-1
 629 -416 l 1,25,-1
 56 -416 l 1,0,-1
668 203 m 0,26,27
 780 203 780 203 830.5 286 c 128,-1,28
 881 369 881 369 881 511 c 2,29,-1
 881 532 l 2,30,31
 881 635 881 635 858 711.5 c 128,-1,32
 835 788 835 788 787.5 831.5 c 128,-1,33
 740 875 740 875 666 875 c 0,34,35
 606 875 606 875 560.5 848 c 128,-1,36
 515 821 515 821 488 771 c 1,37,-1
 488 297 l 1,38,39
 515 251 515 251 560.5 227 c 128,-1,40
 606 203 606 203 668 203 c 0,26,27
EndSplineSet
Substitution2: "'smcp' Lowercase to Small Capitals in Latin lookup 20 subtable" p.sc
Substitution2: "'aalt' Access All Alternates in Latin lookup 0 subtable" p.sc
EndChar

StartChar: thorn
Encoding: 254 254 316
Width: 1233
GlyphClass: 2
Flags: W
AnchorPoint: "Anchor-2" 494 -159 basechar 0
AnchorPoint: "Anchor-0" 494 1225 basechar 0
LayerCount: 2
Fore
SplineSet
49 -416 m 1,0,-1
 49 -240 l 1,1,-1
 190 -210 l 1,2,-1
 190 1354 l 1,3,-1
 34 1384 l 1,4,-1
 34 1560 l 1,5,-1
 481 1560 l 1,6,-1
 481 969 l 1,7,8
 528 1033 528 1033 594 1067.5 c 128,-1,9
 660 1102 660 1102 751 1102 c 0,10,11
 881 1102 881 1102 974 1030.5 c 128,-1,12
 1067 959 1067 959 1116.5 831 c 128,-1,13
 1166 703 1166 703 1166 532 c 2,14,-1
 1166 511 l 2,15,16
 1166 351 1166 351 1116.5 231.5 c 128,-1,17
 1067 112 1067 112 973.5 45.5 c 128,-1,18
 880 -21 880 -21 749 -21 c 0,19,20
 661 -21 661 -21 594.5 10.5 c 128,-1,21
 528 42 528 42 481 103 c 1,22,-1
 481 -210 l 1,23,-1
 622 -240 l 1,24,-1
 622 -416 l 1,25,-1
 49 -416 l 1,0,-1
660 203 m 0,26,27
 773 203 773 203 823.5 286 c 128,-1,28
 874 369 874 369 874 511 c 2,29,-1
 874 532 l 2,30,31
 874 635 874 635 851 711.5 c 128,-1,32
 828 788 828 788 780 831.5 c 128,-1,33
 732 875 732 875 658 875 c 0,34,35
 599 875 599 875 553.5 848 c 128,-1,36
 508 821 508 821 481 771 c 1,37,-1
 481 297 l 1,38,39
 508 251 508 251 553.5 227 c 128,-1,40
 599 203 599 203 660 203 c 0,26,27
EndSplineSet
Substitution2: "'smcp' Lowercase to Small Capitals in Latin lookup 20 subtable" thorn.sc
Substitution2: "'aalt' Access All Alternates in Latin lookup 0 subtable" thorn.sc
EndChar

StartChar: q
Encoding: 113 113 317
Width: 1156
GlyphClass: 2
Flags: W
AnchorPoint: "Anchor-2" 698 -159 basechar 0
AnchorPoint: "Anchor-0" 578 1082 basechar 0
LayerCount: 2
Fore
SplineSet
576 -416 m 1,0,-1
 576 -244 l 1,1,-1
 747 -210 l 1,2,-1
 747 100 l 1,3,4
 698 40 698 40 633.5 9.5 c 128,-1,5
 569 -21 569 -21 483 -21 c 0,6,7
 352 -21 352 -21 259 45.5 c 128,-1,8
 166 112 166 112 116.5 231.5 c 128,-1,9
 67 351 67 351 67 511 c 2,10,-1
 67 532 l 2,11,12
 67 703 67 703 116.5 831 c 128,-1,13
 166 959 166 959 259 1030.5 c 128,-1,14
 352 1102 352 1102 482 1102 c 0,15,16
 577 1102 577 1102 645.5 1063 c 128,-1,17
 714 1024 714 1024 763 952 c 1,18,-1
 785 1082 l 1,19,-1
 1039 1082 l 1,20,-1
 1039 -210 l 1,21,-1
 1170 -239 l 1,22,-1
 1170 -416 l 1,23,-1
 576 -416 l 1,0,-1
568 203 m 0,24,25
 627 203 627 203 672.5 226.5 c 128,-1,26
 718 250 718 250 747 296 c 1,27,-1
 747 777 l 1,28,29
 718 825 718 825 673.5 851 c 128,-1,30
 629 877 629 877 570 877 c 0,31,32
 496 877 496 877 449 833.5 c 128,-1,33
 402 790 402 790 380.5 712.5 c 128,-1,34
 359 635 359 635 359 532 c 2,35,-1
 359 511 l 2,36,37
 359 368 359 368 407 285.5 c 128,-1,38
 455 203 455 203 568 203 c 0,24,25
EndSplineSet
Substitution2: "'smcp' Lowercase to Small Capitals in Latin lookup 20 subtable" q.sc
Substitution2: "'aalt' Access All Alternates in Latin lookup 0 subtable" q.sc
EndChar

StartChar: r
Encoding: 114 114 318
Width: 886
GlyphClass: 2
Flags: W
AnchorPoint: "Anchor-2" 410 0 basechar 0
AnchorPoint: "Anchor-0" 452 1082 basechar 0
LayerCount: 2
Fore
SplineSet
85 0 m 1,0,-1
 85 175 l 1,1,-1
 225 205 l 1,2,-1
 225 876 l 1,3,-1
 70 906 l 1,4,-1
 70 1082 l 1,5,-1
 497 1082 l 1,6,-1
 508 948 l 1,7,-1
 510 924 l 1,8,9
 550 1012 550 1012 609 1057 c 128,-1,10
 668 1102 668 1102 750 1102 c 0,11,12
 776 1102 776 1102 807 1097.5 c 128,-1,13
 838 1093 838 1093 862 1086 c 1,14,-1
 831 817 l 1,15,-1
 686 825 l 2,16,17
 624 828 624 828 585.5 804 c 128,-1,18
 547 780 547 780 517 735 c 1,19,-1
 517 205 l 1,20,-1
 657 175 l 1,21,-1
 657 0 l 1,22,-1
 85 0 l 1,0,-1
EndSplineSet
Substitution2: "'smcp' Lowercase to Small Capitals in Latin lookup 20 subtable" r.sc
Substitution2: "'aalt' Access All Alternates in Latin lookup 0 subtable" r.sc
EndChar

StartChar: s
Encoding: 115 115 322
Width: 1034
GlyphClass: 2
Flags: W
AnchorPoint: "Anchor-2" 517 0 basechar 0
AnchorPoint: "Anchor-0" 517 1082 basechar 0
LayerCount: 2
Fore
SplineSet
527 -21 m 0,0,1
 406 -21 406 -21 301.5 2 c 128,-1,2
 197 25 197 25 101 68 c 1,3,-1
 98 374 l 1,4,-1
 301 374 l 1,5,-1
 340 218 l 1,6,7
 374 201 374 201 414.5 191 c 128,-1,8
 455 181 455 181 507 181 c 0,9,10
 605 181 605 181 645 213 c 128,-1,11
 685 245 685 245 685 293 c 0,12,13
 685 338 685 338 642.5 372.5 c 128,-1,14
 600 407 600 407 473 433 c 0,15,16
 281 473 281 473 190 557 c 128,-1,17
 99 641 99 641 99 772 c 0,18,19
 99 862 99 862 144.5 936 c 128,-1,20
 190 1010 190 1010 283.5 1055 c 128,-1,21
 377 1100 377 1100 523 1100 c 0,22,23
 645 1100 645 1100 746.5 1076.5 c 128,-1,24
 848 1053 848 1053 917 1015 c 1,25,-1
 920 719 l 1,26,-1
 718 719 l 1,27,-1
 687 861 l 1,28,29
 660 881 660 881 623.5 891 c 128,-1,30
 587 901 587 901 541 901 c 0,31,32
 464 901 464 901 423 870 c 128,-1,33
 382 839 382 839 382 790 c 0,34,35
 382 762 382 762 396.5 738 c 128,-1,36
 411 714 411 714 454 693 c 128,-1,37
 497 672 497 672 579 653 c 0,38,39
 780 607 780 607 872 530.5 c 128,-1,40
 964 454 964 454 964 316 c 0,41,42
 964 165 964 165 854.5 72 c 128,-1,43
 745 -21 745 -21 527 -21 c 0,0,1
EndSplineSet
Substitution2: "'ss03' Style Set 3 in Latin lookup 25 subtable" s.ss03
Substitution2: "'smcp' Lowercase to Small Capitals in Latin lookup 20 subtable" s.sc
AlternateSubs2: "'aalt' Access All Alternates in Latin lookup 1 subtable" s.ss03 s.sc
EndChar

StartChar: germandbls
Encoding: 223 223 328
Width: 1321
GlyphClass: 2
Flags: W
AnchorPoint: "Anchor-2" 661 0 basechar 0
AnchorPoint: "Anchor-0" 661 1225 basechar 0
LayerCount: 2
Fore
SplineSet
839 -21 m 0,0,1
 788 -21 788 -21 736.5 -14.5 c 128,-1,2
 685 -8 685 -8 643 5 c 128,-1,3
 601 18 601 18 576 35 c 1,4,-1
 630 258 l 1,5,6
 666 236 666 236 719.5 219.5 c 128,-1,7
 773 203 773 203 833 203 c 0,8,9
 909 203 909 203 952 241 c 128,-1,10
 995 279 995 279 995 344 c 0,11,12
 995 392 995 392 964.5 437.5 c 128,-1,13
 934 483 934 483 889.5 528 c 128,-1,14
 845 573 845 573 800.5 621 c 128,-1,15
 756 669 756 669 725.5 722.5 c 128,-1,16
 695 776 695 776 695 838 c 0,17,18
 695 884 695 884 711.5 930 c 128,-1,19
 728 976 728 976 750 1023.5 c 128,-1,20
 772 1071 772 1071 788.5 1118 c 128,-1,21
 805 1165 805 1165 805 1211 c 0,22,23
 805 1274 805 1274 767.5 1315.5 c 128,-1,24
 730 1357 730 1357 663 1357 c 0,25,26
 581 1357 581 1357 533.5 1293 c 128,-1,27
 486 1229 486 1229 486 1118 c 2,28,-1
 486 0 l 1,29,-1
 39 0 l 1,30,-1
 39 175 l 1,31,-1
 194 205 l 1,32,-1
 194 1116 l 2,33,34
 194 1265 194 1265 251.5 1369 c 128,-1,35
 309 1473 309 1473 414.5 1527 c 128,-1,36
 520 1581 520 1581 662 1581 c 0,37,38
 789 1581 789 1581 886 1537 c 128,-1,39
 983 1493 983 1493 1038 1411.5 c 128,-1,40
 1093 1330 1093 1330 1093 1217 c 0,41,42
 1093 1157 1093 1157 1076.5 1106 c 128,-1,43
 1060 1055 1060 1055 1039.5 1011 c 128,-1,44
 1019 967 1019 967 1002.5 928 c 128,-1,45
 986 889 986 889 986 854 c 0,46,47
 986 808 986 808 1016 768.5 c 128,-1,48
 1046 729 1046 729 1091 688.5 c 128,-1,49
 1136 648 1136 648 1181 599.5 c 128,-1,50
 1226 551 1226 551 1256 489 c 128,-1,51
 1286 427 1286 427 1286 344 c 0,52,53
 1286 224 1286 224 1234.5 142.5 c 128,-1,54
 1183 61 1183 61 1083.5 20 c 128,-1,55
 984 -21 984 -21 839 -21 c 0,0,1
EndSplineSet
Substitution2: "'smcp' Lowercase to Small Capitals in Latin lookup 20 subtable" germandbls.sc
Substitution2: "'aalt' Access All Alternates in Latin lookup 0 subtable" germandbls.sc
EndChar

StartChar: longs
Encoding: 383 383 329
Width: 753
GlyphClass: 2
Flags: W
AnchorPoint: "Anchor-2" 362 0 basechar 0
AnchorPoint: "Anchor-0" 431 1225 basechar 0
LayerCount: 2
Fore
SplineSet
44 0 m 1,0,-1
 44 175 l 1,1,-1
 184 205 l 1,2,-1
 184 1202 l 2,3,4
 184 1384 184 1384 289.5 1482.5 c 128,-1,5
 395 1581 395 1581 580 1581 c 0,6,7
 622 1581 622 1581 662.5 1575.5 c 128,-1,8
 703 1570 703 1570 744 1560 c 1,9,-1
 720 1345 l 1,10,11
 695 1351 695 1351 672 1353.5 c 128,-1,12
 649 1356 649 1356 626 1356 c 0,13,14
 553 1356 553 1356 514.5 1315.5 c 128,-1,15
 476 1275 476 1275 476 1202 c 2,16,-1
 476 205 l 1,17,-1
 631 175 l 1,18,-1
 631 0 l 1,19,-1
 44 0 l 1,0,-1
EndSplineSet
EndChar

StartChar: t
Encoding: 116 116 330
Width: 735
GlyphClass: 2
Flags: W
AnchorPoint: "Anchor-4" 344 674 basechar 0
AnchorPoint: "Anchor-2" 373 0 basechar 0
AnchorPoint: "Anchor-1" 693 1560 basechar 0
AnchorPoint: "Anchor-0" 332 1281 basechar 0
LayerCount: 2
Fore
SplineSet
488 -21 m 0,0,1
 337 -21 337 -21 255.5 62 c 128,-1,2
 174 145 174 145 174 325 c 2,3,-1
 174 877 l 1,4,-1
 25 877 l 1,5,-1
 25 1082 l 1,6,-1
 174 1082 l 1,7,-1
 174 1347 l 1,8,-1
 465 1347 l 1,9,-1
 465 1082 l 1,10,-1
 664 1082 l 1,11,-1
 664 877 l 1,12,-1
 465 877 l 1,13,-1
 465 326 l 2,14,15
 465 263 465 263 491.5 236 c 128,-1,16
 518 209 518 209 564 209 c 0,17,18
 589 209 589 209 616.5 213 c 128,-1,19
 644 217 644 217 664 220 c 1,20,-1
 689 9 l 1,21,22
 644 -4 644 -4 591.5 -12.5 c 128,-1,23
 539 -21 539 -21 488 -21 c 0,0,1
EndSplineSet
Substitution2: "'smcp' Lowercase to Small Capitals in Latin lookup 20 subtable" t.sc
Substitution2: "'aalt' Access All Alternates in Latin lookup 0 subtable" t.sc
EndChar

StartChar: u
Encoding: 117 117 335
Width: 1275
GlyphClass: 2
Flags: W
AnchorPoint: "Anchor-3" 1230 0 basechar 0
AnchorPoint: "Anchor-2" 636 0 basechar 0
AnchorPoint: "Anchor-1" 1215 1082 basechar 0
AnchorPoint: "Anchor-0" 629 1082 basechar 0
LayerCount: 2
Fore
SplineSet
522 -21 m 0,0,1
 351 -21 351 -21 253.5 87.5 c 128,-1,2
 156 196 156 196 156 425 c 2,3,-1
 156 876 l 1,4,-1
 37 906 l 1,5,-1
 37 1082 l 1,6,-1
 156 1082 l 1,7,-1
 448 1082 l 1,8,-1
 448 423 l 2,9,10
 448 307 448 307 488.5 256.5 c 128,-1,11
 529 206 529 206 611 206 c 0,12,13
 676 206 676 206 726 231.5 c 128,-1,14
 776 257 776 257 808 304 c 1,15,-1
 808 876 l 1,16,-1
 679 906 l 1,17,-1
 679 1082 l 1,18,-1
 808 1082 l 1,19,-1
 1100 1082 l 1,20,-1
 1100 205 l 1,21,-1
 1230 175 l 1,22,-1
 1230 0 l 1,23,-1
 844 0 l 1,24,-1
 824 137 l 1,25,26
 773 61 773 61 696 20 c 128,-1,27
 619 -21 619 -21 522 -21 c 0,0,1
EndSplineSet
Substitution2: "'smcp' Lowercase to Small Capitals in Latin lookup 20 subtable" u.sc
Substitution2: "'aalt' Access All Alternates in Latin lookup 0 subtable" u.sc
EndChar

StartChar: v
Encoding: 118 118 354
Width: 1247
GlyphClass: 2
Flags: W
AnchorPoint: "Anchor-2" 623 0 basechar 0
AnchorPoint: "Anchor-0" 623 1082 basechar 0
LayerCount: 2
Fore
SplineSet
466 0 m 1,0,-1
 139 888 l 1,1,-1
 22 906 l 1,2,-1
 22 1082 l 1,3,-1
 547 1082 l 1,4,-1
 547 907 l 1,5,-1
 433 887 l 1,6,-1
 596 396 l 1,7,-1
 621 312 l 1,8,-1
 627 312 l 1,9,-1
 655 396 l 1,10,-1
 834 886 l 1,11,-1
 701 907 l 1,12,-1
 701 1082 l 1,13,-1
 1225 1082 l 1,14,-1
 1225 906 l 1,15,-1
 1105 886 l 1,16,-1
 763 0 l 1,17,-1
 466 0 l 1,0,-1
EndSplineSet
Substitution2: "'smcp' Lowercase to Small Capitals in Latin lookup 20 subtable" v.sc
Substitution2: "'aalt' Access All Alternates in Latin lookup 0 subtable" v.sc
EndChar

StartChar: w
Encoding: 119 119 355
Width: 1822
GlyphClass: 2
Flags: W
AnchorPoint: "Anchor-2" 911 0 basechar 0
AnchorPoint: "Anchor-0" 911 1082 basechar 0
LayerCount: 2
Fore
SplineSet
417 0 m 1,0,-1
 165 882 l 1,1,-1
 33 906 l 1,2,-1
 33 1082 l 1,3,-1
 556 1082 l 1,4,-1
 556 907 l 1,5,-1
 442 885 l 1,6,-1
 542 464 l 1,7,-1
 562 381 l 1,8,-1
 568 381 l 1,9,-1
 595 464 l 1,10,-1
 817 1082 l 1,11,-1
 1013 1082 l 1,12,-1
 1228 456 l 1,13,-1
 1256 368 l 1,14,-1
 1262 368 l 1,15,-1
 1288 456 l 1,16,-1
 1406 884 l 1,17,-1
 1280 907 l 1,18,-1
 1280 1082 l 1,19,-1
 1792 1082 l 1,20,-1
 1792 906 l 1,21,-1
 1666 882 l 1,22,-1
 1391 0 l 1,23,-1
 1145 0 l 1,24,-1
 947 536 l 1,25,-1
 912 655 l 1,26,-1
 906 655 l 1,27,-1
 871 535 l 1,28,-1
 676 0 l 1,29,-1
 417 0 l 1,0,-1
EndSplineSet
Substitution2: "'smcp' Lowercase to Small Capitals in Latin lookup 20 subtable" w.sc
Substitution2: "'aalt' Access All Alternates in Latin lookup 0 subtable" w.sc
EndChar

StartChar: x
Encoding: 120 120 360
Width: 1319
GlyphClass: 2
Flags: W
AnchorPoint: "Anchor-2" 660 0 basechar 0
AnchorPoint: "Anchor-0" 660 1082 basechar 0
LayerCount: 2
Fore
SplineSet
30 0 m 1,0,-1
 30 175 l 1,1,-1
 169 193 l 1,2,-1
 479 542 l 1,3,-1
 186 889 l 1,4,-1
 55 906 l 1,5,-1
 55 1082 l 1,6,-1
 591 1082 l 1,7,-1
 591 914 l 1,8,-1
 507 901 l 1,9,-1
 664 695 l 1,10,-1
 821 901 l 1,11,-1
 728 914 l 1,12,-1
 728 1082 l 1,13,-1
 1245 1082 l 1,14,-1
 1245 906 l 1,15,-1
 1124 889 l 1,16,-1
 847 554 l 1,17,-1
 1156 193 l 1,18,-1
 1289 175 l 1,19,-1
 1289 0 l 1,20,-1
 734 0 l 1,21,-1
 734 167 l 1,22,-1
 828 180 l 1,23,-1
 661 387 l 1,24,-1
 498 179 l 1,25,-1
 590 167 l 1,26,-1
 590 0 l 1,27,-1
 30 0 l 1,0,-1
EndSplineSet
Substitution2: "'smcp' Lowercase to Small Capitals in Latin lookup 20 subtable" x.sc
Substitution2: "'aalt' Access All Alternates in Latin lookup 0 subtable" x.sc
EndChar

StartChar: y
Encoding: 121 121 361
Width: 1285
GlyphClass: 2
Flags: W
AnchorPoint: "Anchor-2" 989 0 basechar 0
AnchorPoint: "Anchor-0" 647 1082 basechar 0
LayerCount: 2
Fore
SplineSet
363 -437 m 0,0,1
 325 -437 325 -437 282.5 -430.5 c 128,-1,2
 240 -424 240 -424 202 -413 c 1,3,-1
 235 -199 l 1,4,5
 254 -203 254 -203 277 -205 c 128,-1,6
 300 -207 300 -207 317 -207 c 0,7,8
 380 -207 380 -207 426 -174 c 128,-1,9
 472 -141 472 -141 493 -79 c 2,10,-1
 517 -12 l 1,11,-1
 155 887 l 1,12,-1
 22 906 l 1,13,-1
 22 1082 l 1,14,-1
 596 1082 l 1,15,-1
 596 906 l 1,16,-1
 464 886 l 1,17,-1
 634 409 l 1,18,-1
 655 350 l 1,19,-1
 661 350 l 1,20,-1
 862 888 l 1,21,-1
 733 906 l 1,22,-1
 733 1082 l 1,23,-1
 1268 1082 l 1,24,-1
 1268 906 l 1,25,-1
 1146 889 l 1,26,-1
 733 -161 l 2,27,28
 703 -236 703 -236 656.5 -298.5 c 128,-1,29
 610 -361 610 -361 538.5 -399 c 128,-1,30
 467 -437 467 -437 363 -437 c 0,0,1
EndSplineSet
Substitution2: "'smcp' Lowercase to Small Capitals in Latin lookup 20 subtable" y.sc
Substitution2: "'aalt' Access All Alternates in Latin lookup 0 subtable" y.sc
EndChar

StartChar: z
Encoding: 122 122 369
Width: 1107
GlyphClass: 2
Flags: W
AnchorPoint: "Anchor-2" 554 0 basechar 0
AnchorPoint: "Anchor-0" 554 1082 basechar 0
LayerCount: 2
Fore
SplineSet
88 0 m 1,0,-1
 88 172 l 1,1,-1
 651 878 l 1,2,-1
 359 878 l 1,3,-1
 326 693 l 1,4,-1
 112 693 l 1,5,-1
 112 1082 l 1,6,-1
 1001 1082 l 1,7,-1
 1001 895 l 1,8,-1
 470 209 l 1,9,-1
 776 209 l 1,10,-1
 819 408 l 1,11,-1
 1024 408 l 1,12,-1
 1024 0 l 1,13,-1
 88 0 l 1,0,-1
EndSplineSet
Substitution2: "'smcp' Lowercase to Small Capitals in Latin lookup 20 subtable" z.sc
Substitution2: "'aalt' Access All Alternates in Latin lookup 0 subtable" z.sc
EndChar

StartChar: g.ss01
Encoding: 65548 -1 373
Width: 1150
GlyphClass: 2
Flags: W
AnchorPoint: "Anchor-2" 563 -416 basechar 0
AnchorPoint: "Anchor-0" 575 1082 basechar 0
LayerCount: 2
Fore
SplineSet
529 -438 m 0,0,1
 302 -438 302 -438 173 -357 c 128,-1,2
 44 -276 44 -276 44 -157 c 0,3,4
 44 -75 44 -75 94 -13.5 c 128,-1,5
 144 48 144 48 225 86 c 1,6,7
 199 109 199 109 185.5 140 c 128,-1,8
 172 171 172 171 172 211 c 0,9,10
 172 275 172 275 203 322.5 c 128,-1,11
 234 370 234 370 286 406 c 1,12,13
 190 456 190 456 137 537.5 c 128,-1,14
 84 619 84 619 84 717 c 2,15,-1
 84 731 l 2,16,17
 84 841 84 841 143 924.5 c 128,-1,18
 202 1008 202 1008 308 1055 c 128,-1,19
 414 1102 414 1102 555 1102 c 0,20,21
 600 1102 600 1102 642.5 1096.5 c 128,-1,22
 685 1091 685 1091 724 1082 c 1,23,-1
 1096 1082 l 1,24,-1
 1096 928 l 1,25,-1
 954 928 l 1,26,27
 989 885 989 885 1007.5 835.5 c 128,-1,28
 1026 786 1026 786 1026 731 c 2,29,-1
 1026 717 l 2,30,31
 1026 612 1026 612 966.5 528 c 128,-1,32
 907 444 907 444 801 395 c 128,-1,33
 695 346 695 346 555 346 c 0,34,35
 528 346 528 346 498.5 348.5 c 128,-1,36
 469 351 469 351 439 356 c 1,37,38
 427 344 427 344 419.5 329 c 128,-1,39
 412 314 412 314 412 295 c 0,40,41
 412 261 412 261 445 246 c 128,-1,42
 478 231 478 231 538 231 c 2,43,-1
 704 231 l 2,44,45
 887 231 887 231 988.5 151.5 c 128,-1,46
 1090 72 1090 72 1090 -71 c 0,47,48
 1090 -173 1090 -173 1019.5 -256 c 128,-1,49
 949 -339 949 -339 823 -388.5 c 128,-1,50
 697 -438 697 -438 529 -438 c 0,0,1
535 -230 m 0,51,52
 619 -230 619 -230 678.5 -210 c 128,-1,53
 738 -190 738 -190 769 -159 c 128,-1,54
 800 -128 800 -128 800 -93 c 0,55,56
 800 -48 800 -48 767 -21 c 128,-1,57
 734 6 734 6 659 6 c 2,58,-1
 459 6 l 2,59,60
 435 6 435 6 413.5 7.5 c 128,-1,61
 392 9 392 9 373 13 c 1,62,63
 357 1 357 1 344.5 -16 c 128,-1,64
 332 -33 332 -33 325.5 -53 c 128,-1,65
 319 -73 319 -73 319 -95 c 0,66,67
 319 -154 319 -154 373.5 -192 c 128,-1,68
 428 -230 428 -230 535 -230 c 0,51,52
556 557 m 256,69,70
 611 557 611 557 651 578.5 c 128,-1,71
 691 600 691 600 713.5 636.5 c 128,-1,72
 736 673 736 673 736 717 c 2,73,-1
 736 731 l 2,74,75
 736 777 736 777 713.5 813 c 128,-1,76
 691 849 691 849 650.5 869.5 c 128,-1,77
 610 890 610 890 555 890 c 256,78,79
 500 890 500 890 459 869 c 128,-1,80
 418 848 418 848 396 812 c 128,-1,81
 374 776 374 776 374 731 c 2,82,-1
 374 717 l 2,83,84
 374 673 374 673 396.5 636.5 c 128,-1,85
 419 600 419 600 460 578.5 c 128,-1,86
 501 557 501 557 556 557 c 256,69,70
EndSplineSet
EndChar

StartChar: a.ss03
Encoding: 65549 -1 374
Width: 1134
GlyphClass: 1
Flags: W
LayerCount: 2
Fore
SplineSet
424 -21 m 0,0,1
 262 -21 262 -21 168 67.5 c 128,-1,2
 74 156 74 156 74 305 c 0,3,4
 74 412 74 412 128.5 486.5 c 128,-1,5
 183 561 183 561 290 600 c 128,-1,6
 397 639 397 639 554 639 c 2,7,-1
 703 639 l 1,8,-1
 703 725 l 2,9,10
 703 803 703 803 662.5 846 c 128,-1,11
 622 889 622 889 544 889 c 0,12,13
 500 889 500 889 464.5 873.5 c 128,-1,14
 429 858 429 858 409 829 c 128,-1,15
 389 800 389 800 389 760 c 1,16,-1
 108 760 l 1,17,-1
 106 766 l 1,18,19
 102 858 102 858 158 934 c 128,-1,20
 214 1010 214 1010 317 1056 c 128,-1,21
 420 1102 420 1102 556 1102 c 0,22,23
 752 1102 752 1102 874 1003.5 c 128,-1,24
 996 905 996 905 996 723 c 2,25,-1
 996 276 l 2,26,27
 996 251 996 251 996.5 229.5 c 128,-1,28
 997 208 997 208 1000 188 c 1,29,-1
 1104 175 l 1,30,-1
 1104 0 l 1,31,-1
 752 0 l 1,32,33
 740 27 740 27 731 55.5 c 128,-1,34
 722 84 722 84 717 113 c 1,35,36
 665 53 665 53 591 16 c 128,-1,37
 517 -21 517 -21 424 -21 c 0,0,1
503 195 m 0,38,39
 566 195 566 195 619.5 223.5 c 128,-1,40
 673 252 673 252 703 295 c 1,41,-1
 703 474 l 1,42,-1
 554 474 l 2,43,44
 460 474 460 474 412.5 429 c 128,-1,45
 365 384 365 384 365 322 c 0,46,47
 365 263 365 263 400.5 229 c 128,-1,48
 436 195 436 195 503 195 c 0,38,39
EndSplineSet
EndChar

StartChar: ae.ss03
Encoding: 65550 -1 375
Width: 1784
GlyphClass: 2
Flags: W
AnchorPoint: "Anchor-2" 906 0 basechar 0
AnchorPoint: "Anchor-0" 906 1082 basechar 0
LayerCount: 2
Fore
SplineSet
474 -21 m 0,0,1
 282 -21 282 -21 177.5 69.5 c 128,-1,2
 73 160 73 160 73 315 c 0,3,4
 73 476 73 476 200 562 c 128,-1,5
 327 648 327 648 570 648 c 2,6,-1
 751 648 l 1,7,-1
 751 707 l 2,8,9
 751 786 751 786 708.5 831.5 c 128,-1,10
 666 877 666 877 587 877 c 0,11,12
 512 877 512 877 467 839.5 c 128,-1,13
 422 802 422 802 422 746 c 1,14,-1
 139 764 l 1,15,-1
 137 770 l 1,16,17
 133 866 133 866 189.5 941 c 128,-1,18
 246 1016 246 1016 351.5 1059 c 128,-1,19
 457 1102 457 1102 598 1102 c 0,20,21
 699 1102 699 1102 782.5 1068 c 128,-1,22
 866 1034 866 1034 925 970 c 1,23,24
 986 1034 986 1034 1068 1068 c 128,-1,25
 1150 1102 1150 1102 1250 1102 c 0,26,27
 1392 1102 1392 1102 1493.5 1042.5 c 128,-1,28
 1595 983 1595 983 1649.5 873 c 128,-1,29
 1704 763 1704 763 1704 612 c 2,30,-1
 1704 454 l 1,31,-1
 1054 454 l 1,32,-1
 1052 448 l 1,33,34
 1056 337 1056 337 1118.5 270 c 128,-1,35
 1181 203 1181 203 1308 203 c 0,36,37
 1397 203 1397 203 1458.5 223.5 c 128,-1,38
 1520 244 1520 244 1598 284 c 1,39,-1
 1675 100 l 1,40,41
 1613 52 1613 52 1506 15.5 c 128,-1,42
 1399 -21 1399 -21 1273 -21 c 0,43,44
 1145 -21 1145 -21 1045 21 c 128,-1,45
 945 63 945 63 878 142 c 1,46,47
 817 71 817 71 715 25 c 128,-1,48
 613 -21 613 -21 474 -21 c 0,0,1
521 185 m 0,49,50
 564 185 564 185 608 199 c 128,-1,51
 652 213 652 213 689.5 236.5 c 128,-1,52
 727 260 727 260 751 288 c 1,53,-1
 751 464 l 1,54,-1
 572 464 l 2,55,56
 474 464 474 464 419.5 421 c 128,-1,57
 365 378 365 378 365 314 c 0,58,59
 365 256 365 256 405.5 220.5 c 128,-1,60
 446 185 446 185 521 185 c 0,49,50
1056 644 m 1,61,-1
 1418 644 l 1,62,-1
 1418 672 l 2,63,64
 1418 766 1418 766 1373 821.5 c 128,-1,65
 1328 877 1328 877 1242 877 c 0,66,67
 1188 877 1188 877 1147 849 c 128,-1,68
 1106 821 1106 821 1082.5 770 c 128,-1,69
 1059 719 1059 719 1054 649 c 1,70,-1
 1056 644 l 1,61,-1
EndSplineSet
EndChar

StartChar: c.ss03
Encoding: 65551 -1 376
Width: 1092
GlyphClass: 1
Flags: W
LayerCount: 2
Fore
SplineSet
584 -21 m 0,0,1
 422 -21 422 -21 309.5 49 c 128,-1,2
 197 119 197 119 138.5 242 c 128,-1,3
 80 365 80 365 80 525 c 2,4,-1
 80 555 l 2,5,6
 80 715 80 715 138.5 838 c 128,-1,7
 197 961 197 961 309.5 1031.5 c 128,-1,8
 422 1102 422 1102 582 1102 c 0,9,10
 716 1102 716 1102 816 1050 c 128,-1,11
 916 998 916 998 971 905 c 128,-1,12
 1026 812 1026 812 1023 688 c 1,13,-1
 1021 682 l 1,14,-1
 755 682 l 1,15,16
 755 738 755 738 733.5 782 c 128,-1,17
 712 826 712 826 672.5 851.5 c 128,-1,18
 633 877 633 877 577 877 c 0,19,20
 503 877 503 877 457 836 c 128,-1,21
 411 795 411 795 391 722.5 c 128,-1,22
 371 650 371 650 371 555 c 2,23,-1
 371 525 l 2,24,25
 371 429 371 429 391.5 356 c 128,-1,26
 412 283 412 283 458 243 c 128,-1,27
 504 203 504 203 582 203 c 0,28,29
 633 203 633 203 672 224 c 128,-1,30
 711 245 711 245 733 282.5 c 128,-1,31
 755 320 755 320 755 370 c 1,32,-1
 1020 370 l 1,33,-1
 1023 364 l 1,34,35
 1026 255 1026 255 968 168 c 128,-1,36
 910 81 910 81 810 30 c 128,-1,37
 710 -21 710 -21 584 -21 c 0,0,1
EndSplineSet
EndChar

StartChar: s.ss03
Encoding: 65552 -1 377
Width: 1054
GlyphClass: 1
Flags: W
LayerCount: 2
Fore
SplineSet
530 -21 m 0,0,1
 378 -21 378 -21 273.5 30 c 128,-1,2
 169 81 169 81 117 163 c 128,-1,3
 65 245 65 245 69 338 c 1,4,-1
 71 344 l 1,5,-1
 339 344 l 1,6,7
 342 286 342 286 366 250 c 128,-1,8
 390 214 390 214 432.5 196.5 c 128,-1,9
 475 179 475 179 530 179 c 0,10,11
 616 179 616 179 659.5 212 c 128,-1,12
 703 245 703 245 703 295 c 256,13,14
 703 345 703 345 656 380.5 c 128,-1,15
 609 416 609 416 483 443 c 0,16,17
 292 482 292 482 194.5 558.5 c 128,-1,18
 97 635 97 635 97 765 c 0,19,20
 97 860 97 860 150.5 936 c 128,-1,21
 204 1012 204 1012 301.5 1057 c 128,-1,22
 399 1102 399 1102 532 1102 c 0,23,24
 669 1102 669 1102 769.5 1057.5 c 128,-1,25
 870 1013 870 1013 925 936 c 128,-1,26
 980 859 980 859 976 760 c 1,27,-1
 974 754 l 1,28,-1
 691 754 l 1,29,30
 691 819 691 819 646 860 c 128,-1,31
 601 901 601 901 530 901 c 256,32,33
 459 901 459 901 417.5 866.5 c 128,-1,34
 376 832 376 832 376 780 c 0,35,36
 376 748 376 748 394 722.5 c 128,-1,37
 412 697 412 697 458.5 677.5 c 128,-1,38
 505 658 505 658 591 641 c 0,39,40
 792 601 792 601 889 524 c 128,-1,41
 986 447 986 447 986 314 c 0,42,43
 986 215 986 215 929 139.5 c 128,-1,44
 872 64 872 64 769.5 21.5 c 128,-1,45
 667 -21 667 -21 530 -21 c 0,0,1
EndSplineSet
EndChar

StartChar: k.ss05
Encoding: 65553 -1 378
Width: 1330
GlyphClass: 1
Flags: W
LayerCount: 2
Fore
SplineSet
51 0 m 1,0,-1
 51 175 l 1,1,-1
 197 208 l 1,2,-1
 197 1350 l 1,3,-1
 40 1384 l 1,4,-1
 40 1560 l 1,5,-1
 489 1560 l 1,6,-1
 489 663 l 1,7,-1
 577 663 l 1,8,-1
 780 887 l 1,9,-1
 783 890 l 1,10,-1
 679 907 l 1,11,-1
 679 1082 l 1,12,-1
 1227 1082 l 1,13,-1
 1227 906 l 1,14,-1
 1077 869 l 1,15,-1
 849 595 l 1,16,-1
 1150 208 l 1,17,-1
 1297 175 l 1,18,-1
 1297 0 l 1,19,-1
 739 0 l 1,20,-1
 739 168 l 1,21,-1
 825 187 l 1,22,-1
 822 191 l 1,23,-1
 619 455 l 1,24,-1
 489 455 l 1,25,-1
 489 208 l 1,26,-1
 623 175 l 1,27,-1
 623 0 l 1,28,-1
 51 0 l 1,0,-1
EndSplineSet
EndChar

StartChar: kgreenlandic.ss05
Encoding: 65554 -1 379
Width: 1270
GlyphClass: 1
Flags: W
LayerCount: 2
Fore
SplineSet
47 0 m 1,0,-1
 47 175 l 1,1,-1
 188 205 l 1,2,-1
 188 876 l 1,3,-1
 42 906 l 1,4,-1
 42 1082 l 1,5,-1
 479 1082 l 1,6,-1
 479 662 l 1,7,-1
 574 662 l 1,8,-1
 733 888 l 1,9,-1
 736 893 l 1,10,-1
 640 906 l 1,11,-1
 640 1082 l 1,12,-1
 1171 1082 l 1,13,-1
 1171 906 l 1,14,-1
 1044 877 l 1,15,-1
 830 603 l 1,16,-1
 1099 198 l 1,17,-1
 1210 175 l 1,18,-1
 1210 0 l 1,19,-1
 886 0 l 1,20,-1
 604 453 l 1,21,-1
 479 453 l 1,22,-1
 479 205 l 1,23,-1
 605 175 l 1,24,-1
 605 0 l 1,25,-1
 47 0 l 1,0,-1
EndSplineSet
EndChar

StartChar: fi
Encoding: 64257 64257 380
Width: 1337
GlyphClass: 3
LigCaretCntFixed: 1
Flags: W
LayerCount: 2
Fore
SplineSet
39 0 m 1,0,-1
 39 175 l 1,1,-1
 195 205 l 1,2,-1
 195 877 l 1,3,-1
 34 877 l 1,4,-1
 34 1082 l 1,5,-1
 195 1082 l 1,6,-1
 195 1156 l 2,7,8
 195 1360 195 1360 319.5 1470.5 c 128,-1,9
 444 1581 444 1581 670 1581 c 0,10,11
 748 1581 748 1581 824 1565.5 c 128,-1,12
 900 1550 900 1550 1000 1521 c 1,13,-1
 958 1291 l 1,14,15
 889 1312 889 1312 826 1324.5 c 128,-1,16
 763 1337 763 1337 700 1337 c 0,17,18
 591 1337 591 1337 539 1291 c 128,-1,19
 487 1245 487 1245 487 1156 c 2,20,-1
 487 1082 l 1,21,-1
 1143 1082 l 1,22,-1
 1143 205 l 1,23,-1
 1298 175 l 1,24,-1
 1298 0 l 1,25,-1
 710 0 l 1,26,-1
 710 175 l 1,27,-1
 851 205 l 1,28,-1
 851 877 l 1,29,-1
 487 877 l 1,30,-1
 487 205 l 1,31,-1
 628 175 l 1,32,-1
 628 0 l 1,33,-1
 39 0 l 1,0,-1
EndSplineSet
Ligature2: "'liga' Standard Ligatures in Latin lookup 22 subtable" f i
MultipleSubs2: "'ccmp' Glyph Composition/Decomposition in Latin lookup 9 subtable" f i
LCarets2: 1 669
EndChar

StartChar: fl
Encoding: 64258 64258 381
Width: 1421
GlyphClass: 3
LigCaretCntFixed: 1
Flags: W
LayerCount: 2
Fore
SplineSet
39 0 m 1,0,-1
 39 175 l 1,1,-1
 195 205 l 1,2,-1
 195 877 l 1,3,-1
 59 877 l 1,4,-1
 59 1082 l 1,5,-1
 195 1082 l 1,6,-1
 195 1129 l 2,7,8
 195 1346 195 1346 326 1463.5 c 128,-1,9
 457 1581 457 1581 695 1581 c 0,10,11
 781 1581 781 1581 865 1565.5 c 128,-1,12
 949 1550 949 1550 1060 1521 c 1,13,-1
 1232 1521 l 1,14,-1
 1232 205 l 1,15,-1
 1373 175 l 1,16,-1
 1373 0 l 1,17,-1
 799 0 l 1,18,-1
 799 175 l 1,19,-1
 940 205 l 1,20,-1
 940 1324 l 1,21,22
 881 1336 881 1336 828.5 1343 c 128,-1,23
 776 1350 776 1350 723 1350 c 0,24,25
 603 1350 603 1350 545 1294 c 128,-1,26
 487 1238 487 1238 487 1129 c 2,27,-1
 487 1082 l 1,28,-1
 727 1082 l 1,29,-1
 727 877 l 1,30,-1
 487 877 l 1,31,-1
 487 205 l 1,32,-1
 628 175 l 1,33,-1
 628 0 l 1,34,-1
 39 0 l 1,0,-1
EndSplineSet
Ligature2: "'liga' Standard Ligatures in Latin lookup 22 subtable" f l
MultipleSubs2: "'ccmp' Glyph Composition/Decomposition in Latin lookup 9 subtable" f l
LCarets2: 1 723
EndChar

StartChar: a.sc
Encoding: 65555 -1 384
Width: 1326
GlyphClass: 2
Flags: W
AnchorPoint: "Anchor-3" 1280 0 basechar 0
AnchorPoint: "Anchor-2" 662 0 basechar 0
AnchorPoint: "Anchor-0" 662 1082 basechar 0
LayerCount: 2
Fore
SplineSet
45 0 m 1,0,-1
 45 175 l 1,1,-1
 126 188 l 1,2,-1
 504 1165 l 1,3,-1
 820 1165 l 1,4,-1
 1197 189 l 1,5,-1
 1280 175 l 1,6,-1
 1280 0 l 1,7,-1
 830 0 l 1,8,-1
 830 162 l 1,9,-1
 900 178 l 1,10,-1
 858 298 l 1,11,-1
 465 298 l 1,12,-1
 423 178 l 1,13,-1
 494 162 l 1,14,-1
 494 0 l 1,15,-1
 45 0 l 1,0,-1
535 496 m 1,16,-1
 788 496 l 1,17,-1
 678 808 l 1,18,-1
 664 846 l 1,19,-1
 658 846 l 1,20,-1
 645 809 l 1,21,-1
 535 496 l 1,16,-1
EndSplineSet
EndChar

StartChar: ae.sc
Encoding: 65579 -1 408
Width: 1827
GlyphClass: 2
Flags: W
AnchorPoint: "Anchor-2" 988 0 basechar 0
AnchorPoint: "Anchor-0" 988 1133 basechar 0
LayerCount: 2
Fore
SplineSet
45 0 m 1,0,-1
 45 170 l 1,1,-1
 166 187 l 1,2,-1
 718 1165 l 1,3,-1
 1655 1165 l 1,4,-1
 1655 844 l 1,5,-1
 1437 844 l 1,6,-1
 1427 939 l 1,7,-1
 1149 939 l 1,8,-1
 1162 707 l 1,9,-1
 1583 707 l 1,10,-1
 1583 481 l 1,11,-1
 1171 481 l 1,12,-1
 1184 225 l 1,13,-1
 1481 225 l 1,14,-1
 1491 320 l 1,15,-1
 1709 320 l 1,16,-1
 1709 0 l 1,17,-1
 766 0 l 1,18,-1
 766 170 l 1,19,-1
 894 195 l 1,20,-1
 889 280 l 1,21,-1
 549 280 l 1,22,-1
 490 182 l 1,23,-1
 563 170 l 1,24,-1
 563 0 l 1,25,-1
 45 0 l 1,0,-1
658 496 m 1,26,-1
 879 496 l 1,27,-1
 861 859 l 1,28,-1
 857 859 l 1,29,-1
 850 845 l 1,30,-1
 658 496 l 1,26,-1
EndSplineSet
EndChar

StartChar: b.sc
Encoding: 65581 -1 410
Width: 1235
GlyphClass: 2
Flags: W
AnchorPoint: "Anchor-2" 618 0 basechar 0
AnchorPoint: "Anchor-0" 618 1082 basechar 0
LayerCount: 2
Fore
SplineSet
43 0 m 1,0,-1
 43 175 l 1,1,-1
 199 205 l 1,2,-1
 199 959 l 1,3,-1
 43 989 l 1,4,-1
 43 1165 l 1,5,-1
 199 1165 l 1,6,-1
 663 1165 l 2,7,8
 879 1165 879 1165 999.5 1084.5 c 128,-1,9
 1120 1004 1120 1004 1120 849 c 0,10,11
 1120 763 1120 763 1072 698 c 128,-1,12
 1024 633 1024 633 920 596 c 1,13,14
 1045 572 1045 572 1110 501.5 c 128,-1,15
 1175 431 1175 431 1175 321 c 0,16,17
 1175 165 1175 165 1060.5 82.5 c 128,-1,18
 946 0 946 0 732 0 c 2,19,-1
 43 0 l 1,0,-1
490 222 m 1,20,-1
 732 222 l 2,21,22
 806 222 806 222 845 255 c 128,-1,23
 884 288 884 288 884 357 c 0,24,25
 884 425 884 425 845 460 c 128,-1,26
 806 495 806 495 732 495 c 2,27,-1
 490 495 l 1,28,-1
 490 222 l 1,20,-1
490 681 m 1,29,-1
 663 681 l 2,30,31
 829 681 829 681 829 813 c 0,32,33
 829 877 829 877 788 905.5 c 128,-1,34
 747 934 747 934 663 934 c 2,35,-1
 490 934 l 1,36,-1
 490 681 l 1,29,-1
EndSplineSet
EndChar

StartChar: c.sc
Encoding: 65582 -1 411
Width: 1179
GlyphClass: 2
Flags: W
AnchorPoint: "Anchor-2" 604 0 basechar 0
AnchorPoint: "Anchor-0" 609 1082 basechar 0
LayerCount: 2
Fore
SplineSet
647 -17 m 0,0,1
 531 -17 531 -17 429 21.5 c 128,-1,2
 327 60 327 60 249 134.5 c 128,-1,3
 171 209 171 209 126.5 316.5 c 128,-1,4
 82 424 82 424 82 562 c 2,5,-1
 82 602 l 2,6,7
 82 772 82 772 153 902.5 c 128,-1,8
 224 1033 224 1033 349.5 1107.5 c 128,-1,9
 475 1182 475 1182 638 1182 c 0,10,11
 769 1182 769 1182 880.5 1148.5 c 128,-1,12
 992 1115 992 1115 1077 1040 c 1,13,-1
 1077 735 l 1,14,-1
 865 735 l 1,15,-1
 835 907 l 1,16,17
 799 933 799 933 757.5 948 c 128,-1,18
 716 963 716 963 661 963 c 0,19,20
 580 963 580 963 514.5 920.5 c 128,-1,21
 449 878 449 878 411 798 c 128,-1,22
 373 718 373 718 373 604 c 2,23,-1
 373 562 l 2,24,25
 373 454 373 454 411.5 373 c 128,-1,26
 450 292 450 292 516.5 247 c 128,-1,27
 583 202 583 202 665 202 c 0,28,29
 708 202 708 202 752 212 c 128,-1,30
 796 222 796 222 834 238 c 1,31,-1
 863 397 l 1,32,-1
 1076 397 l 1,33,-1
 1076 99 l 1,34,35
 1020 52 1020 52 911.5 17.5 c 128,-1,36
 803 -17 803 -17 647 -17 c 0,0,1
EndSplineSet
Substitution2: "'ss05' Style Set 5 in Latin lookup 27 subtable" c.sc.ss05
Substitution2: "'aalt' Access All Alternates in Latin lookup 0 subtable" c.sc.ss05
EndChar

StartChar: d.sc
Encoding: 65588 -1 417
Width: 1285
GlyphClass: 2
Flags: W
AnchorPoint: "Anchor-4" 402 591 basechar 0
AnchorPoint: "Anchor-2" 638 0 basechar 0
AnchorPoint: "Anchor-0" 637 1082 basechar 0
LayerCount: 2
Fore
SplineSet
71 0 m 1,0,-1
 71 175 l 1,1,-1
 228 208 l 1,2,-1
 228 955 l 1,3,-1
 71 989 l 1,4,-1
 71 1165 l 1,5,-1
 228 1165 l 1,6,-1
 673 1165 l 2,7,8
 829 1165 829 1165 951.5 1092.5 c 128,-1,9
 1074 1020 1074 1020 1144.5 893 c 128,-1,10
 1215 766 1215 766 1215 601 c 2,11,-1
 1215 556 l 2,12,13
 1215 392 1215 392 1144.5 266.5 c 128,-1,14
 1074 141 1074 141 951.5 70.5 c 128,-1,15
 829 0 829 0 673 0 c 2,16,-1
 71 0 l 1,0,-1
519 221 m 1,17,-1
 673 221 l 2,18,19
 746 221 746 221 802.5 264 c 128,-1,20
 859 307 859 307 890.5 383 c 128,-1,21
 922 459 922 459 922 556 c 2,22,-1
 922 602 l 2,23,24
 922 700 922 700 890.5 777 c 128,-1,25
 859 854 859 854 802.5 898.5 c 128,-1,26
 746 943 746 943 673 943 c 2,27,-1
 519 943 l 1,28,-1
 519 221 l 1,17,-1
EndSplineSet
Substitution2: "'ss05' Style Set 5 in Latin lookup 27 subtable" d.sc.ss05
Substitution2: "'aalt' Access All Alternates in Latin lookup 0 subtable" d.sc.ss05
EndChar

StartChar: e.sc
Encoding: 65592 -1 421
Width: 1193
GlyphClass: 2
Flags: W
AnchorPoint: "Anchor-3" 1075 0 basechar 0
AnchorPoint: "Anchor-2" 597 0 basechar 0
AnchorPoint: "Anchor-0" 597 1082 basechar 0
LayerCount: 2
Fore
SplineSet
67 0 m 1,0,-1
 67 175 l 1,1,-1
 223 205 l 1,2,-1
 223 959 l 1,3,-1
 67 989 l 1,4,-1
 67 1165 l 1,5,-1
 1075 1165 l 1,6,-1
 1075 809 l 1,7,-1
 851 809 l 1,8,-1
 840 942 l 1,9,-1
 514 942 l 1,10,-1
 514 686 l 1,11,-1
 973 686 l 1,12,-1
 973 501 l 1,13,-1
 514 501 l 1,14,-1
 514 222 l 1,15,-1
 841 222 l 1,16,-1
 852 355 l 1,17,-1
 1075 355 l 1,18,-1
 1075 0 l 1,19,-1
 67 0 l 1,0,-1
EndSplineSet
EndChar

StartChar: f.sc
Encoding: 65610 -1 439
Width: 1159
GlyphClass: 2
Flags: W
AnchorPoint: "Anchor-2" 579 0 basechar 0
AnchorPoint: "Anchor-0" 579 1082 basechar 0
LayerCount: 2
Fore
SplineSet
67 0 m 1,0,-1
 67 175 l 1,1,-1
 223 205 l 1,2,-1
 223 959 l 1,3,-1
 67 989 l 1,4,-1
 67 1165 l 1,5,-1
 1096 1165 l 1,6,-1
 1096 796 l 1,7,-1
 873 796 l 1,8,-1
 861 942 l 1,9,-1
 514 942 l 1,10,-1
 514 666 l 1,11,-1
 994 666 l 1,12,-1
 994 455 l 1,13,-1
 514 455 l 1,14,-1
 514 205 l 1,15,-1
 670 175 l 1,16,-1
 670 0 l 1,17,-1
 67 0 l 1,0,-1
EndSplineSet
EndChar

StartChar: g.sc
Encoding: 65611 -1 440
Width: 1223
GlyphClass: 2
Flags: W
AnchorPoint: "Anchor-2" 613 0 basechar 0
AnchorPoint: "Anchor-0" 617 1082 basechar 0
LayerCount: 2
Fore
SplineSet
651 -17 m 0,0,1
 479 -17 479 -17 350 54.5 c 128,-1,2
 221 126 221 126 149.5 252.5 c 128,-1,3
 78 379 78 379 78 545 c 2,4,-1
 78 585 l 2,5,6
 78 761 78 761 147.5 895.5 c 128,-1,7
 217 1030 217 1030 342.5 1106 c 128,-1,8
 468 1182 468 1182 636 1182 c 0,9,10
 768 1182 768 1182 887.5 1146 c 128,-1,11
 1007 1110 1007 1110 1094 1033 c 1,12,-1
 1094 757 l 1,13,-1
 880 757 l 1,14,-1
 845 905 l 1,15,16
 814 932 814 932 765.5 947 c 128,-1,17
 717 962 717 962 655 962 c 0,18,19
 562 962 562 962 498 914.5 c 128,-1,20
 434 867 434 867 401.5 783 c 128,-1,21
 369 699 369 699 369 587 c 2,22,-1
 369 545 l 2,23,24
 369 440 369 440 402.5 362.5 c 128,-1,25
 436 285 436 285 502.5 243 c 128,-1,26
 569 201 569 201 665 201 c 0,27,28
 715 201 715 201 760 209 c 128,-1,29
 805 217 805 217 838 231 c 1,30,-1
 838 401 l 1,31,-1
 654 420 l 1,32,-1
 654 619 l 1,33,-1
 1126 619 l 1,34,-1
 1126 106 l 1,35,36
 1032 45 1032 45 912 14 c 128,-1,37
 792 -17 792 -17 651 -17 c 0,0,1
EndSplineSet
Substitution2: "'ss05' Style Set 5 in Latin lookup 27 subtable" g.sc.ss05
Substitution2: "'aalt' Access All Alternates in Latin lookup 0 subtable" g.sc.ss05
EndChar

StartChar: h.sc
Encoding: 65616 -1 445
Width: 1503
GlyphClass: 2
Flags: W
AnchorPoint: "Anchor-4" 751 826 basechar 0
AnchorPoint: "Anchor-2" 752 0 basechar 0
AnchorPoint: "Anchor-0" 752 1082 basechar 0
LayerCount: 2
Fore
SplineSet
71 0 m 1,0,-1
 71 175 l 1,1,-1
 227 205 l 1,2,-1
 227 959 l 1,3,-1
 71 989 l 1,4,-1
 71 1165 l 1,5,-1
 674 1165 l 1,6,-1
 674 989 l 1,7,-1
 518 959 l 1,8,-1
 518 682 l 1,9,-1
 985 682 l 1,10,-1
 985 959 l 1,11,-1
 829 989 l 1,12,-1
 829 1165 l 1,13,-1
 985 1165 l 1,14,-1
 1277 1165 l 1,15,-1
 1433 1165 l 1,16,-1
 1433 989 l 1,17,-1
 1277 959 l 1,18,-1
 1277 205 l 1,19,-1
 1433 175 l 1,20,-1
 1433 0 l 1,21,-1
 829 0 l 1,22,-1
 829 175 l 1,23,-1
 985 205 l 1,24,-1
 985 458 l 1,25,-1
 518 458 l 1,26,-1
 518 205 l 1,27,-1
 674 175 l 1,28,-1
 674 0 l 1,29,-1
 71 0 l 1,0,-1
EndSplineSet
EndChar

StartChar: i.sc
Encoding: 65619 -1 448
Width: 718
GlyphClass: 2
Flags: W
AnchorPoint: "Anchor-3" 670 0 basechar 0
AnchorPoint: "Anchor-2" 360 0 basechar 0
AnchorPoint: "Anchor-0" 360 1082 basechar 0
LayerCount: 2
Fore
SplineSet
67 0 m 1,0,-1
 67 175 l 1,1,-1
 223 205 l 1,2,-1
 223 959 l 1,3,-1
 67 989 l 1,4,-1
 67 1165 l 1,5,-1
 670 1165 l 1,6,-1
 670 989 l 1,7,-1
 515 959 l 1,8,-1
 515 205 l 1,9,-1
 670 175 l 1,10,-1
 670 0 l 1,11,-1
 67 0 l 1,0,-1
EndSplineSet
EndChar

StartChar: j.sc
Encoding: 65631 -1 460
Width: 1118
GlyphClass: 2
Flags: W
AnchorPoint: "Anchor-2" 542 0 basechar 0
AnchorPoint: "Anchor-0" 797 1082 basechar 0
LayerCount: 2
Fore
SplineSet
499 -19 m 0,0,1
 288 -19 288 -19 164 79 c 128,-1,2
 40 177 40 177 46 361 c 1,3,-1
 48 367 l 1,4,-1
 332 367 l 1,5,6
 332 285 332 285 378.5 244.5 c 128,-1,7
 425 204 425 204 496 204 c 0,8,9
 564 204 564 204 607.5 252.5 c 128,-1,10
 651 301 651 301 651 383 c 2,11,-1
 651 959 l 1,12,-1
 495 989 l 1,13,-1
 495 1165 l 1,14,-1
 1098 1165 l 1,15,-1
 1098 989 l 1,16,-1
 943 959 l 1,17,-1
 943 383 l 2,18,19
 943 261 943 261 886 170.5 c 128,-1,20
 829 80 829 80 729 30.5 c 128,-1,21
 629 -19 629 -19 499 -19 c 0,0,1
EndSplineSet
EndChar

StartChar: k.sc
Encoding: 65633 -1 462
Width: 1280
GlyphClass: 2
Flags: W
AnchorPoint: "Anchor-2" 645 0 basechar 0
AnchorPoint: "Anchor-0" 649 1082 basechar 0
LayerCount: 2
Fore
SplineSet
454 310 m 1,0,-1
 345 494 l 1,1,-1
 804 964 l 1,2,-1
 814 976 l 1,3,-1
 739 989 l 1,4,-1
 739 1165 l 1,5,-1
 1237 1165 l 1,6,-1
 1237 989 l 1,7,-1
 1124 959 l 1,8,-1
 454 310 l 1,0,-1
38 0 m 1,9,-1
 38 175 l 1,10,-1
 195 208 l 1,11,-1
 195 955 l 1,12,-1
 38 989 l 1,13,-1
 38 1165 l 1,14,-1
 610 1165 l 1,15,-1
 610 989 l 1,16,-1
 487 955 l 1,17,-1
 487 208 l 1,18,-1
 610 175 l 1,19,-1
 610 0 l 1,20,-1
 38 0 l 1,9,-1
769 0 m 1,21,-1
 769 175 l 1,22,-1
 834 187 l 1,23,-1
 827 196 l 1,24,-1
 606 555 l 1,25,-1
 798 750 l 1,26,-1
 1159 203 l 1,27,-1
 1267 175 l 1,28,-1
 1267 0 l 1,29,-1
 769 0 l 1,21,-1
EndSplineSet
Substitution2: "'ss05' Style Set 5 in Latin lookup 27 subtable" k.sc.ss05
Substitution2: "'aalt' Access All Alternates in Latin lookup 0 subtable" k.sc.ss05
EndChar

StartChar: l.sc
Encoding: 65635 -1 464
Width: 1098
GlyphClass: 2
Flags: W
AnchorPoint: "Anchor-4" 400 597 basechar 0
AnchorPoint: "Anchor-2" 550 0 basechar 0
AnchorPoint: "Anchor-1" 946 1165 basechar 0
AnchorPoint: "Anchor-0" 472 1082 basechar 0
LayerCount: 2
Fore
SplineSet
67 0 m 1,0,-1
 67 175 l 1,1,-1
 223 205 l 1,2,-1
 223 959 l 1,3,-1
 67 989 l 1,4,-1
 67 1165 l 1,5,-1
 223 1165 l 1,6,-1
 514 1165 l 1,7,-1
 670 1165 l 1,8,-1
 670 989 l 1,9,-1
 514 959 l 1,10,-1
 514 222 l 1,11,-1
 813 222 l 1,12,-1
 825 368 l 1,13,-1
 1047 368 l 1,14,-1
 1047 0 l 1,15,-1
 67 0 l 1,0,-1
EndSplineSet
EndChar

StartChar: m.sc
Encoding: 65641 -1 470
Width: 1723
GlyphClass: 2
Flags: W
AnchorPoint: "Anchor-2" 862 0 basechar 0
AnchorPoint: "Anchor-0" 862 1082 basechar 0
LayerCount: 2
Fore
SplineSet
67 0 m 1,0,-1
 67 175 l 1,1,-1
 223 205 l 1,2,-1
 223 959 l 1,3,-1
 67 989 l 1,4,-1
 67 1165 l 1,5,-1
 223 1165 l 1,6,-1
 615 1165 l 1,7,-1
 862 352 l 1,8,-1
 868 352 l 1,9,-1
 1118 1165 l 1,10,-1
 1509 1165 l 1,11,-1
 1665 1165 l 1,12,-1
 1665 989 l 1,13,-1
 1509 959 l 1,14,-1
 1509 205 l 1,15,-1
 1665 175 l 1,16,-1
 1665 0 l 1,17,-1
 1100 0 l 1,18,-1
 1100 175 l 1,19,-1
 1218 205 l 1,20,-1
 1218 721 l 1,21,-1
 1212 722 l 1,22,-1
 961 0 l 1,23,-1
 765 0 l 1,24,-1
 520 707 l 1,25,-1
 514 706 l 1,26,-1
 514 205 l 1,27,-1
 632 175 l 1,28,-1
 632 0 l 1,29,-1
 67 0 l 1,0,-1
EndSplineSet
EndChar

StartChar: n.sc
Encoding: 65643 -1 472
Width: 1460
GlyphClass: 2
Flags: W
AnchorPoint: "Anchor-2" 730 0 basechar 0
AnchorPoint: "Anchor-0" 730 1082 basechar 0
LayerCount: 2
Fore
SplineSet
67 0 m 1,0,-1
 67 175 l 1,1,-1
 223 205 l 1,2,-1
 223 959 l 1,3,-1
 67 989 l 1,4,-1
 67 1165 l 1,5,-1
 223 1165 l 1,6,-1
 514 1165 l 1,7,-1
 968 449 l 1,8,-1
 974 451 l 1,9,-1
 974 959 l 1,10,-1
 819 989 l 1,11,-1
 819 1165 l 1,12,-1
 1266 1165 l 1,13,-1
 1422 1165 l 1,14,-1
 1422 989 l 1,15,-1
 1266 959 l 1,16,-1
 1266 0 l 1,17,-1
 974 0 l 1,18,-1
 520 719 l 1,19,-1
 514 717 l 1,20,-1
 514 205 l 1,21,-1
 670 175 l 1,22,-1
 670 0 l 1,23,-1
 67 0 l 1,0,-1
EndSplineSet
EndChar

StartChar: eng.sc
Encoding: 65648 -1 477
Width: 1457
GlyphClass: 1
Flags: W
LayerCount: 2
Fore
SplineSet
899 -437 m 0,0,1
 858 -437 858 -437 825 -433 c 128,-1,2
 792 -429 792 -429 755 -420 c 1,3,-1
 769 -195 l 1,4,5
 792 -201 792 -201 816 -204.5 c 128,-1,6
 840 -208 840 -208 864 -208 c 0,7,8
 924 -208 924 -208 956.5 -164.5 c 128,-1,9
 989 -121 989 -121 989 -40 c 2,10,-1
 989 0 l 1,11,-1
 502 735 l 1,12,-1
 497 735 l 1,13,-1
 497 197 l 1,14,-1
 635 170 l 1,15,-1
 635 0 l 1,16,-1
 67 0 l 1,17,-1
 67 170 l 1,18,-1
 205 197 l 1,19,-1
 205 967 l 1,20,-1
 67 994 l 1,21,-1
 67 1165 l 1,22,-1
 497 1165 l 1,23,-1
 984 430 l 1,24,-1
 989 431 l 1,25,-1
 989 967 l 1,26,-1
 851 994 l 1,27,-1
 851 1165 l 1,28,-1
 1418 1165 l 1,29,-1
 1418 994 l 1,30,-1
 1281 967 l 1,31,-1
 1281 -51 l 2,32,33
 1278 -236 1278 -236 1177 -336.5 c 128,-1,34
 1076 -437 1076 -437 899 -437 c 0,0,1
EndSplineSet
EndChar

StartChar: o.sc
Encoding: 65649 -1 478
Width: 1242
GlyphClass: 2
Flags: W
AnchorPoint: "Anchor-4" 625 583 basechar 0
AnchorPoint: "Anchor-3" 974 0 basechar 0
AnchorPoint: "Anchor-2" 625 0 basechar 0
AnchorPoint: "Anchor-1" 1137 1082 basechar 0
AnchorPoint: "Anchor-0" 625 1082 basechar 0
LayerCount: 2
Fore
SplineSet
625 -19 m 0,0,1
 462 -19 462 -19 338 54 c 128,-1,2
 214 127 214 127 145 257 c 128,-1,3
 76 387 76 387 76 556 c 2,4,-1
 76 608 l 2,5,6
 76 777 76 777 145 906 c 128,-1,7
 214 1035 214 1035 337.5 1108 c 128,-1,8
 461 1181 461 1181 624 1181 c 256,9,10
 787 1181 787 1181 911 1108 c 128,-1,11
 1035 1035 1035 1035 1104.5 906 c 128,-1,12
 1174 777 1174 777 1174 608 c 2,13,-1
 1174 556 l 2,14,15
 1174 386 1174 386 1105 256 c 128,-1,16
 1036 126 1036 126 912.5 53.5 c 128,-1,17
 789 -19 789 -19 625 -19 c 0,0,1
625 204 m 0,18,19
 706 204 706 204 763.5 250 c 128,-1,20
 821 296 821 296 851.5 375.5 c 128,-1,21
 882 455 882 455 882 556 c 2,22,-1
 882 609 l 2,23,24
 882 710 882 710 851 789 c 128,-1,25
 820 868 820 868 762.5 913 c 128,-1,26
 705 958 705 958 624 958 c 0,27,28
 542 958 542 958 484 913 c 128,-1,29
 426 868 426 868 396.5 789.5 c 128,-1,30
 367 711 367 711 367 609 c 2,31,-1
 367 556 l 2,32,33
 367 455 367 455 397 375.5 c 128,-1,34
 427 296 427 296 485 250 c 128,-1,35
 543 204 543 204 625 204 c 0,18,19
EndSplineSet
Substitution2: "'ss05' Style Set 5 in Latin lookup 27 subtable" o.sc.ss05
Substitution2: "'aalt' Access All Alternates in Latin lookup 0 subtable" o.sc.ss05
EndChar

StartChar: oe.sc
Encoding: 65673 -1 502
Width: 1778
GlyphClass: 2
Flags: W
AnchorPoint: "Anchor-2" 918 0 basechar 0
AnchorPoint: "Anchor-0" 918 1165 basechar 0
LayerCount: 2
Fore
SplineSet
664 -17 m 0,0,1
 476 -17 476 -17 344.5 60.5 c 128,-1,2
 213 138 213 138 144.5 272 c 128,-1,3
 76 406 76 406 76 574 c 2,4,-1
 76 592 l 2,5,6
 76 759 76 759 144 892.5 c 128,-1,7
 212 1026 212 1026 343.5 1104 c 128,-1,8
 475 1182 475 1182 663 1182 c 0,9,10
 804 1182 804 1182 939 1142 c 1,11,-1
 940 866 l 1,12,13
 882 911 882 911 810.5 935 c 128,-1,14
 739 959 739 959 663 959 c 0,15,16
 559 959 559 959 494 913.5 c 128,-1,17
 429 868 429 868 398.5 786 c 128,-1,18
 368 704 368 704 368 594 c 2,19,-1
 368 574 l 2,20,21
 368 464 368 464 399 381 c 128,-1,22
 430 298 430 298 495.5 252 c 128,-1,23
 561 206 561 206 664 206 c 0,24,25
 738 206 738 206 809 227.5 c 128,-1,26
 880 249 880 249 940 288 c 1,27,-1
 939 23 l 1,28,29
 873 4 873 4 803.5 -6.5 c 128,-1,30
 734 -17 734 -17 664 -17 c 0,0,1
749 0 m 1,31,-1
 807 179 l 1,32,-1
 807 985 l 1,33,-1
 749 1165 l 1,34,-1
 1658 1165 l 1,35,-1
 1658 829 l 1,36,-1
 1441 829 l 1,37,-1
 1431 943 l 1,38,-1
 1099 943 l 1,39,-1
 1099 706 l 1,40,-1
 1479 706 l 1,41,-1
 1479 483 l 1,42,-1
 1099 483 l 1,43,-1
 1099 221 l 1,44,-1
 1431 221 l 1,45,-1
 1442 334 l 1,46,-1
 1656 334 l 1,47,-1
 1656 0 l 1,48,-1
 749 0 l 1,31,-1
EndSplineSet
EndChar

StartChar: p.sc
Encoding: 65674 -1 503
Width: 1252
GlyphClass: 2
Flags: W
AnchorPoint: "Anchor-2" 377 0 basechar 0
AnchorPoint: "Anchor-0" 639 1082 basechar 0
LayerCount: 2
Fore
SplineSet
71 0 m 1,0,-1
 71 175 l 1,1,-1
 227 205 l 1,2,-1
 227 959 l 1,3,-1
 71 989 l 1,4,-1
 71 1165 l 1,5,-1
 227 1165 l 1,6,-1
 730 1165 l 2,7,8
 878 1165 878 1165 988.5 1113.5 c 128,-1,9
 1099 1062 1099 1062 1160 972 c 128,-1,10
 1221 882 1221 882 1221 765 c 0,11,12
 1221 647 1221 647 1160 557 c 128,-1,13
 1099 467 1099 467 988.5 416 c 128,-1,14
 878 365 878 365 730 365 c 2,15,-1
 518 365 l 1,16,-1
 518 205 l 1,17,-1
 674 175 l 1,18,-1
 674 0 l 1,19,-1
 71 0 l 1,0,-1
518 589 m 1,20,-1
 730 589 l 2,21,22
 823 589 823 589 876.5 640 c 128,-1,23
 930 691 930 691 930 763 c 0,24,25
 930 836 930 836 876 889 c 128,-1,26
 822 942 822 942 730 942 c 2,27,-1
 518 942 l 1,28,-1
 518 589 l 1,20,-1
EndSplineSet
EndChar

StartChar: thorn.sc
Encoding: 65675 -1 504
Width: 1143
GlyphClass: 2
Flags: W
AnchorPoint: "Anchor-2" 373 0 basechar 0
AnchorPoint: "Anchor-0" 373 1082 basechar 0
LayerCount: 2
Fore
SplineSet
71 0 m 1,0,-1
 71 175 l 1,1,-1
 227 205 l 1,2,-1
 227 959 l 1,3,-1
 71 989 l 1,4,-1
 71 1165 l 1,5,-1
 674 1165 l 1,6,-1
 674 989 l 1,7,-1
 518 959 l 1,8,-1
 518 205 l 1,9,-1
 674 175 l 1,10,-1
 674 0 l 1,11,-1
 71 0 l 1,0,-1
433 902 m 1,12,-1
 722 902 l 2,13,14
 920 902 920 902 1029 815 c 128,-1,15
 1138 728 1138 728 1138 585 c 0,16,17
 1138 441 1138 441 1029 354 c 128,-1,18
 920 267 920 267 722 267 c 2,19,-1
 433 267 l 1,20,-1
 433 470 l 1,21,-1
 722 470 l 2,22,23
 784 470 784 470 819 503 c 128,-1,24
 854 536 854 536 854 583 c 0,25,26
 854 631 854 631 818.5 666 c 128,-1,27
 783 701 783 701 722 701 c 2,28,-1
 433 701 l 1,29,-1
 433 902 l 1,12,-1
EndSplineSet
EndChar

StartChar: q.sc
Encoding: 65676 -1 505
Width: 1241
GlyphClass: 2
Flags: W
AnchorPoint: "Anchor-2" 620 0 basechar 0
AnchorPoint: "Anchor-0" 620 1082 basechar 0
LayerCount: 2
Fore
SplineSet
985 -223 m 1,0,-1
 702 -13 l 1,1,2
 681 -15 681 -15 660.5 -16.5 c 128,-1,3
 640 -18 640 -18 619 -18 c 0,4,5
 459 -18 459 -18 336.5 55 c 128,-1,6
 214 128 214 128 145 258 c 128,-1,7
 76 388 76 388 76 560 c 2,8,-1
 76 604 l 2,9,10
 76 776 76 776 144.5 905.5 c 128,-1,11
 213 1035 213 1035 335 1108 c 128,-1,12
 457 1181 457 1181 618 1181 c 256,13,14
 779 1181 779 1181 901.5 1108 c 128,-1,15
 1024 1035 1024 1035 1093 905.5 c 128,-1,16
 1162 776 1162 776 1162 604 c 2,17,-1
 1162 560 l 2,18,19
 1162 404 1162 404 1101 281.5 c 128,-1,20
 1040 159 1040 159 931 86 c 1,21,-1
 1180 -69 l 1,22,-1
 985 -223 l 1,0,-1
619 203 m 0,23,24
 737 203 737 203 803.5 300 c 128,-1,25
 870 397 870 397 870 560 c 2,26,-1
 870 605 l 2,27,28
 870 767 870 767 803 863 c 128,-1,29
 736 959 736 959 618 959 c 0,30,31
 497 959 497 959 432 863.5 c 128,-1,32
 367 768 367 768 367 605 c 2,33,-1
 367 560 l 2,34,35
 367 396 367 396 432.5 299.5 c 128,-1,36
 498 203 498 203 619 203 c 0,23,24
EndSplineSet
Substitution2: "'ss05' Style Set 5 in Latin lookup 27 subtable" q.sc.ss05
Substitution2: "'aalt' Access All Alternates in Latin lookup 0 subtable" q.sc.ss05
EndChar

StartChar: r.sc
Encoding: 65677 -1 506
Width: 1206
GlyphClass: 2
Flags: W
AnchorPoint: "Anchor-2" 604 0 basechar 0
AnchorPoint: "Anchor-0" 604 1082 basechar 0
LayerCount: 2
Fore
SplineSet
39 0 m 1,0,-1
 39 175 l 1,1,-1
 190 208 l 1,2,-1
 190 955 l 1,3,-1
 39 989 l 1,4,-1
 39 1165 l 1,5,-1
 190 1165 l 1,6,-1
 656 1165 l 2,7,8
 800 1165 800 1165 905 1120 c 128,-1,9
 1010 1075 1010 1075 1067 992.5 c 128,-1,10
 1124 910 1124 910 1124 796 c 0,11,12
 1124 687 1124 687 1065 603.5 c 128,-1,13
 1006 520 1006 520 900.5 473.5 c 128,-1,14
 795 427 795 427 655 427 c 2,15,-1
 482 427 l 1,16,-1
 482 208 l 1,17,-1
 629 175 l 1,18,-1
 629 0 l 1,19,-1
 39 0 l 1,0,-1
844 0 m 1,20,-1
 625 540 l 1,21,-1
 912 541 l 1,22,-1
 1070 197 l 1,23,-1
 1165 175 l 1,24,-1
 1165 0 l 1,25,-1
 844 0 l 1,20,-1
480 644 m 1,26,-1
 654 644 l 2,27,28
 738 644 738 644 783.5 684 c 128,-1,29
 829 724 829 724 829 790 c 0,30,31
 829 860 829 860 783 901.5 c 128,-1,32
 737 943 737 943 654 943 c 2,33,-1
 480 943 l 1,34,-1
 480 644 l 1,26,-1
EndSplineSet
Substitution2: "'ss05' Style Set 5 in Latin lookup 27 subtable" r.sc.ss05
Substitution2: "'aalt' Access All Alternates in Latin lookup 0 subtable" r.sc.ss05
EndChar

StartChar: s.sc
Encoding: 65681 -1 510
Width: 1116
GlyphClass: 2
Flags: W
AnchorPoint: "Anchor-2" 558 0 basechar 0
AnchorPoint: "Anchor-0" 558 1082 basechar 0
LayerCount: 2
Fore
SplineSet
570 -17 m 0,0,1
 425 -17 425 -17 310 10.5 c 128,-1,2
 195 38 195 38 83 113 c 1,3,-1
 83 420 l 1,4,-1
 307 420 l 1,5,-1
 337 263 l 1,6,7
 378 233 378 233 439 216.5 c 128,-1,8
 500 200 500 200 569 200 c 0,9,10
 660 200 660 200 702.5 232 c 128,-1,11
 745 264 745 264 745 317 c 0,12,13
 745 373 745 373 700.5 405 c 128,-1,14
 656 437 656 437 549 463 c 0,15,16
 391 501 391 501 289.5 550.5 c 128,-1,17
 188 600 188 600 139 670 c 128,-1,18
 90 740 90 740 90 838 c 0,19,20
 90 943 90 943 149 1019.5 c 128,-1,21
 208 1096 208 1096 310.5 1138 c 128,-1,22
 413 1180 413 1180 546 1182 c 0,23,24
 696 1185 696 1185 808.5 1154.5 c 128,-1,25
 921 1124 921 1124 1010 1057 c 1,26,-1
 1010 772 l 1,27,-1
 793 772 l 1,28,-1
 755 929 l 1,29,30
 724 942 724 942 675.5 951.5 c 128,-1,31
 627 961 627 961 568 961 c 0,32,33
 483 961 483 961 432.5 931 c 128,-1,34
 382 901 382 901 382 849 c 0,35,36
 382 815 382 815 406.5 789 c 128,-1,37
 431 763 431 763 483.5 741.5 c 128,-1,38
 536 720 536 720 619 697 c 0,39,40
 826 642 826 642 932.5 555.5 c 128,-1,41
 1039 469 1039 469 1039 320 c 0,42,43
 1039 212 1039 212 980.5 137 c 128,-1,44
 922 62 922 62 817 22.5 c 128,-1,45
 712 -17 712 -17 570 -17 c 0,0,1
EndSplineSet
Substitution2: "'ss05' Style Set 5 in Latin lookup 27 subtable" s.sc.ss05
Substitution2: "'aalt' Access All Alternates in Latin lookup 0 subtable" s.sc.ss05
EndChar

StartChar: t.sc
Encoding: 65688 -1 517
Width: 1239
GlyphClass: 2
Flags: W
AnchorPoint: "Anchor-4" 617 573 basechar 0
AnchorPoint: "Anchor-2" 617 0 basechar 0
AnchorPoint: "Anchor-0" 617 1082 basechar 0
LayerCount: 2
Fore
SplineSet
313 0 m 1,0,-1
 313 175 l 1,1,-1
 468 205 l 1,2,-1
 468 942 l 1,3,-1
 283 942 l 1,4,-1
 272 794 l 1,5,-1
 48 794 l 1,6,-1
 48 1165 l 1,7,-1
 1185 1165 l 1,8,-1
 1185 794 l 1,9,-1
 962 794 l 1,10,-1
 949 942 l 1,11,-1
 760 942 l 1,12,-1
 760 205 l 1,13,-1
 915 175 l 1,14,-1
 915 0 l 1,15,-1
 313 0 l 1,0,-1
EndSplineSet
EndChar

StartChar: u.sc
Encoding: 65692 -1 521
Width: 1346
GlyphClass: 2
Flags: W
AnchorPoint: "Anchor-3" 836 0 basechar 0
AnchorPoint: "Anchor-2" 673 0 basechar 0
AnchorPoint: "Anchor-1" 1325 1082 basechar 0
AnchorPoint: "Anchor-0" 673 1082 basechar 0
LayerCount: 2
Fore
SplineSet
676 -19 m 256,0,1
 518 -19 518 -19 400.5 32.5 c 128,-1,2
 283 84 283 84 218.5 181 c 128,-1,3
 154 278 154 278 154 413 c 2,4,-1
 154 959 l 1,5,-1
 29 989 l 1,6,-1
 29 1165 l 1,7,-1
 601 1165 l 1,8,-1
 601 989 l 1,9,-1
 445 959 l 1,10,-1
 445 413 l 2,11,12
 445 344 445 344 471.5 298 c 128,-1,13
 498 252 498 252 550 228 c 128,-1,14
 602 204 602 204 676 204 c 0,15,16
 751 204 751 204 801.5 227.5 c 128,-1,17
 852 251 852 251 878 297.5 c 128,-1,18
 904 344 904 344 904 413 c 2,19,-1
 904 959 l 1,20,-1
 748 989 l 1,21,-1
 748 1165 l 1,22,-1
 1322 1165 l 1,23,-1
 1322 989 l 1,24,-1
 1196 959 l 1,25,-1
 1196 413 l 2,26,27
 1196 277 1196 277 1131.5 180.5 c 128,-1,28
 1067 84 1067 84 950.5 32.5 c 128,-1,29
 834 -19 834 -19 676 -19 c 256,0,1
EndSplineSet
EndChar

StartChar: uhorn.sc
Encoding: 65700 -1 529
Width: 1506
GlyphClass: 2
Flags: W
AnchorPoint: "Anchor-2" 673 0 basechar 0
AnchorPoint: "Anchor-0" 673 1082 basechar 0
LayerCount: 2
Fore
SplineSet
676 -19 m 256,0,1
 518 -19 518 -19 400.5 32.5 c 128,-1,2
 283 84 283 84 218.5 181 c 128,-1,3
 154 278 154 278 154 413 c 2,4,-1
 154 959 l 1,5,-1
 29 989 l 1,6,-1
 29 1165 l 1,7,-1
 601 1165 l 1,8,-1
 601 989 l 1,9,-1
 445 959 l 1,10,-1
 445 413 l 2,11,12
 445 344 445 344 471.5 298 c 128,-1,13
 498 252 498 252 550 228 c 128,-1,14
 602 204 602 204 676 204 c 0,15,16
 751 204 751 204 801.5 227.5 c 128,-1,17
 852 251 852 251 878 297.5 c 128,-1,18
 904 344 904 344 904 413 c 2,19,-1
 904 959 l 1,20,-1
 748 989 l 1,21,-1
 748 1165 l 1,22,-1
 1196 1165 l 1,23,-1
 1196 413 l 2,24,25
 1196 277 1196 277 1131.5 180.5 c 128,-1,26
 1067 84 1067 84 950.5 32.5 c 128,-1,27
 834 -19 834 -19 676 -19 c 256,0,1
1158 809 m 1,28,-1
 1158 949 l 1,29,30
 1220 949 1220 949 1252.5 978.5 c 128,-1,31
 1285 1008 1285 1008 1297.5 1061.5 c 128,-1,32
 1310 1115 1310 1115 1310 1185 c 1,33,-1
 1508 1185 l 1,34,35
 1508 1075 1508 1075 1473.5 990 c 128,-1,36
 1439 905 1439 905 1362.5 857 c 128,-1,37
 1286 809 1286 809 1158 809 c 1,28,-1
EndSplineSet
EndChar

StartChar: v.sc
Encoding: 65711 -1 540
Width: 1311
GlyphClass: 2
Flags: W
AnchorPoint: "Anchor-2" 656 0 basechar 0
AnchorPoint: "Anchor-0" 656 1082 basechar 0
LayerCount: 2
Fore
SplineSet
504 0 m 1,0,-1
 146 973 l 1,1,-1
 31 989 l 1,2,-1
 31 1165 l 1,3,-1
 542 1165 l 1,4,-1
 542 989 l 1,5,-1
 444 970 l 1,6,-1
 649 312 l 1,7,-1
 658 274 l 1,8,-1
 664 274 l 1,9,-1
 672 307 l 1,10,-1
 880 970 l 1,11,-1
 782 989 l 1,12,-1
 782 1165 l 1,13,-1
 1293 1165 l 1,14,-1
 1293 989 l 1,15,-1
 1177 973 l 1,16,-1
 820 0 l 1,17,-1
 504 0 l 1,0,-1
EndSplineSet
EndChar

StartChar: w.sc
Encoding: 65712 -1 541
Width: 1811
GlyphClass: 2
Flags: W
AnchorPoint: "Anchor-2" 906 0 basechar 0
AnchorPoint: "Anchor-0" 906 1114 basechar 0
LayerCount: 2
Fore
SplineSet
397 0 m 1,0,-1
 120 976 l 1,1,-1
 33 989 l 1,2,-1
 33 1165 l 1,3,-1
 528 1165 l 1,4,-1
 528 989 l 1,5,-1
 413 966 l 1,6,-1
 531 490 l 1,7,-1
 549 412 l 1,8,-1
 555 413 l 1,9,-1
 577 493 l 1,10,-1
 782 1165 l 1,11,-1
 1028 1165 l 1,12,-1
 1232 489 l 1,13,-1
 1252 412 l 1,14,-1
 1257 413 l 1,15,-1
 1275 494 l 1,16,-1
 1393 966 l 1,17,-1
 1280 989 l 1,18,-1
 1280 1165 l 1,19,-1
 1774 1165 l 1,20,-1
 1774 989 l 1,21,-1
 1687 976 l 1,22,-1
 1413 0 l 1,23,-1
 1128 0 l 1,24,-1
 928 661 l 1,25,-1
 906 736 l 1,26,-1
 900 736 l 1,27,-1
 877 662 l 1,28,-1
 680 0 l 1,29,-1
 397 0 l 1,0,-1
EndSplineSet
EndChar

StartChar: x.sc
Encoding: 65717 -1 546
Width: 1245
GlyphClass: 2
Flags: W
AnchorPoint: "Anchor-2" 622 0 basechar 0
AnchorPoint: "Anchor-0" 622 1082 basechar 0
LayerCount: 2
Fore
SplineSet
31 0 m 1,0,-1
 31 175 l 1,1,-1
 156 197 l 1,2,-1
 424 588 l 1,3,-1
 160 966 l 1,4,-1
 33 989 l 1,5,-1
 33 1165 l 1,6,-1
 537 1165 l 1,7,-1
 537 1002 l 1,8,-1
 476 992 l 1,9,-1
 617 767 l 1,10,-1
 760 992 l 1,11,-1
 701 1002 l 1,12,-1
 701 1165 l 1,13,-1
 1207 1165 l 1,14,-1
 1207 989 l 1,15,-1
 1080 966 l 1,16,-1
 816 588 l 1,17,-1
 1083 197 l 1,18,-1
 1208 175 l 1,19,-1
 1208 0 l 1,20,-1
 704 0 l 1,21,-1
 704 162 l 1,22,-1
 766 172 l 1,23,-1
 620 406 l 1,24,-1
 475 172 l 1,25,-1
 537 162 l 1,26,-1
 537 0 l 1,27,-1
 31 0 l 1,0,-1
EndSplineSet
EndChar

StartChar: y.sc
Encoding: 65718 -1 547
Width: 1212
GlyphClass: 2
Flags: W
AnchorPoint: "Anchor-2" 607 0 basechar 0
AnchorPoint: "Anchor-0" 607 1082 basechar 0
LayerCount: 2
Fore
SplineSet
300 0 m 1,0,-1
 300 175 l 1,1,-1
 455 205 l 1,2,-1
 455 420 l 1,3,-1
 165 968 l 1,4,-1
 23 989 l 1,5,-1
 23 1165 l 1,6,-1
 533 1165 l 1,7,-1
 533 989 l 1,8,-1
 463 975 l 1,9,-1
 587 703 l 1,10,-1
 601 664 l 1,11,-1
 607 665 l 1,12,-1
 619 703 l 1,13,-1
 746 975 l 1,14,-1
 675 989 l 1,15,-1
 675 1165 l 1,16,-1
 1185 1165 l 1,17,-1
 1185 989 l 1,18,-1
 1043 968 l 1,19,-1
 747 409 l 1,20,-1
 747 205 l 1,21,-1
 902 175 l 1,22,-1
 902 0 l 1,23,-1
 300 0 l 1,0,-1
EndSplineSet
EndChar

StartChar: z.sc
Encoding: 65726 -1 555
Width: 1127
GlyphClass: 2
Flags: W
AnchorPoint: "Anchor-2" 564 0 basechar 0
AnchorPoint: "Anchor-0" 564 1082 basechar 0
LayerCount: 2
Fore
SplineSet
79 0 m 1,0,-1
 79 122 l 1,1,-1
 651 942 l 1,2,-1
 347 942 l 1,3,-1
 336 796 l 1,4,-1
 113 796 l 1,5,-1
 113 1165 l 1,6,-1
 1029 1165 l 1,7,-1
 1029 1048 l 1,8,-1
 454 222 l 1,9,-1
 802 222 l 1,10,-1
 814 368 l 1,11,-1
 1036 368 l 1,12,-1
 1036 0 l 1,13,-1
 79 0 l 1,0,-1
EndSplineSet
EndChar

StartChar: c.sc.ss05
Encoding: 65730 -1 559
Width: 1155
GlyphClass: 1
Flags: W
LayerCount: 2
Fore
SplineSet
607 -17 m 0,0,1
 455 -17 455 -17 340.5 46 c 128,-1,2
 226 109 226 109 162.5 224.5 c 128,-1,3
 99 340 99 340 99 496 c 2,4,-1
 99 661 l 2,5,6
 99 819 99 819 162.5 936 c 128,-1,7
 226 1053 226 1053 340 1117 c 128,-1,8
 454 1181 454 1181 607 1181 c 0,9,10
 824 1181 824 1181 949.5 1077 c 128,-1,11
 1075 973 1075 973 1081 775 c 1,12,-1
 1079 769 l 1,13,-1
 797 769 l 1,14,15
 785 865 785 865 740 911.5 c 128,-1,16
 695 958 695 958 607 958 c 0,17,18
 502 958 502 958 446 878.5 c 128,-1,19
 390 799 390 799 390 662 c 2,20,-1
 390 496 l 2,21,22
 390 362 390 362 446.5 283.5 c 128,-1,23
 503 205 503 205 607 205 c 0,24,25
 671 205 671 205 709 224 c 128,-1,26
 747 243 747 243 767 285 c 128,-1,27
 787 327 787 327 795 397 c 1,28,-1
 1077 397 l 1,29,-1
 1079 391 l 1,30,31
 1075 258 1075 258 1017 167 c 128,-1,32
 959 76 959 76 855 29.5 c 128,-1,33
 751 -17 751 -17 607 -17 c 0,0,1
EndSplineSet
EndChar

StartChar: d.sc.ss05
Encoding: 65731 -1 560
Width: 1265
GlyphClass: 1
Flags: W
LayerCount: 2
Fore
SplineSet
43 0 m 1,0,-1
 43 175 l 1,1,-1
 199 205 l 1,2,-1
 199 959 l 1,3,-1
 43 989 l 1,4,-1
 43 1165 l 1,5,-1
 199 1165 l 1,6,-1
 657 1165 l 2,7,8
 807 1165 807 1165 924.5 1104 c 128,-1,9
 1042 1043 1042 1043 1109 935.5 c 128,-1,10
 1176 828 1176 828 1176 687 c 2,11,-1
 1176 477 l 2,12,13
 1176 336 1176 336 1109 228.5 c 128,-1,14
 1042 121 1042 121 924.5 60.5 c 128,-1,15
 807 0 807 0 657 0 c 2,16,-1
 43 0 l 1,0,-1
490 222 m 1,17,-1
 657 222 l 2,18,19
 724 222 724 222 775.5 254.5 c 128,-1,20
 827 287 827 287 855.5 345 c 128,-1,21
 884 403 884 403 884 477 c 2,22,-1
 884 688 l 2,23,24
 884 762 884 762 855.5 819.5 c 128,-1,25
 827 877 827 877 775.5 909.5 c 128,-1,26
 724 942 724 942 657 942 c 2,27,-1
 490 942 l 1,28,-1
 490 222 l 1,17,-1
EndSplineSet
EndChar

StartChar: g.sc.ss05
Encoding: 65732 -1 561
Width: 1236
GlyphClass: 1
Flags: W
LayerCount: 2
Fore
SplineSet
637 -17 m 0,0,1
 478 -17 478 -17 356.5 47 c 128,-1,2
 235 111 235 111 167 225 c 128,-1,3
 99 339 99 339 99 489 c 2,4,-1
 99 675 l 2,5,6
 99 824 99 824 165.5 938 c 128,-1,7
 232 1052 232 1052 349 1116.5 c 128,-1,8
 466 1181 466 1181 618 1181 c 0,9,10
 846 1181 846 1181 974.5 1083.5 c 128,-1,11
 1103 986 1103 986 1115 806 c 1,12,-1
 1114 800 l 1,13,-1
 831 800 l 1,14,15
 819 882 819 882 767.5 920 c 128,-1,16
 716 958 716 958 618 958 c 0,17,18
 548 958 548 958 496.5 922 c 128,-1,19
 445 886 445 886 417.5 822.5 c 128,-1,20
 390 759 390 759 390 676 c 2,21,-1
 390 489 l 2,22,23
 390 406 390 406 419.5 342 c 128,-1,24
 449 278 449 278 505 241.5 c 128,-1,25
 561 205 561 205 637 205 c 0,26,27
 724 205 724 205 773 217 c 128,-1,28
 822 229 822 229 852 250 c 1,29,-1
 852 431 l 1,30,-1
 634 431 l 1,31,-1
 634 624 l 1,32,-1
 1144 624 l 1,33,-1
 1144 161 l 1,34,35
 1077 86 1077 86 954.5 34.5 c 128,-1,36
 832 -17 832 -17 637 -17 c 0,0,1
EndSplineSet
EndChar

StartChar: k.sc.ss05
Encoding: 65733 -1 562
Width: 1280
GlyphClass: 1
Flags: W
LayerCount: 2
Fore
SplineSet
44 0 m 1,0,-1
 44 175 l 1,1,-1
 200 205 l 1,2,-1
 200 959 l 1,3,-1
 44 989 l 1,4,-1
 44 1165 l 1,5,-1
 607 1165 l 1,6,-1
 607 989 l 1,7,-1
 491 959 l 1,8,-1
 491 694 l 1,9,-1
 585 694 l 1,10,-1
 758 963 l 1,11,-1
 767 978 l 1,12,-1
 696 989 l 1,13,-1
 696 1165 l 1,14,-1
 1207 1165 l 1,15,-1
 1207 989 l 1,16,-1
 1090 963 l 1,17,-1
 837 627 l 1,18,-1
 1123 198 l 1,19,-1
 1229 175 l 1,20,-1
 1229 0 l 1,21,-1
 712 0 l 1,22,-1
 712 175 l 1,23,-1
 779 185 l 1,24,-1
 771 196 l 1,25,-1
 603 459 l 1,26,-1
 491 459 l 1,27,-1
 491 205 l 1,28,-1
 607 175 l 1,29,-1
 607 0 l 1,30,-1
 44 0 l 1,0,-1
EndSplineSet
EndChar

StartChar: o.sc.ss05
Encoding: 65734 -1 563
Width: 1231
GlyphClass: 1
Flags: W
LayerCount: 2
Fore
SplineSet
626 -19 m 256,0,1
 471 -19 471 -19 352 46.5 c 128,-1,2
 233 112 233 112 166.5 228 c 128,-1,3
 100 344 100 344 100 496 c 2,4,-1
 100 668 l 2,5,6
 100 820 100 820 166.5 935.5 c 128,-1,7
 233 1051 233 1051 351.5 1116 c 128,-1,8
 470 1181 470 1181 625 1181 c 256,9,10
 780 1181 780 1181 898.5 1116 c 128,-1,11
 1017 1051 1017 1051 1084 935.5 c 128,-1,12
 1151 820 1151 820 1151 668 c 2,13,-1
 1151 496 l 2,14,15
 1151 344 1151 344 1084.5 228 c 128,-1,16
 1018 112 1018 112 899.5 46.5 c 128,-1,17
 781 -19 781 -19 626 -19 c 256,0,1
626 204 m 0,18,19
 734 204 734 204 796.5 286 c 128,-1,20
 859 368 859 368 859 496 c 2,21,-1
 859 669 l 2,22,23
 859 796 859 796 796 877 c 128,-1,24
 733 958 733 958 625 958 c 0,25,26
 514 958 514 958 452.5 877.5 c 128,-1,27
 391 797 391 797 391 669 c 2,28,-1
 391 496 l 2,29,30
 391 368 391 368 453 286 c 128,-1,31
 515 204 515 204 626 204 c 0,18,19
EndSplineSet
EndChar

StartChar: q.sc.ss05
Encoding: 65735 -1 564
Width: 1237
GlyphClass: 1
Flags: W
LayerCount: 2
Fore
SplineSet
1005 -213 m 1,0,-1
 730 -9 l 1,1,2
 701 -13 701 -13 672.5 -16 c 128,-1,3
 644 -19 644 -19 616 -19 c 0,4,5
 461 -19 461 -19 342 46.5 c 128,-1,6
 223 112 223 112 156.5 228 c 128,-1,7
 90 344 90 344 90 496 c 2,8,-1
 90 668 l 2,9,10
 90 820 90 820 156.5 935.5 c 128,-1,11
 223 1051 223 1051 341.5 1116 c 128,-1,12
 460 1181 460 1181 615 1181 c 256,13,14
 770 1181 770 1181 888.5 1116 c 128,-1,15
 1007 1051 1007 1051 1074 935.5 c 128,-1,16
 1141 820 1141 820 1141 668 c 2,17,-1
 1141 496 l 2,18,19
 1141 369 1141 369 1093.5 266 c 128,-1,20
 1046 163 1046 163 960 94 c 1,21,-1
 1194 -68 l 1,22,-1
 1005 -213 l 1,0,-1
616 204 m 0,23,24
 724 204 724 204 787 286 c 128,-1,25
 850 368 850 368 850 496 c 2,26,-1
 850 669 l 2,27,28
 850 796 850 796 786.5 877 c 128,-1,29
 723 958 723 958 615 958 c 0,30,31
 504 958 504 958 443 877.5 c 128,-1,32
 382 797 382 797 382 669 c 2,33,-1
 382 496 l 2,34,35
 382 367 382 367 444 285.5 c 128,-1,36
 506 204 506 204 616 204 c 0,23,24
EndSplineSet
EndChar

StartChar: r.sc.ss05
Encoding: 65736 -1 565
Width: 1254
GlyphClass: 1
Flags: W
LayerCount: 2
Fore
SplineSet
36 0 m 1,0,-1
 36 175 l 1,1,-1
 184 205 l 1,2,-1
 184 959 l 1,3,-1
 36 989 l 1,4,-1
 36 1165 l 1,5,-1
 184 1165 l 1,6,-1
 646 1165 l 2,7,8
 790 1165 790 1165 895.5 1122 c 128,-1,9
 1001 1079 1001 1079 1058.5 1000 c 128,-1,10
 1116 921 1116 921 1116 812 c 0,11,12
 1116 716 1116 716 1064 646 c 128,-1,13
 1012 576 1012 576 912 533 c 1,14,15
 1019 503 1019 503 1066.5 431 c 128,-1,16
 1114 359 1114 359 1114 255 c 2,17,-1
 1114 223 l 2,18,19
 1114 216 1114 216 1114 208 c 128,-1,20
 1114 200 1114 200 1114 192 c 1,21,-1
 1205 175 l 1,22,-1
 1205 0 l 1,23,-1
 885 0 l 1,24,25
 845 19 845 19 834 71 c 128,-1,26
 823 123 823 123 823 173 c 2,27,-1
 823 254 l 2,28,29
 823 334 823 334 780 376 c 128,-1,30
 737 418 737 418 655 418 c 2,31,-1
 476 418 l 1,32,-1
 476 205 l 1,33,-1
 631 175 l 1,34,-1
 631 0 l 1,35,-1
 36 0 l 1,0,-1
476 642 m 1,36,-1
 646 642 l 2,37,38
 731 642 731 642 777 682 c 128,-1,39
 823 722 823 722 823 791 c 0,40,41
 823 856 823 856 776 899 c 128,-1,42
 729 942 729 942 646 942 c 2,43,-1
 476 942 l 1,44,-1
 476 642 l 1,36,-1
EndSplineSet
EndChar

StartChar: s.sc.ss05
Encoding: 65737 -1 566
Width: 1135
GlyphClass: 1
Flags: W
LayerCount: 2
Fore
SplineSet
571 -19 m 0,0,1
 415 -19 415 -19 302 25.5 c 128,-1,2
 189 70 189 70 129 153.5 c 128,-1,3
 69 237 69 237 73 351 c 1,4,-1
 75 357 l 1,5,-1
 357 357 l 1,6,7
 358 301 358 301 384 267 c 128,-1,8
 410 233 410 233 457.5 218 c 128,-1,9
 505 203 505 203 571 203 c 0,10,11
 671 203 671 203 718.5 235.5 c 128,-1,12
 766 268 766 268 766 322 c 0,13,14
 766 358 766 358 746 386 c 128,-1,15
 726 414 726 414 678 436 c 128,-1,16
 630 458 630 458 546 476 c 0,17,18
 394 506 394 506 297.5 549.5 c 128,-1,19
 201 593 201 593 156 663 c 128,-1,20
 111 733 111 733 111 840 c 0,21,22
 111 938 111 938 167.5 1015 c 128,-1,23
 224 1092 224 1092 327 1136.5 c 128,-1,24
 430 1181 430 1181 571 1181 c 0,25,26
 791 1181 791 1181 914 1082 c 128,-1,27
 1037 983 1037 983 1032 815 c 1,28,-1
 1030 809 l 1,29,-1
 748 809 l 1,30,31
 748 881 748 881 706.5 920 c 128,-1,32
 665 959 665 959 571 959 c 0,33,34
 482 959 482 959 441.5 926 c 128,-1,35
 401 893 401 893 401 842 c 0,36,37
 401 804 401 804 419.5 776 c 128,-1,38
 438 748 438 748 488 727.5 c 128,-1,39
 538 707 538 707 632 687 c 0,40,41
 847 643 847 643 952 562 c 128,-1,42
 1057 481 1057 481 1057 326 c 0,43,44
 1057 222 1057 222 996.5 144.5 c 128,-1,45
 936 67 936 67 827 24 c 128,-1,46
 718 -19 718 -19 571 -19 c 0,0,1
EndSplineSet
EndChar

StartChar: uni207F
Encoding: 8319 8319 567
Width: 947
GlyphClass: 1
Flags: W
LayerCount: 2
Fore
SplineSet
138 653 m 1,0,-1
 138 1454 l 1,1,-1
 307 1454 l 1,2,-1
 339 1331 l 1,3,4
 375 1395 375 1395 431.5 1430.5 c 128,-1,5
 488 1466 488 1466 562 1466 c 0,6,7
 689 1466 689 1466 757 1391 c 128,-1,8
 825 1316 825 1316 825 1159 c 2,9,-1
 825 653 l 1,10,-1
 612 653 l 1,11,-1
 612 1097 l 2,12,13
 612 1198 612 1198 580 1242 c 128,-1,14
 548 1286 548 1286 485 1286 c 0,15,16
 436 1286 436 1286 402.5 1265 c 128,-1,17
 369 1244 369 1244 352 1206 c 1,18,-1
 352 653 l 1,19,-1
 138 653 l 1,0,-1
EndSplineSet
EndChar

StartChar: ordfeminine
Encoding: 170 170 568
Width: 867
GlyphClass: 1
Flags: W
LayerCount: 2
Fore
SplineSet
343 692 m 0,0,1
 224 692 224 692 159 753 c 128,-1,2
 94 814 94 814 94 920 c 0,3,4
 94 1031 94 1031 178.5 1091 c 128,-1,5
 263 1151 263 1151 425 1151 c 2,6,-1
 562 1151 l 1,7,-1
 562 1202 l 2,8,9
 562 1264 562 1264 532.5 1296.5 c 128,-1,10
 503 1329 503 1329 446 1329 c 0,11,12
 380 1329 380 1329 344 1303 c 128,-1,13
 308 1277 308 1277 308 1230 c 1,14,-1
 143 1243 l 1,15,-1
 142 1249 l 1,16,17
 136 1347 136 1347 221.5 1412 c 128,-1,18
 307 1477 307 1477 446 1477 c 0,19,20
 580 1477 580 1477 658.5 1406 c 128,-1,21
 737 1335 737 1335 737 1201 c 2,22,-1
 737 887 l 2,23,24
 737 836 737 836 743 792 c 128,-1,25
 749 748 749 748 763 706 c 1,26,-1
 586 706 l 1,27,28
 578 727 578 727 573 750.5 c 128,-1,29
 568 774 568 774 565 800 c 1,30,31
 532 753 532 753 476.5 722.5 c 128,-1,32
 421 692 421 692 343 692 c 0,0,1
386 836 m 0,33,34
 420 836 420 836 456.5 850 c 128,-1,35
 493 864 493 864 522 886 c 128,-1,36
 551 908 551 908 562 931 c 1,37,-1
 562 1034 l 1,38,-1
 426 1034 l 2,39,40
 352 1034 352 1034 310.5 1002 c 128,-1,41
 269 970 269 970 269 924 c 0,42,43
 269 881 269 881 298 858.5 c 128,-1,44
 327 836 327 836 386 836 c 0,33,34
EndSplineSet
EndChar

StartChar: ordmasculine
Encoding: 186 186 569
Width: 914
GlyphClass: 1
Flags: W
LayerCount: 2
Fore
SplineSet
457 691 m 0,0,1
 298 691 298 691 203.5 783.5 c 128,-1,2
 109 876 109 876 109 1025 c 2,3,-1
 109 1142 l 2,4,5
 109 1290 109 1290 203.5 1383.5 c 128,-1,6
 298 1477 298 1477 455 1477 c 0,7,8
 613 1477 613 1477 707.5 1383.5 c 128,-1,9
 802 1290 802 1290 802 1142 c 2,10,-1
 802 1025 l 2,11,12
 802 876 802 876 708.5 783.5 c 128,-1,13
 615 691 615 691 457 691 c 0,0,1
457 837 m 0,14,15
 539 837 539 837 583 888.5 c 128,-1,16
 627 940 627 940 627 1025 c 2,17,-1
 627 1142 l 2,18,19
 627 1225 627 1225 582.5 1277 c 128,-1,20
 538 1329 538 1329 455 1329 c 0,21,22
 371 1329 371 1329 327.5 1277 c 128,-1,23
 284 1225 284 1225 284 1142 c 2,24,-1
 284 1025 l 2,25,26
 284 940 284 940 328 888.5 c 128,-1,27
 372 837 372 837 457 837 c 0,14,15
EndSplineSet
EndChar

StartChar: uni0411
Encoding: 1041 1041 571
Width: 1368
GlyphClass: 1
Flags: W
LayerCount: 2
Fore
SplineSet
64 0 m 1,0,-1
 64 175 l 1,1,-1
 219 205 l 1,2,-1
 219 1250 l 1,3,-1
 64 1280 l 1,4,-1
 64 1456 l 1,5,-1
 1168 1456 l 1,6,-1
 1168 1087 l 1,7,-1
 944 1087 l 1,8,-1
 932 1231 l 1,9,-1
 515 1231 l 1,10,-1
 515 917 l 1,11,-1
 765 917 l 2,12,13
 934 917 934 917 1056.5 861 c 128,-1,14
 1179 805 1179 805 1245.5 703.5 c 128,-1,15
 1312 602 1312 602 1312 464 c 0,16,17
 1312 325 1312 325 1245 220.5 c 128,-1,18
 1178 116 1178 116 1055.5 58 c 128,-1,19
 933 0 933 0 765 0 c 2,20,-1
 64 0 l 1,0,-1
515 224 m 1,21,-1
 765 224 l 2,22,23
 888 224 888 224 954.5 293 c 128,-1,24
 1021 362 1021 362 1021 466 c 0,25,26
 1021 566 1021 566 955 629 c 128,-1,27
 889 692 889 692 765 692 c 2,28,-1
 515 692 l 1,29,-1
 515 224 l 1,21,-1
EndSplineSet
EndChar

StartChar: uni0413
Encoding: 1043 1043 573
Width: 1223
GlyphClass: 2
Flags: W
AnchorPoint: "Anchor-4" 395 749 basechar 0
AnchorPoint: "Anchor-0" 658 1364 basechar 0
LayerCount: 2
Fore
SplineSet
65 0 m 1,0,-1
 65 175 l 1,1,-1
 220 205 l 1,2,-1
 220 1250 l 1,3,-1
 65 1280 l 1,4,-1
 65 1456 l 1,5,-1
 1169 1456 l 1,6,-1
 1169 1087 l 1,7,-1
 945 1087 l 1,8,-1
 933 1231 l 1,9,-1
 512 1231 l 1,10,-1
 512 205 l 1,11,-1
 668 175 l 1,12,-1
 668 0 l 1,13,-1
 65 0 l 1,0,-1
EndSplineSet
EndChar

StartChar: uni0490
Encoding: 1168 1168 575
Width: 1220
GlyphClass: 1
Flags: W
LayerCount: 2
Fore
SplineSet
60 0 m 1,0,-1
 60 175 l 1,1,-1
 216 205 l 1,2,-1
 216 1250 l 1,3,-1
 60 1280 l 1,4,-1
 60 1456 l 1,5,-1
 899 1456 l 1,6,-1
 943 1824 l 1,7,-1
 1165 1824 l 1,8,-1
 1165 1231 l 1,9,-1
 508 1231 l 1,10,-1
 508 205 l 1,11,-1
 664 175 l 1,12,-1
 664 0 l 1,13,-1
 60 0 l 1,0,-1
EndSplineSet
EndChar

StartChar: uni0494
Encoding: 1172 1172 578
Width: 1323
GlyphClass: 1
Flags: W
LayerCount: 2
Fore
SplineSet
739 -329 m 1,0,-1
 733 -327 l 1,1,-1
 733 -121 l 1,2,3
 833 -121 833 -121 888 -74 c 128,-1,4
 943 -27 943 -27 965 54.5 c 128,-1,5
 987 136 987 136 987 237 c 0,6,7
 987 421 987 421 907 514 c 128,-1,8
 827 607 827 607 675 607 c 2,9,-1
 512 607 l 1,10,-1
 512 205 l 1,11,-1
 668 175 l 1,12,-1
 668 0 l 1,13,-1
 65 0 l 1,14,-1
 65 175 l 1,15,-1
 220 205 l 1,16,-1
 220 1250 l 1,17,-1
 65 1280 l 1,18,-1
 65 1456 l 1,19,-1
 1169 1456 l 1,20,-1
 1169 1087 l 1,21,-1
 945 1087 l 1,22,-1
 933 1231 l 1,23,-1
 512 1231 l 1,24,-1
 512 836 l 1,25,-1
 675 836 l 2,26,27
 861 836 861 836 996 768.5 c 128,-1,28
 1131 701 1131 701 1204.5 570.5 c 128,-1,29
 1278 440 1278 440 1278 250 c 0,30,31
 1278 125 1278 125 1246 18.5 c 128,-1,32
 1214 -88 1214 -88 1147.5 -166.5 c 128,-1,33
 1081 -245 1081 -245 979.5 -288 c 128,-1,34
 878 -331 878 -331 739 -329 c 1,0,-1
EndSplineSet
EndChar

StartChar: uni0414
Encoding: 1044 1044 579
Width: 1575
GlyphClass: 1
Flags: W
LayerCount: 2
Fore
SplineSet
64 -358 m 1,0,-1
 42 224 l 1,1,-1
 154 224 l 1,2,3
 206 269 206 269 250 346.5 c 128,-1,4
 294 424 294 424 322.5 549 c 128,-1,5
 351 674 351 674 358 860 c 1,6,-1
 385 1252 l 1,7,-1
 243 1280 l 1,8,-1
 243 1456 l 1,9,-1
 1501 1456 l 1,10,-1
 1501 1280 l 1,11,-1
 1346 1250 l 1,12,-1
 1346 224 l 1,13,-1
 1518 224 l 1,14,-1
 1491 -358 l 1,15,-1
 1226 -358 l 1,16,-1
 1226 0 l 1,17,-1
 333 0 l 1,18,-1
 333 -358 l 1,19,-1
 64 -358 l 1,0,-1
485 224 m 1,20,-1
 1054 224 l 1,21,-1
 1054 1231 l 1,22,-1
 675 1231 l 1,23,-1
 651 860 l 2,24,25
 645 713 645 713 623.5 595.5 c 128,-1,26
 602 478 602 478 567 386.5 c 128,-1,27
 532 295 532 295 485 224 c 1,20,-1
EndSplineSet
EndChar

StartChar: uni0416
Encoding: 1046 1046 583
Width: 2154
GlyphClass: 2
Flags: W
AnchorPoint: "Anchor-0" 1079 1364 basechar 0
LayerCount: 2
Fore
SplineSet
39 0 m 1,0,-1
 39 175 l 1,1,-1
 184 196 l 1,2,-1
 530 791 l 1,3,-1
 345 1089 l 1,4,5
 296 1160 296 1160 259.5 1186 c 128,-1,6
 223 1212 223 1212 181 1212 c 0,7,8
 163 1212 163 1212 145 1208.5 c 128,-1,9
 127 1205 127 1205 109 1200 c 1,10,-1
 66 1419 l 1,11,12
 101 1442 101 1442 147.5 1456 c 128,-1,13
 194 1470 194 1470 254 1470 c 0,14,15
 322 1470 322 1470 372 1449.5 c 128,-1,16
 422 1429 422 1429 465.5 1382 c 128,-1,17
 509 1335 509 1335 557 1254 c 2,18,-1
 783 861 l 1,19,-1
 934 861 l 1,20,-1
 934 1250 l 1,21,-1
 778 1280 l 1,22,-1
 778 1456 l 1,23,-1
 1381 1456 l 1,24,-1
 1381 1280 l 1,25,-1
 1225 1250 l 1,26,-1
 1225 861 l 1,27,-1
 1380 861 l 1,28,-1
 1602 1254 l 2,29,30
 1669 1376 1669 1376 1736 1423 c 128,-1,31
 1803 1470 1803 1470 1905 1470 c 0,32,33
 1965 1470 1965 1470 2010 1456.5 c 128,-1,34
 2055 1443 2055 1443 2092 1419 c 1,35,-1
 2051 1200 l 1,36,37
 2033 1205 2033 1205 2015 1208.5 c 128,-1,38
 1997 1212 1997 1212 1978 1212 c 0,39,40
 1939 1212 1939 1212 1899 1187 c 128,-1,41
 1859 1162 1859 1162 1815 1089 c 2,42,-1
 1630 787 l 1,43,-1
 1968 196 l 1,44,-1
 2119 175 l 1,45,-1
 2119 0 l 1,46,-1
 1561 0 l 1,47,-1
 1561 175 l 1,48,-1
 1620 186 l 1,49,-1
 1618 189 l 1,50,-1
 1404 596 l 1,51,-1
 1225 596 l 1,52,-1
 1225 205 l 1,53,-1
 1381 175 l 1,54,-1
 1381 0 l 1,55,-1
 778 0 l 1,56,-1
 778 175 l 1,57,-1
 934 205 l 1,58,-1
 934 596 l 1,59,-1
 753 596 l 1,60,-1
 535 191 l 1,61,-1
 533 186 l 1,62,-1
 589 175 l 1,63,-1
 589 0 l 1,64,-1
 39 0 l 1,0,-1
EndSplineSet
EndChar

StartChar: uni0417
Encoding: 1047 1047 584
Width: 1221
GlyphClass: 2
Flags: W
AnchorPoint: "Anchor-2" 600 0 basechar 0
AnchorPoint: "Anchor-0" 589 1364 basechar 0
LayerCount: 2
Fore
SplineSet
592 -21 m 0,0,1
 446 -21 446 -21 323 27 c 128,-1,2
 200 75 200 75 127.5 168.5 c 128,-1,3
 55 262 55 262 58 398 c 1,4,-1
 60 404 l 1,5,-1
 344 404 l 1,6,7
 344 348 344 348 374.5 302 c 128,-1,8
 405 256 405 256 462 229.5 c 128,-1,9
 519 203 519 203 596 203 c 0,10,11
 712 203 712 203 785.5 262.5 c 128,-1,12
 859 322 859 322 859 430 c 0,13,14
 859 525 859 525 796.5 579 c 128,-1,15
 734 633 734 633 608 633 c 2,16,-1
 431 633 l 1,17,-1
 431 852 l 1,18,-1
 608 852 l 2,19,20
 725 852 725 852 781 904.5 c 128,-1,21
 837 957 837 957 837 1045 c 0,22,23
 837 1139 837 1139 771.5 1195.5 c 128,-1,24
 706 1252 706 1252 575 1252 c 0,25,26
 486 1252 486 1252 420.5 1226.5 c 128,-1,27
 355 1201 355 1201 316 1159 c 1,28,-1
 286 978 l 1,29,-1
 69 978 l 1,30,-1
 69 1253 l 1,31,32
 154 1354 154 1354 290.5 1415.5 c 128,-1,33
 427 1477 427 1477 596 1477 c 0,34,35
 842 1477 842 1477 985 1371.5 c 128,-1,36
 1128 1266 1128 1266 1128 1082 c 0,37,38
 1128 966 1128 966 1068 880 c 128,-1,39
 1008 794 1008 794 903 748 c 1,40,41
 1023 705 1023 705 1087 618.5 c 128,-1,42
 1151 532 1151 532 1151 407 c 0,43,44
 1151 274 1151 274 1080.5 178 c 128,-1,45
 1010 82 1010 82 884 30.5 c 128,-1,46
 758 -21 758 -21 592 -21 c 0,0,1
EndSplineSet
EndChar

StartChar: uni0418
Encoding: 1048 1048 585
Width: 1605
GlyphClass: 2
Flags: W
AnchorPoint: "Anchor-0" 813 1364 basechar 0
LayerCount: 2
Fore
SplineSet
69 0 m 1,0,-1
 69 175 l 1,1,-1
 225 205 l 1,2,-1
 225 1250 l 1,3,-1
 69 1280 l 1,4,-1
 69 1456 l 1,5,-1
 225 1456 l 1,6,-1
 516 1456 l 1,7,-1
 672 1456 l 1,8,-1
 672 1280 l 1,9,-1
 516 1250 l 1,10,-1
 516 576 l 1,11,-1
 522 574 l 1,12,-1
 1109 1169 l 1,13,-1
 1109 1250 l 1,14,-1
 954 1280 l 1,15,-1
 954 1456 l 1,16,-1
 1109 1456 l 1,17,-1
 1402 1456 l 1,18,-1
 1557 1456 l 1,19,-1
 1557 1280 l 1,20,-1
 1402 1250 l 1,21,-1
 1402 205 l 1,22,-1
 1557 175 l 1,23,-1
 1557 0 l 1,24,-1
 954 0 l 1,25,-1
 954 175 l 1,26,-1
 1109 205 l 1,27,-1
 1109 863 l 1,28,-1
 1103 865 l 1,29,-1
 516 269 l 1,30,-1
 516 205 l 1,31,-1
 672 175 l 1,32,-1
 672 0 l 1,33,-1
 69 0 l 1,0,-1
EndSplineSet
EndChar

StartChar: uni041A
Encoding: 1050 1050 589
Width: 1464
GlyphClass: 2
Flags: W
AnchorPoint: "Anchor-4" 374 1096 basechar 0
AnchorPoint: "Anchor-0" 732 1364 basechar 0
LayerCount: 2
Fore
SplineSet
56 0 m 1,0,-1
 56 175 l 1,1,-1
 211 205 l 1,2,-1
 211 1250 l 1,3,-1
 56 1280 l 1,4,-1
 56 1456 l 1,5,-1
 651 1456 l 1,6,-1
 651 1280 l 1,7,-1
 503 1250 l 1,8,-1
 503 861 l 1,9,-1
 634 861 l 1,10,-1
 907 1254 l 2,11,12
 994 1376 994 1376 1068 1423 c 128,-1,13
 1142 1470 1142 1470 1233 1470 c 0,14,15
 1289 1470 1289 1470 1333.5 1456 c 128,-1,16
 1378 1442 1378 1442 1415 1419 c 1,17,-1
 1366 1200 l 1,18,19
 1345 1205 1345 1205 1327.5 1208.5 c 128,-1,20
 1310 1212 1310 1212 1293 1212 c 0,21,22
 1250 1212 1250 1212 1208.5 1186 c 128,-1,23
 1167 1160 1167 1160 1112 1089 c 2,24,-1
 884 777 l 1,25,-1
 1287 200 l 1,26,-1
 1440 175 l 1,27,-1
 1440 0 l 1,28,-1
 863 0 l 1,29,-1
 863 175 l 1,30,-1
 946 187 l 1,31,-1
 944 190 l 1,32,-1
 674 596 l 1,33,-1
 503 596 l 1,34,-1
 503 205 l 1,35,-1
 651 175 l 1,36,-1
 651 0 l 1,37,-1
 56 0 l 1,0,-1
EndSplineSet
EndChar

StartChar: uni041B
Encoding: 1051 1051 591
Width: 1526
GlyphClass: 2
Flags: W
LayerCount: 2
Fore
SplineSet
48 0 m 1,0,-1
 48 224 l 1,1,-1
 87 224 l 1,2,3
 155 229 155 229 199.5 259 c 128,-1,4
 244 289 244 289 269.5 352.5 c 128,-1,5
 295 416 295 416 306.5 523.5 c 128,-1,6
 318 631 318 631 319 793 c 2,7,-1
 324 1250 l 1,8,-1
 171 1280 l 1,9,-1
 171 1456 l 1,10,-1
 1472 1456 l 1,11,-1
 1472 1280 l 1,12,-1
 1316 1250 l 1,13,-1
 1316 205 l 1,14,-1
 1472 175 l 1,15,-1
 1472 0 l 1,16,-1
 869 0 l 1,17,-1
 869 175 l 1,18,-1
 1025 205 l 1,19,-1
 1025 1231 l 1,20,-1
 615 1231 l 1,21,-1
 611 793 l 2,22,23
 609 581 609 581 578.5 430 c 128,-1,24
 548 279 548 279 487.5 184 c 128,-1,25
 427 89 427 89 336 44.5 c 128,-1,26
 245 0 245 0 120 0 c 2,27,-1
 48 0 l 1,0,-1
EndSplineSet
EndChar

StartChar: uni0423
Encoding: 1059 1059 599
Width: 1407
GlyphClass: 2
Flags: W
AnchorPoint: "Anchor-0" 723 1364 basechar 0
LayerCount: 2
Fore
SplineSet
433 -21 m 0,0,1
 408 -21 408 -21 376.5 -19 c 128,-1,2
 345 -17 345 -17 329 -16 c 1,3,-1
 327 207 l 1,4,5
 338 205 338 205 365 204 c 128,-1,6
 392 203 392 203 406 203 c 0,7,8
 485 203 485 203 525 238 c 128,-1,9
 565 273 565 273 591 344 c 2,10,-1
 613 399 l 1,11,-1
 195 1259 l 1,12,-1
 40 1280 l 1,13,-1
 40 1456 l 1,14,-1
 612 1456 l 1,15,-1
 612 1280 l 1,16,-1
 504 1263 l 1,17,-1
 703 821 l 1,18,-1
 738 731 l 1,19,-1
 744 731 l 1,20,-1
 942 1260 l 1,21,-1
 841 1280 l 1,22,-1
 841 1456 l 1,23,-1
 1386 1456 l 1,24,-1
 1386 1280 l 1,25,-1
 1244 1261 l 1,26,-1
 829 276 l 2,27,28
 787 181 787 181 736 114.5 c 128,-1,29
 685 48 685 48 612.5 13.5 c 128,-1,30
 540 -21 540 -21 433 -21 c 0,0,1
EndSplineSet
EndChar

StartChar: uni0424
Encoding: 1060 1060 601
Width: 1644
GlyphClass: 1
Flags: W
LayerCount: 2
Fore
SplineSet
529 -86 m 1,0,-1
 529 76 l 1,1,-1
 685 106 l 1,2,-1
 685 192 l 1,3,-1
 669 192 l 2,4,5
 491 192 491 192 354 257.5 c 128,-1,6
 217 323 217 323 139.5 441.5 c 128,-1,7
 62 560 62 560 62 719 c 0,8,9
 62 882 62 882 140 1004 c 128,-1,10
 218 1126 218 1126 354.5 1194 c 128,-1,11
 491 1262 491 1262 669 1262 c 2,12,-1
 685 1262 l 1,13,-1
 685 1350 l 1,14,-1
 529 1380 l 1,15,-1
 529 1542 l 1,16,-1
 1132 1542 l 1,17,-1
 1132 1380 l 1,18,-1
 976 1350 l 1,19,-1
 976 1262 l 1,20,-1
 988 1262 l 2,21,22
 1166 1262 1166 1262 1303 1194.5 c 128,-1,23
 1440 1127 1440 1127 1518 1005.5 c 128,-1,24
 1596 884 1596 884 1596 721 c 0,25,26
 1596 562 1596 562 1518 443 c 128,-1,27
 1440 324 1440 324 1302.5 258 c 128,-1,28
 1165 192 1165 192 988 192 c 2,29,-1
 976 192 l 1,30,-1
 976 106 l 1,31,-1
 1132 76 l 1,32,-1
 1132 -86 l 1,33,-1
 529 -86 l 1,0,-1
669 393 m 2,34,-1
 685 393 l 1,35,-1
 685 1059 l 1,36,-1
 669 1059 l 2,37,38
 571 1059 571 1059 499 1019 c 128,-1,39
 427 979 427 979 387.5 903.5 c 128,-1,40
 348 828 348 828 348 719 c 0,41,42
 348 614 348 614 387.5 541.5 c 128,-1,43
 427 469 427 469 499 431 c 128,-1,44
 571 393 571 393 669 393 c 2,34,-1
976 393 m 1,45,-1
 990 393 l 2,46,47
 1087 393 1087 393 1159 431.5 c 128,-1,48
 1231 470 1231 470 1270.5 543.5 c 128,-1,49
 1310 617 1310 617 1310 721 c 0,50,51
 1310 831 1310 831 1270.5 906.5 c 128,-1,52
 1231 982 1231 982 1159 1021.5 c 128,-1,53
 1087 1061 1087 1061 990 1061 c 1,54,-1
 976 1059 l 1,55,-1
 976 393 l 1,45,-1
EndSplineSet
EndChar

StartChar: uni0427
Encoding: 1063 1063 603
Width: 1553
GlyphClass: 2
Flags: W
AnchorPoint: "Anchor-0" 777 1364 basechar 0
LayerCount: 2
Fore
SplineSet
901 0 m 1,0,-1
 901 175 l 1,1,-1
 1056 205 l 1,2,-1
 1056 561 l 1,3,4
 986 545 986 545 916 536.5 c 128,-1,5
 846 528 846 528 761 528 c 0,6,7
 493 528 493 528 346.5 644 c 128,-1,8
 200 760 200 760 200 1003 c 2,9,-1
 200 1250 l 1,10,-1
 44 1280 l 1,11,-1
 44 1456 l 1,12,-1
 647 1456 l 1,13,-1
 647 1280 l 1,14,-1
 491 1250 l 1,15,-1
 491 1003 l 2,16,17
 491 861 491 861 555 807 c 128,-1,18
 619 753 619 753 761 753 c 0,19,20
 833 753 833 753 909.5 761.5 c 128,-1,21
 986 770 986 770 1056 786 c 1,22,-1
 1056 1250 l 1,23,-1
 901 1280 l 1,24,-1
 901 1456 l 1,25,-1
 1504 1456 l 1,26,-1
 1504 1280 l 1,27,-1
 1348 1250 l 1,28,-1
 1348 205 l 1,29,-1
 1504 175 l 1,30,-1
 1504 0 l 1,31,-1
 901 0 l 1,0,-1
EndSplineSet
EndChar

StartChar: uni0426
Encoding: 1062 1062 604
Width: 1634
GlyphClass: 1
Flags: W
LayerCount: 2
Fore
SplineSet
1316 -351 m 1,0,-1
 1316 0 l 1,1,-1
 65 0 l 1,2,-1
 65 175 l 1,3,-1
 220 205 l 1,4,-1
 220 1250 l 1,5,-1
 65 1280 l 1,6,-1
 65 1456 l 1,7,-1
 667 1456 l 1,8,-1
 667 1280 l 1,9,-1
 512 1250 l 1,10,-1
 512 224 l 1,11,-1
 1105 224 l 1,12,-1
 1105 1250 l 1,13,-1
 950 1280 l 1,14,-1
 950 1456 l 1,15,-1
 1553 1456 l 1,16,-1
 1553 1280 l 1,17,-1
 1398 1250 l 1,18,-1
 1398 223 l 1,19,-1
 1602 223 l 1,20,-1
 1592 -351 l 1,21,-1
 1316 -351 l 1,0,-1
EndSplineSet
EndChar

StartChar: uni0428
Encoding: 1064 1064 605
Width: 2114
GlyphClass: 1
Flags: W
LayerCount: 2
Fore
SplineSet
69 0 m 1,0,-1
 69 175 l 1,1,-1
 225 205 l 1,2,-1
 225 1250 l 1,3,-1
 69 1280 l 1,4,-1
 69 1456 l 1,5,-1
 517 1456 l 1,6,-1
 672 1456 l 1,7,-1
 672 1280 l 1,8,-1
 517 1250 l 1,9,-1
 517 224 l 1,10,-1
 929 224 l 1,11,-1
 929 1250 l 1,12,-1
 773 1280 l 1,13,-1
 773 1456 l 1,14,-1
 1375 1456 l 1,15,-1
 1375 1280 l 1,16,-1
 1220 1250 l 1,17,-1
 1220 224 l 1,18,-1
 1628 224 l 1,19,-1
 1628 1250 l 1,20,-1
 1472 1280 l 1,21,-1
 1472 1456 l 1,22,-1
 1628 1456 l 1,23,-1
 1919 1456 l 1,24,-1
 2075 1456 l 1,25,-1
 2075 1280 l 1,26,-1
 1919 1250 l 1,27,-1
 1919 205 l 1,28,-1
 2075 175 l 1,29,-1
 2075 0 l 1,30,-1
 69 0 l 1,0,-1
EndSplineSet
EndChar

StartChar: uni0429
Encoding: 1065 1065 606
Width: 2131
GlyphClass: 1
Flags: W
LayerCount: 2
Fore
SplineSet
1817 -350 m 1,0,-1
 1817 0 l 1,1,-1
 69 0 l 1,2,-1
 69 175 l 1,3,-1
 225 205 l 1,4,-1
 225 1250 l 1,5,-1
 69 1280 l 1,6,-1
 69 1456 l 1,7,-1
 672 1456 l 1,8,-1
 672 1280 l 1,9,-1
 517 1250 l 1,10,-1
 517 224 l 1,11,-1
 929 224 l 1,12,-1
 929 1250 l 1,13,-1
 773 1280 l 1,14,-1
 773 1456 l 1,15,-1
 1375 1456 l 1,16,-1
 1375 1280 l 1,17,-1
 1220 1250 l 1,18,-1
 1220 224 l 1,19,-1
 1628 224 l 1,20,-1
 1628 1250 l 1,21,-1
 1472 1280 l 1,22,-1
 1472 1456 l 1,23,-1
 2075 1456 l 1,24,-1
 2075 1280 l 1,25,-1
 1919 1250 l 1,26,-1
 1919 224 l 1,27,-1
 2106 224 l 1,28,-1
 2089 -350 l 1,29,-1
 1817 -350 l 1,0,-1
EndSplineSet
EndChar

StartChar: uni040F
Encoding: 1039 1039 607
Width: 1602
GlyphClass: 1
Flags: W
LayerCount: 2
Fore
SplineSet
675 -360 m 1,0,-1
 675 0 l 1,1,-1
 65 0 l 1,2,-1
 65 175 l 1,3,-1
 220 205 l 1,4,-1
 220 1250 l 1,5,-1
 65 1280 l 1,6,-1
 65 1456 l 1,7,-1
 512 1456 l 1,8,-1
 667 1456 l 1,9,-1
 667 1280 l 1,10,-1
 512 1250 l 1,11,-1
 512 224 l 1,12,-1
 1105 224 l 1,13,-1
 1105 1250 l 1,14,-1
 950 1280 l 1,15,-1
 950 1456 l 1,16,-1
 1553 1456 l 1,17,-1
 1553 1280 l 1,18,-1
 1398 1250 l 1,19,-1
 1398 205 l 1,20,-1
 1553 175 l 1,21,-1
 1553 0 l 1,22,-1
 968 0 l 1,23,-1
 968 -360 l 1,24,-1
 675 -360 l 1,0,-1
EndSplineSet
EndChar

StartChar: uni042C
Encoding: 1068 1068 608
Width: 1360
GlyphClass: 2
Flags: W
AnchorPoint: "Anchor-4" 397 1089 basechar 0
LayerCount: 2
Fore
SplineSet
67 0 m 1,0,-1
 67 175 l 1,1,-1
 223 205 l 1,2,-1
 223 1250 l 1,3,-1
 67 1280 l 1,4,-1
 67 1456 l 1,5,-1
 671 1456 l 1,6,-1
 671 1280 l 1,7,-1
 515 1250 l 1,8,-1
 515 917 l 1,9,-1
 765 917 l 2,10,11
 934 917 934 917 1056.5 861 c 128,-1,12
 1179 805 1179 805 1245.5 703.5 c 128,-1,13
 1312 602 1312 602 1312 464 c 0,14,15
 1312 325 1312 325 1245 220.5 c 128,-1,16
 1178 116 1178 116 1055.5 58 c 128,-1,17
 933 0 933 0 765 0 c 2,18,-1
 67 0 l 1,0,-1
515 224 m 1,19,-1
 765 224 l 2,20,21
 888 224 888 224 954.5 293 c 128,-1,22
 1021 362 1021 362 1021 466 c 0,23,24
 1021 566 1021 566 955 629 c 128,-1,25
 889 692 889 692 765 692 c 2,26,-1
 515 692 l 1,27,-1
 515 224 l 1,19,-1
EndSplineSet
EndChar

StartChar: uni042A
Encoding: 1066 1066 610
Width: 1799
GlyphClass: 2
Flags: W
AnchorPoint: "Anchor-0" 839 1364 basechar 0
LayerCount: 2
Fore
SplineSet
503 0 m 1,0,-1
 503 175 l 1,1,-1
 659 205 l 1,2,-1
 659 1231 l 1,3,-1
 289 1231 l 1,4,-1
 278 1088 l 1,5,-1
 55 1088 l 1,6,-1
 55 1456 l 1,7,-1
 1106 1456 l 1,8,-1
 1106 1280 l 1,9,-1
 951 1250 l 1,10,-1
 951 917 l 1,11,-1
 1201 917 l 2,12,13
 1370 917 1370 917 1492 861 c 128,-1,14
 1614 805 1614 805 1681 703.5 c 128,-1,15
 1748 602 1748 602 1748 464 c 0,16,17
 1748 325 1748 325 1681 220.5 c 128,-1,18
 1614 116 1614 116 1491 58 c 128,-1,19
 1368 0 1368 0 1201 0 c 2,20,-1
 503 0 l 1,0,-1
951 224 m 1,21,-1
 1201 224 l 2,22,23
 1323 224 1323 224 1390 293 c 128,-1,24
 1457 362 1457 362 1457 466 c 0,25,26
 1457 566 1457 566 1391 629 c 128,-1,27
 1325 692 1325 692 1201 692 c 2,28,-1
 951 692 l 1,29,-1
 951 224 l 1,21,-1
EndSplineSet
EndChar

StartChar: uni0409
Encoding: 1033 1033 611
Width: 2161
GlyphClass: 1
Flags: W
LayerCount: 2
Fore
SplineSet
48 0 m 1,0,-1
 48 224 l 1,1,-1
 88 224 l 2,2,3
 163 224 163 224 213 253 c 128,-1,4
 263 282 263 282 292.5 347.5 c 128,-1,5
 322 413 322 413 334.5 522.5 c 128,-1,6
 347 632 347 632 347 793 c 2,7,-1
 347 1250 l 1,8,-1
 191 1280 l 1,9,-1
 191 1456 l 1,10,-1
 1472 1456 l 1,11,-1
 1472 1280 l 1,12,-1
 1317 1250 l 1,13,-1
 1317 947 l 1,14,-1
 1567 947 l 2,15,16
 1734 947 1734 947 1856.5 886.5 c 128,-1,17
 1979 826 1979 826 2046 719.5 c 128,-1,18
 2113 613 2113 613 2113 474 c 0,19,20
 2113 334 2113 334 2046 227.5 c 128,-1,21
 1979 121 1979 121 1856.5 60.5 c 128,-1,22
 1734 0 1734 0 1567 0 c 2,23,-1
 1025 0 l 1,24,-1
 1025 1231 l 1,25,-1
 639 1231 l 1,26,-1
 639 793 l 2,27,28
 639 582 639 582 605.5 431.5 c 128,-1,29
 572 281 572 281 503.5 185.5 c 128,-1,30
 435 90 435 90 332.5 45 c 128,-1,31
 230 0 230 0 91 0 c 2,32,-1
 48 0 l 1,0,-1
1317 224 m 1,33,-1
 1567 224 l 2,34,35
 1689 224 1689 224 1755.5 296.5 c 128,-1,36
 1822 369 1822 369 1822 474 c 0,37,38
 1822 544 1822 544 1792 600 c 128,-1,39
 1762 656 1762 656 1705 689 c 128,-1,40
 1648 722 1648 722 1567 722 c 2,41,-1
 1317 722 l 1,42,-1
 1317 224 l 1,33,-1
EndSplineSet
EndChar

StartChar: uni040A
Encoding: 1034 1034 612
Width: 2232
GlyphClass: 1
Flags: W
LayerCount: 2
Fore
SplineSet
56 0 m 1,0,-1
 56 175 l 1,1,-1
 211 205 l 1,2,-1
 211 1250 l 1,3,-1
 56 1280 l 1,4,-1
 56 1456 l 1,5,-1
 658 1456 l 1,6,-1
 658 1280 l 1,7,-1
 503 1250 l 1,8,-1
 503 841 l 1,9,-1
 1095 841 l 1,10,-1
 1095 1250 l 1,11,-1
 940 1280 l 1,12,-1
 940 1456 l 1,13,-1
 1095 1456 l 1,14,-1
 1387 1456 l 1,15,-1
 1542 1456 l 1,16,-1
 1542 1280 l 1,17,-1
 1387 1250 l 1,18,-1
 1387 929 l 1,19,-1
 1637 929 l 2,20,21
 1805 929 1805 929 1927.5 870.5 c 128,-1,22
 2050 812 2050 812 2117 707.5 c 128,-1,23
 2184 603 2184 603 2184 466 c 256,24,25
 2184 329 2184 329 2116.5 224 c 128,-1,26
 2049 119 2049 119 1926.5 59.5 c 128,-1,27
 1804 0 1804 0 1637 0 c 2,28,-1
 940 0 l 1,29,-1
 940 175 l 1,30,-1
 1095 205 l 1,31,-1
 1095 616 l 1,32,-1
 503 616 l 1,33,-1
 503 205 l 1,34,-1
 658 175 l 1,35,-1
 658 0 l 1,36,-1
 56 0 l 1,0,-1
1387 228 m 1,37,-1
 1637 228 l 2,38,39
 1760 228 1760 228 1826.5 296.5 c 128,-1,40
 1893 365 1893 365 1893 466 c 0,41,42
 1893 533 1893 533 1863.5 587 c 128,-1,43
 1834 641 1834 641 1776.5 672.5 c 128,-1,44
 1719 704 1719 704 1637 704 c 2,45,-1
 1387 704 l 1,46,-1
 1387 228 l 1,37,-1
EndSplineSet
EndChar

StartChar: uni0404
Encoding: 1028 1028 614
Width: 1300
GlyphClass: 1
Flags: W
LayerCount: 2
Fore
SplineSet
690 -20 m 0,0,1
 491 -20 491 -20 339.5 72.5 c 128,-1,2
 188 165 188 165 102.5 328.5 c 128,-1,3
 17 492 17 492 17 704 c 2,4,-1
 17 753 l 2,5,6
 17 965 17 965 102 1128.5 c 128,-1,7
 187 1292 187 1292 338.5 1385 c 128,-1,8
 490 1478 490 1478 690 1478 c 0,9,10
 854 1478 854 1478 989.5 1416.5 c 128,-1,11
 1125 1355 1125 1355 1214 1254 c 1,12,-1
 1214 966 l 1,13,-1
 997 966 l 1,14,-1
 967 1160 l 1,15,16
 924 1203 924 1203 859 1228 c 128,-1,17
 794 1253 794 1253 710 1253 c 0,18,19
 594 1253 594 1253 510 1202.5 c 128,-1,20
 426 1152 426 1152 377.5 1061.5 c 128,-1,21
 329 971 329 971 318 850 c 1,22,-1
 321 844 l 1,23,-1
 850 844 l 1,24,-1
 850 618 l 1,25,-1
 321 618 l 1,26,-1
 318 612 l 1,27,28
 328 490 328 490 376 398 c 128,-1,29
 424 306 424 306 507 255 c 128,-1,30
 590 204 590 204 704 204 c 0,31,32
 784 204 784 204 853.5 229 c 128,-1,33
 923 254 923 254 967 297 c 1,34,-1
 997 491 l 1,35,-1
 1214 491 l 1,36,-1
 1214 203 l 1,37,38
 1126 101 1126 101 990 40.5 c 128,-1,39
 854 -20 854 -20 690 -20 c 0,0,1
EndSplineSet
EndChar

StartChar: uni042D
Encoding: 1069 1069 615
Width: 1268
GlyphClass: 2
Flags: W
AnchorPoint: "Anchor-0" 570 1364 basechar 0
LayerCount: 2
Fore
SplineSet
578 -20 m 0,0,1
 408 -20 408 -20 272 40 c 128,-1,2
 136 100 136 100 47 202 c 1,3,-1
 47 490 l 1,4,-1
 264 490 l 1,5,-1
 294 297 l 1,6,7
 332 254 332 254 403.5 229 c 128,-1,8
 475 204 475 204 563 204 c 0,9,10
 672 204 672 204 750.5 254 c 128,-1,11
 829 304 829 304 875 395 c 128,-1,12
 921 486 921 486 931 609 c 1,13,-1
 929 614 l 1,14,-1
 420 614 l 1,15,-1
 420 840 l 1,16,-1
 929 840 l 1,17,-1
 931 845 l 1,18,19
 922 968 922 968 875.5 1059.5 c 128,-1,20
 829 1151 829 1151 749.5 1201.5 c 128,-1,21
 670 1252 670 1252 558 1252 c 0,22,23
 467 1252 467 1252 401.5 1227.5 c 128,-1,24
 336 1203 336 1203 294 1159 c 1,25,-1
 264 966 l 1,26,-1
 47 966 l 1,27,-1
 47 1254 l 1,28,29
 107 1322 107 1322 187 1372 c 128,-1,30
 267 1422 267 1422 366 1449.5 c 128,-1,31
 465 1477 465 1477 578 1477 c 0,32,33
 773 1477 773 1477 920 1385 c 128,-1,34
 1067 1293 1067 1293 1149 1129.5 c 128,-1,35
 1231 966 1231 966 1231 752 c 2,36,-1
 1231 703 l 2,37,38
 1231 490 1231 490 1148 327 c 128,-1,39
 1065 164 1065 164 918 72 c 128,-1,40
 771 -20 771 -20 578 -20 c 0,0,1
EndSplineSet
EndChar

StartChar: uni040B
Encoding: 1035 1035 619
Width: 1742
GlyphClass: 1
Flags: W
LayerCount: 2
Fore
SplineSet
316 0 m 1,0,-1
 316 175 l 1,1,-1
 472 205 l 1,2,-1
 472 1231 l 1,3,-1
 286 1231 l 1,4,-1
 275 1087 l 1,5,-1
 52 1087 l 1,6,-1
 52 1456 l 1,7,-1
 1265 1456 l 1,8,-1
 1265 1087 l 1,9,-1
 1042 1087 l 1,10,-1
 1030 1231 l 1,11,-1
 764 1231 l 1,12,-1
 764 908 l 1,13,14
 811 917 811 917 868 922.5 c 128,-1,15
 925 928 925 928 991 928 c 0,16,17
 1258 928 1258 928 1405 811 c 128,-1,18
 1552 694 1552 694 1552 452 c 2,19,-1
 1552 206 l 1,20,-1
 1707 176 l 1,21,-1
 1707 0 l 1,22,-1
 1105 0 l 1,23,-1
 1105 176 l 1,24,-1
 1260 206 l 1,25,-1
 1260 452 l 2,26,27
 1260 593 1260 593 1196 648 c 128,-1,28
 1132 703 1132 703 991 703 c 0,29,30
 935 703 935 703 875.5 697.5 c 128,-1,31
 816 692 816 692 764 683 c 1,32,-1
 764 205 l 1,33,-1
 919 175 l 1,34,-1
 919 0 l 1,35,-1
 316 0 l 1,0,-1
EndSplineSet
EndChar

StartChar: uni042E
Encoding: 1070 1070 620
Width: 1979
GlyphClass: 2
Flags: W
AnchorPoint: "Anchor-0" 992 1364 basechar 0
LayerCount: 2
Fore
SplineSet
1260 -22 m 0,0,1
 1085 -22 1085 -22 947 55 c 128,-1,2
 809 132 809 132 722 268.5 c 128,-1,3
 635 405 635 405 611 585 c 1,4,-1
 466 585 l 1,5,-1
 466 205 l 1,6,-1
 622 175 l 1,7,-1
 622 0 l 1,8,-1
 19 0 l 1,9,-1
 19 175 l 1,10,-1
 175 205 l 1,11,-1
 175 1250 l 1,12,-1
 19 1280 l 1,13,-1
 19 1456 l 1,14,-1
 622 1456 l 1,15,-1
 622 1280 l 1,16,-1
 466 1250 l 1,17,-1
 466 810 l 1,18,-1
 605 810 l 1,19,20
 619 1005 619 1005 704.5 1155 c 128,-1,21
 790 1305 790 1305 932 1390.5 c 128,-1,22
 1074 1476 1074 1476 1259 1476 c 0,23,24
 1457 1476 1457 1476 1606 1380 c 128,-1,25
 1755 1284 1755 1284 1838.5 1117 c 128,-1,26
 1922 950 1922 950 1922 738 c 2,27,-1
 1922 716 l 2,28,29
 1922 503 1922 503 1838.5 336 c 128,-1,30
 1755 169 1755 169 1606.5 73.5 c 128,-1,31
 1458 -22 1458 -22 1260 -22 c 0,0,1
1260 205 m 0,32,33
 1384 205 1384 205 1466 269 c 128,-1,34
 1548 333 1548 333 1589.5 448 c 128,-1,35
 1631 563 1631 563 1631 716 c 2,36,-1
 1631 740 l 2,37,38
 1631 891 1631 891 1589 1005.5 c 128,-1,39
 1547 1120 1547 1120 1464.5 1184 c 128,-1,40
 1382 1248 1382 1248 1259 1248 c 0,41,42
 1137 1248 1137 1248 1055.5 1184.5 c 128,-1,43
 974 1121 974 1121 934 1006.5 c 128,-1,44
 894 892 894 892 894 740 c 2,45,-1
 894 716 l 2,46,47
 894 563 894 563 934.5 448 c 128,-1,48
 975 333 975 333 1057 269 c 128,-1,49
 1139 205 1139 205 1260 205 c 0,32,33
EndSplineSet
EndChar

StartChar: uni042F
Encoding: 1071 1071 621
Width: 1377
GlyphClass: 2
Flags: W
AnchorPoint: "Anchor-0" 743 1364 basechar 0
LayerCount: 2
Fore
SplineSet
1334 175 m 1,0,-1
 1334 0 l 1,1,-1
 731 0 l 1,2,-1
 731 175 l 1,3,-1
 887 204 l 1,4,-1
 887 547 l 1,5,-1
 695 547 l 1,6,-1
 559 231 l 1,7,8
 505 117 505 117 426 54 c 128,-1,9
 347 -9 347 -9 239 -9 c 0,10,11
 188 -9 188 -9 144.5 3.5 c 128,-1,12
 101 16 101 16 66 40 c 1,13,-1
 104 260 l 1,14,15
 140 248 140 248 173 248 c 0,16,17
 216 248 216 248 251.5 272.5 c 128,-1,18
 287 297 287 297 326 364 c 1,19,-1
 438 601 l 1,20,-1
 440 605 l 1,21,22
 289 662 289 662 214 760 c 128,-1,23
 139 858 139 858 139 1009 c 0,24,25
 139 1225 139 1225 281 1340.5 c 128,-1,26
 423 1456 423 1456 674 1456 c 2,27,-1
 1334 1456 l 1,28,-1
 1334 1280 l 1,29,-1
 1179 1250 l 1,30,-1
 1179 205 l 1,31,-1
 1334 175 l 1,0,-1
674 1231 m 2,32,33
 553 1231 553 1231 491.5 1170.5 c 128,-1,34
 430 1110 430 1110 430 997 c 0,35,36
 430 885 430 885 492 822.5 c 128,-1,37
 554 760 554 760 674 760 c 2,38,-1
 887 760 l 1,39,-1
 887 1231 l 1,40,-1
 674 1231 l 2,32,33
EndSplineSet
EndChar

StartChar: uni0402
Encoding: 1026 1026 622
Width: 1602
GlyphClass: 1
Flags: W
LayerCount: 2
Fore
SplineSet
1023 -12 m 1,0,-1
 1018 -10 l 1,1,-1
 1017 195 l 1,2,3
 1113 195 1113 195 1166.5 227.5 c 128,-1,4
 1220 260 1220 260 1241 313 c 128,-1,5
 1262 366 1262 366 1262 428 c 0,6,7
 1261 540 1261 540 1196 603 c 128,-1,8
 1131 666 1131 666 1005 666 c 0,9,10
 945 666 945 666 885.5 656 c 128,-1,11
 826 646 826 646 769 628 c 1,12,-1
 769 205 l 1,13,-1
 897 175 l 1,14,-1
 897 0 l 1,15,-1
 321 0 l 1,16,-1
 321 175 l 1,17,-1
 476 205 l 1,18,-1
 476 1231 l 1,19,-1
 281 1231 l 1,20,-1
 270 1087 l 1,21,-1
 47 1087 l 1,22,-1
 47 1456 l 1,23,-1
 1290 1456 l 1,24,-1
 1290 1087 l 1,25,-1
 1066 1087 l 1,26,-1
 1054 1231 l 1,27,-1
 769 1231 l 1,28,-1
 769 852 l 1,29,30
 829 871 829 871 890.5 882.5 c 128,-1,31
 952 894 952 894 1014 894 c 0,32,33
 1262 894 1262 894 1407.5 777.5 c 128,-1,34
 1553 661 1553 661 1553 441 c 0,35,36
 1553 309 1553 309 1497 205.5 c 128,-1,37
 1441 102 1441 102 1323.5 44 c 128,-1,38
 1206 -14 1206 -14 1023 -12 c 1,0,-1
EndSplineSet
EndChar

StartChar: uni0460
Encoding: 1120 1120 623
Width: 1884
GlyphClass: 1
Flags: W
LayerCount: 2
Fore
SplineSet
613 -21 m 0,0,1
 467 -21 467 -21 357.5 34 c 128,-1,2
 248 89 248 89 187 194 c 128,-1,3
 126 299 126 299 126 449 c 2,4,-1
 126 1456 l 1,5,-1
 419 1456 l 1,6,-1
 419 449 l 2,7,8
 419 325 419 325 470.5 264 c 128,-1,9
 522 203 522 203 613 203 c 0,10,11
 709 203 709 203 762.5 263.5 c 128,-1,12
 816 324 816 324 816 449 c 2,13,-1
 816 1456 l 1,14,-1
 1110 1456 l 1,15,-1
 1110 449 l 2,16,17
 1110 325 1110 325 1163.5 264 c 128,-1,18
 1217 203 1217 203 1310 203 c 0,19,20
 1404 203 1404 203 1456 263.5 c 128,-1,21
 1508 324 1508 324 1508 449 c 2,22,-1
 1508 1456 l 1,23,-1
 1800 1456 l 1,24,-1
 1800 449 l 2,25,26
 1800 298 1800 298 1738.5 193 c 128,-1,27
 1677 88 1677 88 1567 33.5 c 128,-1,28
 1457 -21 1457 -21 1310 -21 c 0,29,30
 1199 -21 1199 -21 1109.5 19 c 128,-1,31
 1020 59 1020 59 963 137 c 1,32,33
 904 59 904 59 813.5 19 c 128,-1,34
 723 -21 723 -21 613 -21 c 0,0,1
EndSplineSet
EndChar

StartChar: uni0464
Encoding: 1124 1124 625
Width: 1912
GlyphClass: 1
Flags: W
LayerCount: 2
Fore
SplineSet
1311 -20 m 0,0,1
 1126 -20 1126 -20 980 64.5 c 128,-1,2
 834 149 834 149 746 298.5 c 128,-1,3
 658 448 658 448 645 644 c 0,4,5
 645 646 645 646 645 647.5 c 128,-1,6
 645 649 645 649 645 651 c 1,7,-1
 503 651 l 1,8,-1
 503 205 l 1,9,-1
 659 175 l 1,10,-1
 659 0 l 1,11,-1
 56 0 l 1,12,-1
 56 175 l 1,13,-1
 212 205 l 1,14,-1
 212 1250 l 1,15,-1
 56 1280 l 1,16,-1
 56 1456 l 1,17,-1
 212 1456 l 1,18,-1
 503 1456 l 1,19,-1
 659 1456 l 1,20,-1
 659 1280 l 1,21,-1
 503 1250 l 1,22,-1
 503 838 l 1,23,-1
 648 838 l 1,24,25
 665 1028 665 1028 753 1172 c 128,-1,26
 841 1316 841 1316 985 1397 c 128,-1,27
 1129 1478 1129 1478 1311 1478 c 0,28,29
 1480 1478 1480 1478 1616 1416.5 c 128,-1,30
 1752 1355 1752 1355 1841 1254 c 1,31,-1
 1841 966 l 1,32,-1
 1624 966 l 1,33,-1
 1594 1160 l 1,34,35
 1551 1203 1551 1203 1486 1228 c 128,-1,36
 1421 1253 1421 1253 1331 1253 c 0,37,38
 1217 1253 1217 1253 1134 1202 c 128,-1,39
 1051 1151 1051 1151 1002.5 1059 c 128,-1,40
 954 967 954 967 945 844 c 1,41,-1
 948 838 l 1,42,-1
 1438 838 l 1,43,-1
 1438 651 l 1,44,-1
 945 651 l 1,45,-1
 943 646 l 1,46,47
 948 514 948 514 995 414.5 c 128,-1,48
 1042 315 1042 315 1126 259.5 c 128,-1,49
 1210 204 1210 204 1326 204 c 0,50,51
 1412 204 1412 204 1483.5 229.5 c 128,-1,52
 1555 255 1555 255 1594 297 c 1,53,-1
 1624 491 l 1,54,-1
 1841 491 l 1,55,-1
 1841 203 l 1,56,57
 1754 101 1754 101 1617 40.5 c 128,-1,58
 1480 -20 1480 -20 1311 -20 c 0,0,1
EndSplineSet
EndChar

StartChar: uni0466
Encoding: 1126 1126 626
Width: 1493
GlyphClass: 1
Flags: W
LayerCount: 2
Fore
SplineSet
52 0 m 1,0,-1
 52 175 l 1,1,-1
 164 190 l 1,2,-1
 611 1456 l 1,3,-1
 911 1456 l 1,4,-1
 1355 190 l 1,5,-1
 1467 175 l 1,6,-1
 1467 0 l 1,7,-1
 961 0 l 1,8,-1
 961 175 l 1,9,-1
 1052 192 l 1,10,-1
 966 455 l 1,11,-1
 879 455 l 1,12,-1
 879 0 l 1,13,-1
 634 0 l 1,14,-1
 634 455 l 1,15,-1
 552 455 l 1,16,-1
 466 192 l 1,17,-1
 558 175 l 1,18,-1
 558 0 l 1,19,-1
 52 0 l 1,0,-1
619 656 m 1,20,-1
 899 656 l 1,21,-1
 773 1039 l 1,22,-1
 762 1071 l 1,23,-1
 756 1071 l 1,24,-1
 745 1038 l 1,25,-1
 619 656 l 1,20,-1
EndSplineSet
EndChar

StartChar: uni0468
Encoding: 1128 1128 627
Width: 2098
GlyphClass: 1
Flags: W
LayerCount: 2
Fore
SplineSet
21 0 m 1,0,-1
 21 175 l 1,1,-1
 177 205 l 1,2,-1
 177 1250 l 1,3,-1
 21 1280 l 1,4,-1
 21 1456 l 1,5,-1
 177 1456 l 1,6,-1
 468 1456 l 1,7,-1
 624 1456 l 1,8,-1
 624 1280 l 1,9,-1
 468 1250 l 1,10,-1
 468 657 l 1,11,-1
 947 657 l 1,12,-1
 1230 1456 l 1,13,-1
 1530 1456 l 1,14,-1
 1974 190 l 1,15,-1
 2085 175 l 1,16,-1
 2085 0 l 1,17,-1
 1579 0 l 1,18,-1
 1579 175 l 1,19,-1
 1670 192 l 1,20,-1
 1584 455 l 1,21,-1
 1498 455 l 1,22,-1
 1498 0 l 1,23,-1
 1253 0 l 1,24,-1
 1253 455 l 1,25,-1
 1170 455 l 1,26,-1
 1085 192 l 1,27,-1
 1177 175 l 1,28,-1
 1177 0 l 1,29,-1
 670 0 l 1,30,-1
 670 175 l 1,31,-1
 782 190 l 1,32,-1
 875 454 l 1,33,-1
 468 454 l 1,34,-1
 468 205 l 1,35,-1
 624 175 l 1,36,-1
 624 0 l 1,37,-1
 21 0 l 1,0,-1
1237 656 m 1,38,-1
 1517 656 l 1,39,-1
 1393 1033 l 1,40,-1
 1380 1071 l 1,41,-1
 1374 1071 l 1,42,-1
 1361 1028 l 1,43,-1
 1237 656 l 1,38,-1
EndSplineSet
EndChar

StartChar: uni046A
Encoding: 1130 1130 628
Width: 1931
GlyphClass: 1
Flags: W
LayerCount: 2
Fore
SplineSet
58 0 m 1,0,-1
 58 175 l 1,1,-1
 199 205 l 1,2,-1
 199 344 l 2,3,4
 199 582 199 582 328 690.5 c 128,-1,5
 457 799 457 799 709 805 c 0,6,7
 713 805 713 805 718.5 805 c 128,-1,8
 724 805 724 805 728 805 c 1,9,-1
 467 1257 l 1,10,-1
 293 1280 l 1,11,-1
 293 1456 l 1,12,-1
 1696 1456 l 1,13,-1
 1696 1280 l 1,14,-1
 1521 1257 l 1,15,-1
 1261 804 l 1,16,17
 1266 804 1266 804 1271 804 c 128,-1,18
 1276 804 1276 804 1284 804 c 0,19,20
 1515 792 1515 792 1635.5 683 c 128,-1,21
 1756 574 1756 574 1756 344 c 2,22,-1
 1756 205 l 1,23,-1
 1897 175 l 1,24,-1
 1897 0 l 1,25,-1
 1339 0 l 1,26,-1
 1339 175 l 1,27,-1
 1465 205 l 1,28,-1
 1465 344 l 2,29,30
 1465 476 1465 476 1407.5 526.5 c 128,-1,31
 1350 577 1350 577 1221 577 c 2,32,-1
 1142 577 l 1,33,-1
 1126 569 l 1,34,-1
 1126 205 l 1,35,-1
 1252 175 l 1,36,-1
 1252 0 l 1,37,-1
 709 0 l 1,38,-1
 709 175 l 1,39,-1
 835 205 l 1,40,-1
 835 567 l 1,41,-1
 818 577 l 1,42,-1
 734 577 l 2,43,44
 605 577 605 577 547.5 526.5 c 128,-1,45
 490 476 490 476 490 344 c 2,46,-1
 490 205 l 1,47,-1
 616 175 l 1,48,-1
 616 0 l 1,49,-1
 58 0 l 1,0,-1
990 844 m 1,50,-1
 996 844 l 1,51,-1
 1012 877 l 1,52,-1
 1196 1228 l 1,53,-1
 793 1228 l 1,54,-1
 975 875 l 1,55,-1
 990 844 l 1,50,-1
EndSplineSet
EndChar

StartChar: uni046C
Encoding: 1132 1132 629
Width: 2550
GlyphClass: 1
Flags: W
LayerCount: 2
Fore
SplineSet
40 0 m 1,0,-1
 40 175 l 1,1,-1
 196 205 l 1,2,-1
 196 1250 l 1,3,-1
 40 1280 l 1,4,-1
 40 1456 l 1,5,-1
 643 1456 l 1,6,-1
 643 1280 l 1,7,-1
 487 1250 l 1,8,-1
 487 806 l 1,9,-1
 1489 806 l 1,10,-1
 1489 578 l 1,11,-1
 487 578 l 1,12,-1
 487 205 l 1,13,-1
 643 175 l 1,14,-1
 643 0 l 1,15,-1
 40 0 l 1,0,-1
681 0 m 1,16,-1
 681 175 l 1,17,-1
 822 205 l 1,18,-1
 822 344 l 2,19,20
 822 582 822 582 951 690.5 c 128,-1,21
 1080 799 1080 799 1332 805 c 0,22,23
 1337 805 1337 805 1342 805 c 128,-1,24
 1347 805 1347 805 1351 805 c 1,25,-1
 1090 1257 l 1,26,-1
 917 1280 l 1,27,-1
 917 1456 l 1,28,-1
 2320 1456 l 1,29,-1
 2320 1280 l 1,30,-1
 2145 1257 l 1,31,-1
 1884 804 l 1,32,33
 1889 804 1889 804 1894 804 c 128,-1,34
 1899 804 1899 804 1908 804 c 0,35,36
 2138 792 2138 792 2258.5 683 c 128,-1,37
 2379 574 2379 574 2379 344 c 2,38,-1
 2379 205 l 1,39,-1
 2520 175 l 1,40,-1
 2520 0 l 1,41,-1
 1962 0 l 1,42,-1
 1962 175 l 1,43,-1
 2088 205 l 1,44,-1
 2088 344 l 2,45,46
 2088 476 2088 476 2030.5 526.5 c 128,-1,47
 1973 577 1973 577 1845 577 c 2,48,-1
 1766 577 l 1,49,-1
 1749 569 l 1,50,-1
 1749 205 l 1,51,-1
 1875 175 l 1,52,-1
 1875 0 l 1,53,-1
 1333 0 l 1,54,-1
 1333 175 l 1,55,-1
 1458 205 l 1,56,-1
 1458 567 l 1,57,-1
 1441 577 l 1,58,-1
 1357 577 l 2,59,60
 1228 577 1228 577 1171 526.5 c 128,-1,61
 1114 476 1114 476 1114 344 c 2,62,-1
 1114 205 l 1,63,-1
 1240 175 l 1,64,-1
 1240 0 l 1,65,-1
 681 0 l 1,16,-1
1613 844 m 1,66,-1
 1620 844 l 1,67,-1
 1636 877 l 1,68,-1
 1819 1228 l 1,69,-1
 1416 1228 l 1,70,-1
 1598 875 l 1,71,-1
 1613 844 l 1,66,-1
EndSplineSet
EndChar

StartChar: uni046E
Encoding: 1134 1134 630
Width: 1130
GlyphClass: 1
Flags: W
LayerCount: 2
Fore
SplineSet
448 -448 m 1,0,1
 342 -424 342 -424 269 -373.5 c 128,-1,2
 196 -323 196 -323 158.5 -250.5 c 128,-1,3
 121 -178 121 -178 120 -89 c 0,4,5
 120 62 120 62 214 136.5 c 128,-1,6
 308 211 308 211 477 211 c 2,7,-1
 540 211 l 2,8,9
 646 211 646 211 708 266 c 128,-1,10
 770 321 770 321 770 415 c 0,11,12
 770 517 770 517 700 571.5 c 128,-1,13
 630 626 630 626 495 626 c 2,14,-1
 360 626 l 1,15,-1
 360 859 l 1,16,-1
 503 859 l 2,17,18
 616 859 616 859 670 911 c 128,-1,19
 724 963 724 963 724 1051 c 0,20,21
 724 1133 724 1133 670.5 1187 c 128,-1,22
 617 1241 617 1241 503 1241 c 0,23,24
 441 1241 441 1241 385 1226 c 128,-1,25
 329 1211 329 1211 290 1185 c 1,26,-1
 266 1024 l 1,27,-1
 52 1024 l 1,28,-1
 52 1286 l 1,29,30
 128 1372 128 1372 245 1419 c 128,-1,31
 362 1466 362 1466 517 1466 c 0,32,33
 670 1466 670 1466 782 1421 c 128,-1,34
 894 1376 894 1376 955.5 1289 c 128,-1,35
 1017 1202 1017 1202 1017 1075 c 0,36,37
 1017 957 1017 957 957 873.5 c 128,-1,38
 897 790 897 790 787 745 c 1,39,40
 928 700 928 700 995 615.5 c 128,-1,41
 1062 531 1062 531 1062 405 c 0,42,43
 1062 272 1062 272 999 176.5 c 128,-1,44
 936 81 936 81 822.5 30 c 128,-1,45
 709 -21 709 -21 556 -21 c 2,46,-1
 500 -21 l 2,47,48
 441 -21 441 -21 413.5 -49 c 128,-1,49
 386 -77 386 -77 386 -120 c 0,50,51
 386 -159 386 -159 405 -188 c 128,-1,52
 424 -217 424 -217 457 -238.5 c 128,-1,53
 490 -260 490 -260 530 -277 c 1,54,-1
 448 -448 l 1,0,1
416 1572 m 1,55,-1
 163 1819 l 1,56,-1
 163 1842 l 1,57,-1
 391 1842 l 1,58,-1
 524 1697 l 1,59,-1
 661 1842 l 1,60,-1
 886 1842 l 1,61,-1
 886 1816 l 1,62,-1
 631 1572 l 1,63,-1
 416 1572 l 1,55,-1
EndSplineSet
EndChar

StartChar: uni0472
Encoding: 1138 1138 632
Width: 1400
GlyphClass: 1
Flags: W
LayerCount: 2
Fore
SplineSet
730 -21 m 0,0,1
 534 -21 534 -21 385.5 74.5 c 128,-1,2
 237 170 237 170 154.5 337 c 128,-1,3
 72 504 72 504 72 717 c 2,4,-1
 72 739 l 2,5,6
 72 951 72 951 154.5 1118 c 128,-1,7
 237 1285 237 1285 384.5 1381 c 128,-1,8
 532 1477 532 1477 729 1477 c 0,9,10
 927 1477 927 1477 1076 1381 c 128,-1,11
 1225 1285 1225 1285 1308.5 1118 c 128,-1,12
 1392 951 1392 951 1392 739 c 2,13,-1
 1392 717 l 2,14,15
 1392 504 1392 504 1308.5 337 c 128,-1,16
 1225 170 1225 170 1076.5 74.5 c 128,-1,17
 928 -21 928 -21 730 -21 c 0,0,1
730 206 m 0,18,19
 842 206 842 206 920 259.5 c 128,-1,20
 998 313 998 313 1042 409.5 c 128,-1,21
 1086 506 1086 506 1093 635 c 1,22,-1
 1091 640 l 1,23,-1
 374 640 l 1,24,-1
 372 635 l 1,25,26
 379 506 379 506 421.5 409.5 c 128,-1,27
 464 313 464 313 541.5 259.5 c 128,-1,28
 619 206 619 206 730 206 c 0,18,19
374 820 m 1,29,-1
 1091 820 l 1,30,-1
 1093 825 l 1,31,32
 1085 952 1085 952 1041 1047.5 c 128,-1,33
 997 1143 997 1143 918.5 1196 c 128,-1,34
 840 1249 840 1249 729 1249 c 256,35,36
 618 1249 618 1249 541 1196 c 128,-1,37
 464 1143 464 1143 421.5 1048 c 128,-1,38
 379 953 379 953 372 825 c 1,39,-1
 374 820 l 1,29,-1
EndSplineSet
EndChar

StartChar: uni0474
Encoding: 1140 1140 633
Width: 1410
GlyphClass: 2
Flags: W
AnchorPoint: "Anchor-0" 749 1364 basechar 0
LayerCount: 2
Fore
SplineSet
588 0 m 1,0,-1
 164 1263 l 1,1,-1
 39 1280 l 1,2,-1
 39 1456 l 1,3,-1
 564 1456 l 1,4,-1
 564 1280 l 1,5,-1
 464 1261 l 1,6,-1
 716 395 l 1,7,-1
 734 314 l 1,8,-1
 740 314 l 1,9,-1
 757 392 l 1,10,-1
 968 1135 l 2,11,12
 1021 1307 1021 1307 1103.5 1392.5 c 128,-1,13
 1186 1478 1186 1478 1332 1475 c 2,14,-1
 1372 1474 l 1,15,-1
 1370 1238 l 1,16,-1
 1342 1238 l 2,17,18
 1311 1238 1311 1238 1289 1226 c 128,-1,19
 1267 1214 1267 1214 1251.5 1187.5 c 128,-1,20
 1236 1161 1236 1161 1223 1118 c 2,21,-1
 887 0 l 1,22,-1
 588 0 l 1,0,-1
EndSplineSet
EndChar

StartChar: uni049C
Encoding: 1180 1180 639
Width: 1543
GlyphClass: 1
Flags: W
LayerCount: 2
Fore
SplineSet
67 0 m 1,0,-1
 67 175 l 1,1,-1
 223 205 l 1,2,-1
 223 1250 l 1,3,-1
 67 1280 l 1,4,-1
 67 1456 l 1,5,-1
 656 1456 l 1,6,-1
 656 1280 l 1,7,-1
 515 1250 l 1,8,-1
 515 861 l 1,9,-1
 798 861 l 1,10,-1
 1003 1254 l 1,11,12
 1072 1375 1072 1375 1142 1422.5 c 128,-1,13
 1212 1470 1212 1470 1315 1470 c 0,14,15
 1374 1470 1374 1470 1417 1456 c 128,-1,16
 1460 1442 1460 1442 1496 1419 c 1,17,-1
 1447 1200 l 1,18,19
 1429 1205 1429 1205 1411.5 1208.5 c 128,-1,20
 1394 1212 1394 1212 1375 1212 c 0,21,22
 1333 1212 1333 1212 1296.5 1186.5 c 128,-1,23
 1260 1161 1260 1161 1211 1089 c 1,24,-1
 1041 799 l 1,25,-1
 1362 194 l 1,26,-1
 1488 175 l 1,27,-1
 1488 0 l 1,28,-1
 1093 0 l 1,29,-1
 822 596 l 1,30,-1
 515 596 l 1,31,-1
 515 205 l 1,32,-1
 656 175 l 1,33,-1
 656 0 l 1,34,-1
 67 0 l 1,0,-1
593 374 m 1,35,-1
 593 1112 l 1,36,-1
 760 1112 l 1,37,-1
 760 374 l 1,38,-1
 593 374 l 1,35,-1
EndSplineSet
EndChar

StartChar: uni04A0
Encoding: 1184 1184 641
Width: 1914
GlyphClass: 1
Flags: W
LayerCount: 2
Fore
SplineSet
434 0 m 1,0,-1
 434 175 l 1,1,-1
 589 205 l 1,2,-1
 589 1230 l 1,3,-1
 269 1230 l 1,4,-1
 258 1088 l 1,5,-1
 35 1088 l 1,6,-1
 35 1456 l 1,7,-1
 1029 1456 l 1,8,-1
 1029 1280 l 1,9,-1
 881 1250 l 1,10,-1
 881 861 l 1,11,-1
 1012 861 l 1,12,-1
 1285 1254 l 2,13,14
 1372 1376 1372 1376 1442 1423 c 128,-1,15
 1512 1470 1512 1470 1607 1470 c 0,16,17
 1665 1470 1665 1470 1710.5 1456 c 128,-1,18
 1756 1442 1756 1442 1793 1419 c 1,19,-1
 1744 1200 l 1,20,21
 1720 1207 1720 1207 1703 1209.5 c 128,-1,22
 1686 1212 1686 1212 1671 1212 c 0,23,24
 1626 1212 1626 1212 1585.5 1186 c 128,-1,25
 1545 1160 1545 1160 1490 1089 c 2,26,-1
 1262 777 l 1,27,-1
 1665 200 l 1,28,-1
 1818 175 l 1,29,-1
 1818 0 l 1,30,-1
 1241 0 l 1,31,-1
 1241 175 l 1,32,-1
 1324 187 l 1,33,-1
 1316 200 l 1,34,-1
 1052 596 l 1,35,-1
 881 596 l 1,36,-1
 881 205 l 1,37,-1
 1029 175 l 1,38,-1
 1029 0 l 1,39,-1
 434 0 l 1,0,-1
EndSplineSet
EndChar

StartChar: uni04A4
Encoding: 1188 1188 643
Width: 2060
GlyphClass: 1
Flags: W
LayerCount: 2
Fore
SplineSet
45 0 m 1,0,-1
 45 175 l 1,1,-1
 200 205 l 1,2,-1
 200 1250 l 1,3,-1
 45 1280 l 1,4,-1
 45 1456 l 1,5,-1
 200 1456 l 1,6,-1
 492 1456 l 1,7,-1
 648 1456 l 1,8,-1
 648 1280 l 1,9,-1
 492 1250 l 1,10,-1
 492 830 l 1,11,-1
 1086 830 l 1,12,-1
 1086 1250 l 1,13,-1
 930 1280 l 1,14,-1
 930 1456 l 1,15,-1
 1976 1456 l 1,16,-1
 1976 1088 l 1,17,-1
 1752 1088 l 1,18,-1
 1740 1231 l 1,19,-1
 1377 1231 l 1,20,-1
 1377 205 l 1,21,-1
 1533 175 l 1,22,-1
 1533 0 l 1,23,-1
 930 0 l 1,24,-1
 930 175 l 1,25,-1
 1086 205 l 1,26,-1
 1086 605 l 1,27,-1
 492 605 l 1,28,-1
 492 205 l 1,29,-1
 648 175 l 1,30,-1
 648 0 l 1,31,-1
 45 0 l 1,0,-1
EndSplineSet
EndChar

StartChar: uni04A6
Encoding: 1190 1190 644
Width: 2168
GlyphClass: 1
Flags: W
LayerCount: 2
Fore
SplineSet
1562 -331 m 1,0,-1
 1556 -329 l 1,1,-1
 1556 -123 l 1,2,3
 1656 -123 1656 -123 1711 -76 c 128,-1,4
 1766 -29 1766 -29 1788 52.5 c 128,-1,5
 1810 134 1810 134 1810 235 c 0,6,7
 1809 419 1809 419 1729.5 512 c 128,-1,8
 1650 605 1650 605 1498 605 c 2,9,-1
 1398 605 l 1,10,-1
 1398 205 l 1,11,-1
 1553 175 l 1,12,-1
 1553 0 l 1,13,-1
 951 0 l 1,14,-1
 951 175 l 1,15,-1
 1106 205 l 1,16,-1
 1106 1231 l 1,17,-1
 512 1231 l 1,18,-1
 512 205 l 1,19,-1
 668 175 l 1,20,-1
 668 0 l 1,21,-1
 65 0 l 1,22,-1
 65 175 l 1,23,-1
 220 205 l 1,24,-1
 220 1250 l 1,25,-1
 65 1280 l 1,26,-1
 65 1456 l 1,27,-1
 1553 1456 l 1,28,-1
 1553 1280 l 1,29,-1
 1398 1250 l 1,30,-1
 1398 834 l 1,31,-1
 1498 834 l 2,32,33
 1684 834 1684 834 1819 766.5 c 128,-1,34
 1954 699 1954 699 2027.5 568.5 c 128,-1,35
 2101 438 2101 438 2101 248 c 0,36,37
 2101 124 2101 124 2068.5 17.5 c 128,-1,38
 2036 -89 2036 -89 1970 -168 c 128,-1,39
 1904 -247 1904 -247 1802.5 -290 c 128,-1,40
 1701 -333 1701 -333 1562 -331 c 1,0,-1
EndSplineSet
EndChar

StartChar: uni04A8
Encoding: 1192 1192 645
Width: 1605
GlyphClass: 1
Flags: W
LayerCount: 2
Fore
SplineSet
1533 -18 m 1,0,1
 1305 -18 1305 -18 1124 52 c 1,2,3
 970 -21 970 -21 781 -21 c 0,4,5
 576 -21 576 -21 420 68.5 c 128,-1,6
 264 158 264 158 176.5 313.5 c 128,-1,7
 89 469 89 469 89 664 c 2,8,-1
 89 864 l 2,9,10
 89 1039 89 1039 154 1177.5 c 128,-1,11
 219 1316 219 1316 334.5 1395 c 128,-1,12
 450 1474 450 1474 599 1470 c 1,13,-1
 605 1468 l 1,14,-1
 605 1242 l 1,15,16
 541 1242 541 1242 494 1194 c 128,-1,17
 447 1146 447 1146 421.5 1061 c 128,-1,18
 396 976 396 976 396 866 c 2,19,-1
 396 664 l 2,20,21
 396 531 396 531 442.5 429 c 128,-1,22
 489 327 489 327 575.5 269.5 c 128,-1,23
 662 212 662 212 780 212 c 0,24,25
 801 212 801 212 819 213.5 c 128,-1,26
 837 215 837 215 853 219 c 1,27,28
 749 316 749 316 693.5 445 c 128,-1,29
 638 574 638 574 638 726 c 2,30,-1
 638 927 l 2,31,32
 638 1084 638 1084 692.5 1208 c 128,-1,33
 747 1332 747 1332 844.5 1404 c 128,-1,34
 942 1476 942 1476 1072 1476 c 0,35,36
 1205 1476 1205 1476 1306.5 1401 c 128,-1,37
 1408 1326 1408 1326 1465 1193 c 128,-1,38
 1522 1060 1522 1060 1522 887 c 2,39,-1
 1522 704 l 2,40,41
 1522 564 1522 564 1476.5 439.5 c 128,-1,42
 1431 315 1431 315 1347 219 c 1,43,44
 1389 210 1389 210 1435.5 205.5 c 128,-1,45
 1482 201 1482 201 1533 201 c 1,46,-1
 1533 -18 l 1,0,1
1091 337 m 1,47,48
 1159 405 1159 405 1194.5 498 c 128,-1,49
 1230 591 1230 591 1230 704 c 2,50,-1
 1230 916 l 2,51,52
 1230 1030 1230 1030 1212 1102 c 128,-1,53
 1194 1174 1194 1174 1158.5 1208 c 128,-1,54
 1123 1242 1123 1242 1072 1242 c 256,55,56
 1021 1242 1021 1242 985 1207 c 128,-1,57
 949 1172 949 1172 931.5 1102.5 c 128,-1,58
 914 1033 914 1033 914 929 c 2,59,-1
 914 724 l 2,60,61
 914 604 914 604 957 506.5 c 128,-1,62
 1000 409 1000 409 1091 337 c 1,47,48
EndSplineSet
EndChar

StartChar: uni04B4
Encoding: 1204 1204 651
Width: 1899
GlyphClass: 1
Flags: W
LayerCount: 2
Fore
SplineSet
1617 -351 m 1,0,-1
 1617 0 l 1,1,-1
 333 0 l 1,2,-1
 333 175 l 1,3,-1
 488 205 l 1,4,-1
 488 1230 l 1,5,-1
 280 1230 l 1,6,-1
 269 1088 l 1,7,-1
 47 1088 l 1,8,-1
 47 1456 l 1,9,-1
 1135 1456 l 1,10,-1
 1135 1088 l 1,11,-1
 911 1088 l 1,12,-1
 901 1230 l 1,13,-1
 780 1230 l 1,14,-1
 780 224 l 1,15,-1
 1411 224 l 1,16,-1
 1411 1250 l 1,17,-1
 1256 1280 l 1,18,-1
 1256 1456 l 1,19,-1
 1859 1456 l 1,20,-1
 1859 1280 l 1,21,-1
 1704 1250 l 1,22,-1
 1704 223 l 1,23,-1
 1907 223 l 1,24,-1
 1893 -351 l 1,25,-1
 1617 -351 l 1,0,-1
EndSplineSet
EndChar

StartChar: uni04B8
Encoding: 1208 1208 653
Width: 1554
GlyphClass: 1
Flags: W
LayerCount: 2
Fore
SplineSet
901 0 m 1,0,-1
 901 175 l 1,1,-1
 1056 205 l 1,2,-1
 1056 561 l 1,3,4
 989 545 989 545 916.5 536.5 c 128,-1,5
 844 528 844 528 761 528 c 0,6,7
 493 528 493 528 346.5 644 c 128,-1,8
 200 760 200 760 200 1003 c 2,9,-1
 200 1250 l 1,10,-1
 44 1280 l 1,11,-1
 44 1456 l 1,12,-1
 647 1456 l 1,13,-1
 647 1280 l 1,14,-1
 491 1250 l 1,15,-1
 491 1003 l 2,16,17
 491 861 491 861 555 807 c 128,-1,18
 619 753 619 753 761 753 c 0,19,20
 833 753 833 753 911.5 761.5 c 128,-1,21
 990 770 990 770 1056 786 c 1,22,-1
 1056 1250 l 1,23,-1
 901 1280 l 1,24,-1
 901 1456 l 1,25,-1
 1504 1456 l 1,26,-1
 1504 1280 l 1,27,-1
 1348 1250 l 1,28,-1
 1348 205 l 1,29,-1
 1504 175 l 1,30,-1
 1504 0 l 1,31,-1
 901 0 l 1,0,-1
675 308 m 1,32,-1
 675 1054 l 1,33,-1
 841 1054 l 1,34,-1
 841 308 l 1,35,-1
 675 308 l 1,32,-1
EndSplineSet
EndChar

StartChar: uni04BA
Encoding: 1210 1210 654
Width: 1570
GlyphClass: 2
Flags: W
LayerCount: 2
Fore
SplineSet
53 0 m 1,0,-1
 53 176 l 1,1,-1
 209 206 l 1,2,-1
 209 1251 l 1,3,-1
 53 1281 l 1,4,-1
 53 1456 l 1,5,-1
 217 1456 l 1,6,-1
 501 1456 l 1,7,-1
 656 1456 l 1,8,-1
 656 1281 l 1,9,-1
 501 1251 l 1,10,-1
 501 895 l 1,11,12
 563 910 563 910 635 919 c 128,-1,13
 707 928 707 928 796 928 c 0,14,15
 1063 928 1063 928 1210 811.5 c 128,-1,16
 1357 695 1357 695 1357 453 c 2,17,-1
 1357 206 l 1,18,-1
 1513 176 l 1,19,-1
 1513 0 l 1,20,-1
 910 0 l 1,21,-1
 910 176 l 1,22,-1
 1066 206 l 1,23,-1
 1066 453 l 2,24,25
 1066 594 1066 594 1001.5 648.5 c 128,-1,26
 937 703 937 703 796 703 c 0,27,28
 720 703 720 703 641 693.5 c 128,-1,29
 562 684 562 684 501 670 c 1,30,-1
 501 206 l 1,31,-1
 656 176 l 1,32,-1
 656 0 l 1,33,-1
 53 0 l 1,0,-1
EndSplineSet
EndChar

StartChar: uni04BC
Encoding: 1212 1212 655
Width: 1573
GlyphClass: 2
Flags: W
LayerCount: 2
Fore
SplineSet
1028 -23 m 0,0,1
 815 -23 815 -23 667 55 c 128,-1,2
 519 133 519 133 442 275 c 128,-1,3
 365 417 365 417 365 607 c 2,4,-1
 365 664 l 1,5,6
 209 688 209 688 126.5 798 c 128,-1,7
 44 908 44 908 43 1082 c 1,8,-1
 241 1082 l 1,9,10
 241 999 241 999 272 943.5 c 128,-1,11
 303 888 303 888 365 866 c 1,12,-1
 365 871 l 2,13,14
 367 1047 367 1047 445 1183.5 c 128,-1,15
 523 1320 523 1320 656.5 1397.5 c 128,-1,16
 790 1475 790 1475 957 1475 c 0,17,18
 1139 1475 1139 1475 1265 1392.5 c 128,-1,19
 1391 1310 1391 1310 1456.5 1157.5 c 128,-1,20
 1522 1005 1522 1005 1522 793 c 2,21,-1
 1522 643 l 1,22,-1
 657 643 l 1,23,-1
 657 607 l 2,24,25
 657 490 657 490 695.5 402.5 c 128,-1,26
 734 315 734 315 816 266.5 c 128,-1,27
 898 218 898 218 1028 218 c 0,28,29
 1140 218 1140 218 1229 237 c 128,-1,30
 1318 256 1318 256 1391 284 c 1,31,-1
 1440 59 l 1,32,33
 1389 31 1389 31 1281.5 4 c 128,-1,34
 1174 -23 1174 -23 1028 -23 c 0,0,1
658 863 m 1,35,-1
 1230 863 l 1,36,-1
 1230 894 l 2,37,38
 1230 996 1230 996 1201.5 1072.5 c 128,-1,39
 1173 1149 1173 1149 1112.5 1191 c 128,-1,40
 1052 1233 1052 1233 957 1233 c 0,41,42
 861 1233 861 1233 794 1186 c 128,-1,43
 727 1139 727 1139 692.5 1057 c 128,-1,44
 658 975 658 975 658 872 c 2,45,-1
 658 863 l 1,35,-1
EndSplineSet
EndChar

StartChar: uni04C3
Encoding: 1219 1219 659
Width: 1460
GlyphClass: 1
Flags: W
LayerCount: 2
Fore
SplineSet
841 -331 m 1,0,-1
 835 -329 l 1,1,-1
 834 -124 l 1,2,3
 934 -124 934 -124 989.5 -76.5 c 128,-1,4
 1045 -29 1045 -29 1066.5 52 c 128,-1,5
 1088 133 1088 133 1088 234 c 0,6,7
 1089 418 1089 418 1008.5 511.5 c 128,-1,8
 928 605 928 605 777 605 c 2,9,-1
 516 605 l 1,10,-1
 516 205 l 1,11,-1
 671 175 l 1,12,-1
 671 0 l 1,13,-1
 68 0 l 1,14,-1
 68 175 l 1,15,-1
 224 205 l 1,16,-1
 224 1250 l 1,17,-1
 68 1280 l 1,18,-1
 68 1456 l 1,19,-1
 671 1456 l 1,20,-1
 671 1280 l 1,21,-1
 516 1250 l 1,22,-1
 516 863 l 1,23,-1
 618 863 l 1,24,-1
 989 1456 l 1,25,-1
 1373 1456 l 1,26,-1
 1373 1280 l 1,27,-1
 1206 1254 l 1,28,-1
 907 833 l 1,29,-1
 902 825 l 1,30,31
 903 825 903 825 909 824.5 c 128,-1,32
 915 824 915 824 927 822 c 0,33,34
 1065 801 1065 801 1166.5 728.5 c 128,-1,35
 1268 656 1268 656 1324 535 c 128,-1,36
 1380 414 1380 414 1380 247 c 0,37,38
 1380 122 1380 122 1347.5 16.5 c 128,-1,39
 1315 -89 1315 -89 1249 -168 c 128,-1,40
 1183 -247 1183 -247 1081.5 -290 c 128,-1,41
 980 -333 980 -333 841 -331 c 1,0,-1
EndSplineSet
EndChar

StartChar: uni04C7
Encoding: 1223 1223 661
Width: 1583
GlyphClass: 1
Flags: W
LayerCount: 2
Fore
SplineSet
1008 -437 m 0,0,1
 975 -437 975 -437 942 -433 c 128,-1,2
 909 -429 909 -429 871 -420 c 1,3,-1
 885 -199 l 1,4,5
 906 -205 906 -205 932.5 -208.5 c 128,-1,6
 959 -212 959 -212 977 -212 c 0,7,8
 1040 -212 1040 -212 1073 -167 c 128,-1,9
 1106 -122 1106 -122 1106 -40 c 2,10,-1
 1106 605 l 1,11,-1
 512 605 l 1,12,-1
 512 205 l 1,13,-1
 668 175 l 1,14,-1
 668 0 l 1,15,-1
 65 0 l 1,16,-1
 65 175 l 1,17,-1
 220 205 l 1,18,-1
 220 1250 l 1,19,-1
 65 1280 l 1,20,-1
 65 1456 l 1,21,-1
 512 1456 l 1,22,-1
 668 1456 l 1,23,-1
 668 1280 l 1,24,-1
 512 1250 l 1,25,-1
 512 830 l 1,26,-1
 1106 830 l 1,27,-1
 1106 1250 l 1,28,-1
 950 1280 l 1,29,-1
 950 1456 l 1,30,-1
 1553 1456 l 1,31,-1
 1553 1280 l 1,32,-1
 1397 1250 l 1,33,-1
 1397 -40 l 2,34,35
 1397 -230 1397 -230 1295 -333.5 c 128,-1,36
 1193 -437 1193 -437 1008 -437 c 0,0,1
EndSplineSet
EndChar

StartChar: uni04E0
Encoding: 1248 1248 673
Width: 1157
GlyphClass: 1
Flags: W
LayerCount: 2
Fore
SplineSet
566 -21 m 0,0,1
 428 -21 428 -21 313 27 c 128,-1,2
 198 75 198 75 130.5 168.5 c 128,-1,3
 63 262 63 262 66 398 c 1,4,-1
 68 404 l 1,5,-1
 352 404 l 1,6,7
 352 347 352 347 378.5 301.5 c 128,-1,8
 405 256 405 256 454 229.5 c 128,-1,9
 503 203 503 203 569 203 c 0,10,11
 675 203 675 203 741 262.5 c 128,-1,12
 807 322 807 322 807 434 c 0,13,14
 807 561 807 561 737 622.5 c 128,-1,15
 667 684 667 684 527 684 c 2,16,-1
 392 684 l 1,17,-1
 392 866 l 1,18,-1
 728 1225 l 1,19,-1
 725 1231 l 1,20,-1
 356 1231 l 1,21,-1
 345 1087 l 1,22,-1
 122 1087 l 1,23,-1
 122 1456 l 1,24,-1
 1067 1456 l 1,25,-1
 1068 1273 l 1,26,-1
 704 869 l 1,27,-1
 704 864 l 1,28,29
 707 864 707 864 714 862.5 c 128,-1,30
 721 861 721 861 731 859 c 0,31,32
 903 829 903 829 1000.5 714.5 c 128,-1,33
 1098 600 1098 600 1098 421 c 0,34,35
 1098 281 1098 281 1031 182 c 128,-1,36
 964 83 964 83 844 31 c 128,-1,37
 724 -21 724 -21 566 -21 c 0,0,1
EndSplineSet
EndChar

StartChar: uni04FE
Encoding: 1278 1278 687
Width: 1514
GlyphClass: 2
Flags: W
AnchorPoint: "Anchor-4" 749 744 basechar 0
AnchorPoint: "Anchor-2" 758 0 basechar 0
AnchorPoint: "Anchor-0" 758 1364 basechar 0
LayerCount: 2
Fore
SplineSet
36 0 m 1,0,-1
 36 175 l 1,1,-1
 163 199 l 1,2,-1
 531 666 l 1,3,-1
 348 666 l 1,4,-1
 348 821 l 1,5,-1
 503 821 l 1,6,-1
 187 1255 l 1,7,-1
 69 1280 l 1,8,-1
 69 1456 l 1,9,-1
 638 1456 l 1,10,-1
 638 1280 l 1,11,-1
 499 1267 l 1,12,-1
 749 917 l 1,13,-1
 998 1267 l 1,14,-1
 863 1280 l 1,15,-1
 863 1456 l 1,16,-1
 1424 1456 l 1,17,-1
 1424 1280 l 1,18,-1
 1295 1255 l 1,19,-1
 977 821 l 1,20,-1
 1149 821 l 1,21,-1
 1149 666 l 1,22,-1
 984 666 l 1,23,-1
 1340 200 l 1,24,-1
 1479 175 l 1,25,-1
 1479 0 l 1,26,-1
 896 0 l 1,27,-1
 896 175 l 1,28,-1
 1021 187 l 1,29,-1
 751 557 l 1,30,-1
 475 187 l 1,31,-1
 597 175 l 1,32,-1
 597 0 l 1,33,-1
 36 0 l 1,0,-1
EndSplineSet
EndChar

StartChar: uni0500
Encoding: 1280 1280 688
Width: 1356
GlyphClass: 1
Flags: W
LayerCount: 2
Fore
SplineSet
600 0 m 2,0,1
 433 0 433 0 310 60.5 c 128,-1,2
 187 121 187 121 120.5 227.5 c 128,-1,3
 54 334 54 334 54 474 c 0,4,5
 54 613 54 613 121 719 c 128,-1,6
 188 825 188 825 310.5 884.5 c 128,-1,7
 433 944 433 944 600 944 c 2,8,-1
 851 944 l 1,9,-1
 851 1250 l 1,10,-1
 696 1280 l 1,11,-1
 696 1456 l 1,12,-1
 1298 1456 l 1,13,-1
 1298 1280 l 1,14,-1
 1143 1250 l 1,15,-1
 1143 205 l 1,16,-1
 1298 175 l 1,17,-1
 1298 0 l 1,18,-1
 600 0 l 2,0,1
600 224 m 2,19,-1
 851 224 l 1,20,-1
 851 719 l 1,21,-1
 600 719 l 2,22,23
 519 719 519 719 461.5 686.5 c 128,-1,24
 404 654 404 654 375 599 c 128,-1,25
 346 544 346 544 346 476 c 0,26,27
 346 370 346 370 411.5 297 c 128,-1,28
 477 224 477 224 600 224 c 2,19,-1
EndSplineSet
EndChar

StartChar: uni0502
Encoding: 1282 1282 689
Width: 1741
GlyphClass: 1
Flags: W
LayerCount: 2
Fore
SplineSet
603 0 m 2,0,1
 436 0 436 0 313 60.5 c 128,-1,2
 190 121 190 121 123.5 227.5 c 128,-1,3
 57 334 57 334 57 474 c 0,4,5
 57 613 57 613 123.5 719 c 128,-1,6
 190 825 190 825 313 884.5 c 128,-1,7
 436 944 436 944 603 944 c 2,8,-1
 854 944 l 1,9,-1
 854 1250 l 1,10,-1
 699 1280 l 1,11,-1
 699 1456 l 1,12,-1
 854 1456 l 1,13,-1
 1301 1456 l 1,14,-1
 1301 1280 l 1,15,-1
 1146 1250 l 1,16,-1
 1146 225 l 1,17,-1
 1215 225 l 2,18,19
 1306 225 1306 225 1356.5 275 c 128,-1,20
 1407 325 1407 325 1409 428 c 0,21,22
 1409 496 1409 496 1393.5 579 c 128,-1,23
 1378 662 1378 662 1349 745 c 1,24,-1
 1634 745 l 1,25,26
 1667 646 1667 646 1684 571 c 128,-1,27
 1701 496 1701 496 1701 425 c 0,28,29
 1700 288 1700 288 1634.5 193.5 c 128,-1,30
 1569 99 1569 99 1459.5 49.5 c 128,-1,31
 1350 0 1350 0 1215 0 c 2,32,-1
 603 0 l 2,0,1
603 224 m 2,33,-1
 854 224 l 1,34,-1
 854 719 l 1,35,-1
 603 719 l 2,36,37
 522 719 522 719 464.5 686.5 c 128,-1,38
 407 654 407 654 378 599 c 128,-1,39
 349 544 349 544 349 476 c 0,40,41
 349 370 349 370 414.5 297 c 128,-1,42
 480 224 480 224 603 224 c 2,33,-1
EndSplineSet
EndChar

